<?xml version="1.0" encoding="utf-8"?>
<!-- Generator: Adobe Illustrator 22.0.0, SVG Export Plug-In . SVG Version: 6.00 Build 0)  -->
<svg version="1.1" xmlns="http://www.w3.org/2000/svg" xmlns:xlink="http://www.w3.org/1999/xlink" x="0px" y="0px" width="787.7px"
	 height="612.3px" viewBox="0 0 787.7 612.3" style="enable-background:new 0 0 787.7 612.3;" xml:space="preserve">
<style type="text/css">
	.st0{fill:#FDDC62;}
</style>
<g id="Layer_1">
	<path d="M749,313c15.2,4.5,23.4,8.1,31.9,14c-5.8,15.6-11.5,31.3-17.4,47.2c-4.8-2.7-9.4-5.5-14.3-7.9c-7.5-3.8-15.5-6.1-24-5.7
		c-3.2,0.2-6.5,1.4-9.4,2.8c-2.9,1.4-4.2,4.3-3.8,7.6c0.4,3,2.3,5.3,5.3,6.1c7,1.9,14.2,3.4,21.2,5.4c5.9,1.7,11.9,3.3,17.5,5.7
		c17.7,7.7,28.4,21,30.3,40.6c2,20.2-3.3,37.9-18.1,52.3c-10.5,10.2-23.4,16.5-37.7,19.1c-31.3,5.9-60.8-0.5-88.9-14.5
		c-0.1-0.1-0.2-0.3-0.6-0.8c6.4-17,13-34.3,19.6-51.9c5.4,3.8,10.2,7.5,15.4,10.7c9.1,5.5,18.9,9.2,29.7,8.7
		c4.5-0.2,8.9-1.2,12.3-4.6c4.7-4.7,3.5-12-2.8-14.1c-6.1-2-12.6-3.1-18.9-4.3c-8.4-1.6-16.5-3.7-24-7.8
		c-18-9.9-26.2-25.3-25.3-45.7c0-1,0.2-2,0.3-3.7c-9.4-0.5-18.6-0.9-28.3-1.4c0,42.3,0,84.4,0,126.8c-21.8,0-43.2,0-65.1,0
		c0-42.3,0-84.4,0-126.2c-6.5,0-12.6,0-19.2,0c0.6,2.3,1,4,1.5,5.7c7.7,31.5,4.5,61.2-15.4,87.7c-12.2,16.2-28.7,26.5-48.3,31.7
		c-29.3,7.7-57.8,5.7-84.5-9.3c-24.6-13.9-38.4-35.5-43.7-63.8c-0.6,1.8-1,3-1.3,4.3s-0.6,2.6-0.9,3.9
		c-9.2,34.9-31.9,56.5-66.2,65.6c-26.9,7.1-53.5,5.1-78.6-7.7c-26.6-13.6-42.1-35.5-47.3-64.7c-1.3-7.2-1.5-14.5-2.3-22.5
		c-6.4,12.7-17.6,18.5-30.3,23c0.7,0.9,1,1.6,1.6,2.1c5.5,4.2,9.4,9.7,13.1,15.6c10.5,16.8,21.3,33.4,32,50c0.9,1.4,1.8,2.8,3,4.7
		c-25.2,0-49.8,0-74.8,0c-9.2-19.4-18.6-39.1-28-58.7c-0.4,0.1-0.7,0.2-1.1,0.2c0,19.5,0,39,0,58.7c-21.4,0-42.1,0-63.2,0
		C0,334.2,0,170.6,0,6.4c12,0.2,24-1,35.8,2.8c10.7,3.5,17.8,10.4,19.8,21.6c2.2,11.7,0.5,22.6-9.4,30.7c-0.2,0.2-0.4,0.5-0.9,1.1
		C59.7,68.2,67,78.7,67,94.1c0,15.6-8,25.4-22.1,31.4c1,0.1,2,0.4,3,0.4c11.5,0,23-0.2,34.5,0c13.2,0.3,26.2,1.8,38.5,7.2
		c15.6,6.8,24.6,18.6,27.1,35.5c1.5,9.8,1,19.3-2.6,28.5c-3.6,9-9.5,15.9-18.7,19.6c-0.6,0.2-1.1,0.7-2.5,1.6
		c12.8,5.4,23.4,12.6,29.1,25.5c1.5-3.8,2.1-96.6,0.9-114c-1.4,0-2.8-0.1-4.2,0c-23.7,2.1-41.5-11.3-46-34.7
		c-0.7-3.4-1.1-6.9-1.1-10.4c-0.1-25.2-0.1-50.3-0.1-75.5c0-0.8,0-1.6,0-2.6c5,0,9.6,0,14.7,0c0,1.6,0,3,0,4.5
		c0,22.5-0.2,45,0.1,67.5c0.1,6.2,0.8,12.7,2.5,18.7c5,17,24.3,24.1,39.5,14.9c7.7-4.7,10.9-12.4,12.2-20.8
		c0.9-5.9,1.2-11.9,1.2-17.9c0.1-20.7,0-41.3,0-62c0-1.5,0-2.9,0-4.7c4.9,0,9.5,0,14.4,0c0.1,1.2,0.3,2.5,0.3,3.8
		c0,24.5,0.2,49,0,73.5C187.6,99,183,112.2,171,122c-0.4,0.3-0.6,0.7-1.4,1.7c17.4,0,34.2,0,51.3,0c0,43.5,0,86.4,0,129.8
		c18.7,0,37.1,0,55.9,0c0,20.2,0,40,0,59.7c36.9,11.9,59.4,36.4,67.4,75.3c5-27,17.8-47.8,39.7-62.4c21.8-14.6,46.2-18.7,72.4-16
		c0-62.2,0-123.9,0-185.9c2.5-0.2,4.6-0.4,7-0.6C481,83.2,498.7,42.8,516.5,2.4c0.4-0.1,0.7-0.1,1.1-0.2
		c17.7,40.1,35.5,80.5,53.3,121.1c2.8,0.1,5.6,0.3,8.6,0.4c0,17.4,0,34.5,0,52.1c-18.3,0-36.7,0-55.4,0c0,6.2,0,12,0,18.1
		c16.7,0,33.4,0,50.5,0c0,16.7,0,33.1,0,49.9c-16.8,0-33.6,0-50.6,0c0,6.3,0,12.2,0,18.5c19.1,0,38.2,0,57.6,0c0,9.3,0,18.3,0,27.2
		c0.3,0.1,0.6,0.1,0.8,0.2c5.5-14.4,11-28.9,16.4-43.1c6.3,4.2,12.2,8.5,18.5,12.2c8.4,4.9,17.6,7.8,27.5,7.5
		c4.1-0.1,7.8-1.2,11.3-3.4c3.2-2.1,4.9-5,4.6-8.8c-0.4-3.9-2.9-6.5-6.4-7.5c-4.9-1.4-10-2.3-15.1-3.3c-8.8-1.6-17.6-3.4-25.7-7.4
		c-22.1-10.7-30.9-29.5-28.2-52.7c3-25.3,17.1-42.6,39.4-53.9c0.9-0.4,1.8-0.8,2.6-2c-3.6,0-7.3,0-10.9,0c-3.8,0-7.6,0-11.9,0
		c0-40.3,0-80.3,0-121.2c4.5,0,9,0,13.6,0c7,0,14,0.4,20.7,2.4c20.3,5.9,29,29.2,17.4,46.9c-1.7,2.6-4.1,4.7-6.4,7.3
		c12.7,4,19.8,13.2,21.6,25.9c1.8,12.4-1.8,23.4-13.3,31.9c23.5-0.4,44.7,4.2,64.1,17c-5.9,16.2-11.8,32.3-17.9,48.8
		c-3.9-2.3-7.6-4.7-11.5-6.8c-9.1-4.9-18.7-8.1-29.1-7.1c-2.9,0.3-6,1.2-8.4,2.7c-5.8,3.6-5.2,11.4,1.2,13.7
		c5.6,2.1,11.5,3.2,17.3,4.6c11,2.6,22,5.3,31.5,11.8c4,2.8,7.5,6.4,11.3,9.6c0,8.1,0,16.2,0,24.5c-2,0.1-3.4,0.2-4.9,0.2
		c-8.2,0-16.3,0-24.5,0c-1.3,0-2.7,0-4-0.3c-5.3-1-8.1,1.7-7.3,7.1c0.4,2.4,0.7,4.9,0.8,7.4c0.1,4.7-0.1,9.3,0.1,14
		c0.1,1.8,0.8,3.7,1.3,5.5c11.5,0,22.3,0,33.2,0c4.5,0,5.6,1.3,5.6,5.7c0,2.8-0.1,5.5-0.2,8.3c-15.4,20.6-37.2,28.2-61.7,30.5
		c0,9.5,0,18.9,0,29.2c6.9-11.5,15.7-19.6,26.4-25.7c11.2-6.3,23.2-9.6,36-10.5c8.6,0.8,17.2,1.6,25.8,2.3
		C745.2,313.2,747.1,313,749,313z M208.5,315.2c0.3-0.2,0.6-0.4,0.9-0.6c-0.4,0.1-0.9,0.1-1.3,0.2c-17.7,0-35.5,0-53.7,0
		c0-10.4,0-20.3,0-30.2c-9.4,19.3-26.5,26.8-46.5,31.1c29.4,9.2,43.5,29.1,44.3,59.6c1.1-2.7,1.9-4.5,2.6-6.4
		c7.1-18.4,18.8-33.1,35.5-43.8C196,321.4,202.4,318.5,208.5,315.2z M408.1,406.6c0.6,3.8,0.9,7.6,1.8,11.3
		c3.4,13.2,13.7,22,27.1,23.6c14.1,1.7,26.5-4.2,32.9-15.9c5.4-10,6.2-20.6,3-31.4c-8-26.9-37.9-29.9-53-15.9
		C411.7,385.9,408.5,395.6,408.1,406.6z M213.7,406.2c0,14.9,6.3,26.5,17.8,32.1c15.4,7.6,37.7,3.2,45.4-16.3
		c4.5-11.6,4.2-23.1-1.4-34.3c-10.6-21-39.7-23.8-54.1-5.2C215.9,389.4,213.7,397.5,213.7,406.2z M490.5,97.2
		c-3.8,8.8-7.4,17.2-11.3,26c25.6,0,50.5,0,75.8,0c-3.9-8.9-7.7-17.5-11.4-26C525.8,97.2,508.4,97.2,490.5,97.2z M14.6,114
		c7.8-0.6,15.2-0.5,22.3-1.9c9.8-1.8,15.4-9.2,15.8-19c0.3-9-4.5-15.5-13.9-18.9c-7.9-2.8-15.9-1.9-24.2-2.1
		C14.6,86.1,14.6,99.5,14.6,114z M619.3,113.6c8.5-0.6,16.6,0.8,24.5-2.1c8.7-3.2,12.9-9,13.3-18.3c0.5-10.1-5.3-15.8-12.7-18.7
		c-8.1-3.1-16.5-2.6-25.2-2.2C619.3,86.1,619.3,99.5,619.3,113.6z M14.5,59.9c4.9-0.4,9.4-0.3,13.7-1.2c9.2-1.8,13.6-7,14.4-16.5
		c0.1-1.7,0.2-3.3,0.1-5c-0.5-8.7-4.9-14.3-13.3-16.4c-4.8-1.2-9.7-1.6-14.9-0.8C14.5,33.3,14.5,46.2,14.5,59.9z M496.8,82.9
		c13.8,0,26.9,0,40.7,0c-6.7-16-13.3-31.6-19.8-47.2c-0.3,0-0.7,0.1-1,0.1C510,51.4,503.5,66.9,496.8,82.9z M619.2,59.8
		c3.5-0.2,6.5-0.2,9.4-0.4c15.5-1.3,19.1-9.7,18.7-21.7c-0.2-6.5-2.5-12.2-8.7-15.1c-6.1-2.9-12.7-3-19.4-2.6
		C619.2,33.4,619.2,46.3,619.2,59.8z M62,271c7.9,0.3,15.4,0.4,22.8-1.7c7-2,10.6-6.8,10.6-13.8c0-7.3-3.5-12.2-10.7-14.3
		c-7.4-2.1-15-2-22.8-1.5C62,250.3,62,260.5,62,271z M63.3,362.5c0,11,0,21.1,0,31.6c1.9,0,3.5,0.1,5.2,0c2.2-0.1,4.3-0.3,6.5-0.5
		c10.9-1.1,15.1-8.8,13.3-19.1c-1.1-6.3-5-9.7-10.8-10.8C72.9,362.8,68.2,362.9,63.3,362.5z M62,172.3c0,9.2,0,17.8,0,26.6
		c5.7,0.5,11.2,0.4,16.5-1c6.7-1.8,9.9-6.8,9.4-14.4c-0.4-6.4-4.3-10.5-11.2-11.1C71.9,172,67.1,172.3,62,172.3z M478.1,314.9
		c15.9,6.2,29,15,40,27.5c0-9.6,0-18.4,0-27.5C505,314.9,492.1,314.9,478.1,314.9z M606.3,311.7c-8.6-3.3-16.5-6.3-24.4-9.3
		c0,3.2,0,6.2,0,9.3C590,311.7,597.8,311.7,606.3,311.7z"/>
	<path d="M249.5,76.3c-2,0-3.6,0-5.7,0c0,16.8,0,33.6,0,50.7c-5.1,0-9.8,0-14.8,0c0-40.1,0-80.1,0-120.7c7.9,0,15.8-0.2,23.7,0.1
		c5.3,0.2,10.6,0.9,15.8,1.9c14.1,2.8,22.8,16,23.7,28.7c1.1,14.6-3.6,26.5-16.7,34.1c-3,1.7-6.4,2.6-10.2,4.1
		c11,15.9,22.1,31.9,33.3,48c12.3,0,24.3,0,36.8,0c0-40.8,0-81.3,0-123.2c29.2,32,57.6,63,86.9,95c0-30.3,0-59.3,0-88.6
		c5.1,0,9.7,0,14.8,0c0,39,0,77.9,0,117c4.7,0,8.8,0,13.3,0c0.1,1.4,0.3,2.7,0.3,4c0,36.3,0.1,72.6,0,109
		c-0.1,11.8-1.4,23.5-5.5,34.8c-6.9,18.9-19.4,32.5-38.3,39.5c-26.7,9.9-53.8,10-80.6,0.6c-23-8.1-36.8-25-42.2-48.5
		c-1.9-8.4-2.9-17.1-3-25.7c-0.3-36.3-0.1-72.6,0-109c0-3-0.6-5.4-2.3-7.9C269.1,105.6,259.4,91.1,249.5,76.3z M427.7,123.6
		c0.1-0.4,0.2-0.7,0.3-1.1c-25.7-28.1-51.4-56.2-77.9-85.1c0,2.1,0,2.9,0,3.7c0,27.2,0,54.3,0,81.5c0,1.5,0.2,3.9-0.5,4.2
		c-2.4,1.2-1.6,3-1.6,4.6c0,35-0.1,70,0,105c0,4.1,1,8.2,2,12.2c1.1,4.3,4.4,7,8.6,8.3c4.9,1.5,9.8,1.6,14.7,0c4-1.3,7.3-3.8,8.2-8
		c1.2-5.1,2.2-10.4,2.2-15.7c0.2-34.7,0.1-69.3,0.1-104c0-1.8,0-3.6,0-5.7C398.8,123.6,413.2,123.6,427.7,123.6z M243.9,63.1
		c7.5,0.5,14.9,0.3,22.1-2.3c8.6-3.1,12.3-9.6,12.7-18.4c0.4-8.8-3.1-15.5-11.3-19.3c-7.4-3.4-15.4-3.4-23.5-3.4
		C243.9,34.4,243.9,48.5,243.9,63.1z"/>
	<path d="M749.9,127.2c-5.1,0-9.7,0-14.6,0c-0.1-1.6-0.2-3-0.2-4.4c0-14.7-0.1-29.3,0-44c0-2.7-0.5-5.1-1.9-7.6
		C721.6,50.3,710,29.4,698.5,8.5c-0.3-0.5-0.4-1.2-0.8-2.1c5.7,0,11.2,0,16.6,0c9.3,17,18.6,33.8,28.2,51.2
		c9.5-17.2,18.7-34.1,28.1-51.1c5.4,0,10.8,0,16.8,0c-2.4,4.5-4.6,8.8-6.9,12.9c-9.6,17.4-19.4,34.8-28.9,52.3
		c-1.1,1.9-1.6,4.4-1.6,6.6C749.8,94.4,749.9,110.5,749.9,127.2z"/>
	<path d="M413.2,611c-5.7,0-10.6,0-15.8,0c-0.9-3.2-1.9-6.3-2.9-9.7c-4.6,0-9.2,0-14.4,0c-0.8,2.9-1.7,6-2.7,9.5
		c-4.6,0-9.4,0-14.9,0c5.8-19.8,11.5-39.5,17.2-59.2c5.2,0,10.2,0,15.7,0C401.3,571.2,407.2,590.8,413.2,611z M392,591.5
		c-1.6-6.7-3.1-13.3-4.9-20.8c-1.6,7.5-3,14-4.5,20.8C385.9,591.5,388.8,591.5,392,591.5z"/>
	<path d="M614.7,581.9c0-7.7,0.9-14.3,3.9-20.4c5.1-10.5,17.9-14.5,27.3-7.9c3.1,2.2,5.8,5.7,7.1,9.2c4.8,12.2,4.9,24.7,0.1,36.9
		c-3.2,8.3-9.6,12.4-18,12.3c-8.1-0.1-14.2-4.6-17.4-12.6C615.4,593.5,614.7,587.3,614.7,581.9z M642.4,581.6c-0.2,0-0.3,0-0.5,0
		c0-2.5,0.2-5-0.1-7.5c-0.4-2.9-1.2-5.8-1.8-8.7c-0.5-2.4-2.2-3.9-4.5-4c-2.5-0.2-3.7,1.9-4.6,4c-0.5,1.2-1.1,2.5-1.1,3.8
		c-0.2,7.6-0.2,15.2-0.2,22.8c0,1.4,0.5,2.9,1,4.3c0.9,2.4,2.1,4.9,5,4.7c2.8-0.2,3.9-2.7,4.9-5.1c0.2-0.6,0.3-1.3,0.4-1.9
		C641.5,589.8,641.9,585.7,642.4,581.6z"/>
	<path d="M322.5,611c-4.2,0-8.2,0-12.3,0c-7.1-19.7-14.2-39.3-21.5-59.3c5.5,0,10.7,0,16.3,0c3.7,11.4,7.5,22.8,11,33.7
		c3.6-10.9,7.3-22.2,11.1-33.7c5.3,0,10.4,0,15.9,0C336.2,571.5,329.4,591.1,322.5,611z"/>
	<path d="M567.7,600.4c5.7,0,10.8,0,16.3,0c0,3.6,0,6.9,0,10.5c-12.8,0-25.3,0-38.6,0c1.1-1.7,1.9-3.1,2.8-4.4
		c6.4-9.5,12.9-19,19.1-28.6c1.7-2.6,2.8-5.6,3.7-8.6c0.5-1.8,0.2-3.9,0-5.8c-0.3-2.7-2.1-4-4.7-4.3c-2.8-0.3-4.6,1.3-5.3,3.7
		c-0.8,2.8-0.9,5.9-1.4,9.2c-4,0-8.4,0-12.8,0c-2.9-10.7,2.5-19.2,13-20.9c6-1,11.9-0.8,17.6,1.6c5.5,2.3,8.1,6.6,8.4,12.4
		c0.3,4.8-1.4,9.2-3.9,13.2c-3.3,5.2-6.7,10.3-10,15.4C570.6,595.8,569.3,597.9,567.7,600.4z"/>
	<path d="M89.8,551.8c0,3.6,0,6.9,0,10.9c-4.8,0-9.5,0-14.5,0c0,4.4,0,8.1,0,12.5c4,0,8.2,0,12.6,0c0,4,0,7.4,0,11.5
		c-4.1,0-8.2,0-12.5,0c0,4.7,0,8.7,0,13.3c4.6,0,9.3,0,14.4,0c0,3.8,0,7.3,0,11c-9.5,0-19.1,0-29.1,0c0-19.5,0-39.1,0-59.1
		C70.2,551.8,79.8,551.8,89.8,551.8z"/>
	<path d="M123,609.3c0-3.8,0-7.4,0-11.3c1.6,0.6,2.8,1.3,4,1.5c2.9,0.5,5.9,1.1,8.8,1c3.4-0.1,5.7-2.3,6.2-4.8
		c0.5-2.7-0.7-5.1-3.7-7c-4.1-2.6-8.4-4.8-12.2-7.7c-9.1-6.7-7.6-20.2,0.2-26.4c3.8-3,8.5-4.1,13.1-4.1c4.4,0,8.9,0.7,13,3.2
		c0,3.5,0,7,0,10.9c-1.5-0.6-2.8-1.2-4.1-1.6c-2.2-0.6-4.4-1.5-6.7-1.6c-2.8-0.2-5.4,1-6.5,3.8s-0.2,5.2,2.2,7.1
		c1.9,1.4,3.7,2.7,5.6,4c2.7,1.9,5.6,3.6,8.2,5.6c9.6,7.3,6.6,23.2-4.6,28C138.7,613.3,130.8,613,123,609.3z"/>
	<path d="M0,551.6c10,0,19.6,0,29.5,0c0,3.6,0,7,0,10.9c-4.7,0-9.4,0-14.4,0c0,4.3,0,8.2,0,12.5c4.3,0,8.4,0,12.8,0
		c0,3.9,0,7.4,0,11.3c-4.1,0-8.2,0-12.9,0c0,8.3,0,16.4,0,24.6c-5.3,0-10,0-15,0C0,591.1,0,571.5,0,551.6z"/>
	<path d="M218.9,551.7c0,3.5,0,6.8,0,10.6c-3.5,0-7,0-11.1,0c0,16.4,0,32.3,0,48.5c-5.2,0-9.9,0-15,0c0-16,0-31.9,0-48.2
		c-4,0-7.6,0-11.4,0c0-3.8,0-7.2,0-10.9C193.8,551.7,206,551.7,218.9,551.7z"/>
	<path d="M441,610.9c0-19.9,0-39.3,0-59.1c4.8,0,9.5,0,14.7,0c0,15.7,0,31.6,0,47.8c5.2,0,10,0,15,0c0,4,0,7.5,0,11.3
		C460.9,610.9,451.2,610.9,441,610.9z"/>
	<path d="M261.1,610.9c-4.7,0-9.3,0-14.3,0c0-19.6,0-39.3,0-59.2c4.7,0,9.3,0,14.3,0C261.1,571.3,261.1,591,261.1,610.9z"/>
	<path d="M208.5,315.2c-0.2-0.1-0.3-0.3-0.5-0.4c0.4-0.1,0.9-0.1,1.3-0.2C209.1,314.7,208.8,314.9,208.5,315.2z"/>
	<path d="M745.7,581.9c0-7.7,0.9-14.3,3.9-20.4c5.1-10.5,17.9-14.5,27.3-7.9c3.1,2.2,5.8,5.7,7.1,9.2c4.8,12.2,4.9,24.7,0.1,36.9
		c-3.2,8.3-9.6,12.4-18,12.3c-8.1-0.1-14.2-4.6-17.4-12.6C746.4,593.5,745.7,587.3,745.7,581.9z M773.4,581.6c-0.2,0-0.3,0-0.5,0
		c0-2.5,0.2-5-0.1-7.5c-0.4-2.9-1.2-5.8-1.8-8.7c-0.5-2.4-2.2-3.9-4.5-4c-2.5-0.2-3.7,1.9-4.6,4c-0.5,1.2-1.1,2.5-1.1,3.8
		c-0.2,7.6-0.2,15.2-0.2,22.8c0,1.4,0.5,2.9,1,4.3c0.9,2.4,2.1,4.9,5,4.7c2.8-0.2,3.9-2.7,4.9-5.1c0.2-0.6,0.3-1.3,0.4-1.9
		C772.5,589.8,772.9,585.7,773.4,581.6z"/>
	<path d="M698.7,600.4c5.7,0,10.8,0,16.3,0c0,3.6,0,6.9,0,10.5c-12.8,0-25.3,0-38.6,0c1.1-1.7,1.9-3.1,2.8-4.4
		c6.4-9.5,12.9-19,19.1-28.6c1.7-2.6,2.8-5.6,3.7-8.6c0.5-1.8,0.2-3.9,0-5.8c-0.3-2.7-2.1-4-4.7-4.3c-2.8-0.3-4.6,1.3-5.3,3.7
		c-0.8,2.8-0.9,5.9-1.4,9.2c-4,0-8.4,0-12.8,0c-2.9-10.7,2.5-19.2,13-20.9c6-1,11.9-0.8,17.6,1.6c5.5,2.3,8.1,6.6,8.4,12.4
		c0.3,4.8-1.4,9.2-3.9,13.2c-3.3,5.2-6.7,10.3-10,15.4C701.6,595.8,700.3,597.9,698.7,600.4z"/>
</g>
<g id="Layer_2">
	<path class="st0" d="M716.9,287.2c0.1-2.8,0.2-5.5,0.2-8.3c0-4.4-1.2-5.6-5.6-5.7c-10.8-0.1-21.6,0-33.2,0
		c-0.4-1.8-1.2-3.6-1.3-5.5c-0.2-4.7,0-9.3-0.1-14c-0.1-2.5-0.4-4.9-0.8-7.4c-0.8-5.4,2-8.1,7.3-7.1c1.3,0.2,2.6,0.3,4,0.3
		c8.2,0,16.3,0,24.5,0c1.5,0,2.9-0.1,4.9-0.2c0-8.3,0-16.4,0-24.5c0.3-1.5,0.9-3.1,0.9-4.6c0.1-4.3,0-8.6,0-13.3
		c10.4,0,20.6,0,31.4,0c0,14.1,0,28.4,0,43.1c12.7,0,25,0,37.6,0c0,11.2,0,21.9,0,33c-12.4,0-24.6,0-37.5,0
		c-0.1,13.7-0.1,26.9-0.2,40.1c-1.9,0-3.8,0.2-5.6,0.1c-8.6-0.7-17.2-1.5-25.8-2.3c0.1-7.3,0.1-14.6,0.1-22
		C717.7,288.3,717.2,287.7,716.9,287.2z"/>
</g>
</svg>
