<?xml version="1.0" encoding="utf-8"?>
<!-- Generator: Adobe Illustrator 22.0.0, SVG Export Plug-In . SVG Version: 6.00 Build 0)  -->
<svg version="1.1" id="Layer_1" xmlns="http://www.w3.org/2000/svg" xmlns:xlink="http://www.w3.org/1999/xlink" x="0px" y="0px"
	  viewBox="0 0 1200 316" style="enable-background:new 0 0 1200 316;" xml:space="preserve">
<style type="text/css">
	.main{fill:#005289;}
	.background{fill:#FDFDFD;}
	.cross{fill:#F9D85F;}
</style>
	<g id="main-layer">
	<path class="main" d="M667.9,69.8c-2.9,0-5.2,0-8,0c0-2.3,0-4.4,0-6.5c0-4.3-0.3-8.7,0.1-13c0.5-6.6-1.2-12.2-4.6-17.8
		c-4.9-8.1-9.3-16.5-13.8-24.8c-0.7-1.3-1.8-2.4-1.8-4.4c2.7,0,5.4,0,8.5,0c5,9,10.1,18.3,15.6,28.2c5.4-9.7,10.5-19,15.7-28.3
		c3,0,5.8,0,8.6,0c-0.1,2-1.2,3.3-2,4.7c-5.5,9.9-10.9,19.8-16.4,29.6c-1.3,2.2-1.9,4.5-1.9,7.1C668,52.9,667.9,61.2,667.9,69.8z"/>
		<path class="main" d="M623.4,234.6c-3.4,0-6.4,0-9.8,0c1.4-7.7,2.9-15.3,4.3-23c0.2,0,0.4,0,0.6,0
		C620.1,219.2,621.7,226.8,623.4,234.6z"/>
		<g>
		<path class="main" d="M1112.7,242.6c0.3,0.2,0.5-0.3,0.2-0.7C1112.7,242.1,1111.9,242.1,1112.7,242.6z"/>
			<path class="main" d="M1156.9,206.3c-3.7,1.3-4.3,4.5-4.8,7.6c-1,6.3-0.6,12.6,0.1,18.9c0.3,2.3,0.8,4.6,2.1,6.6
			c1.5,2.1,3.7,2.2,5.5,0.3c1-1,1.4-2.3,1.7-3.5c0.4-2.1,0.7-4.2,1-6.4c0.7-5.7,0.3-11.3-0.7-16.9
			C1161.3,210.2,1160.6,207.2,1156.9,206.3z"/>
			<path class="main" d="M1013.7,242.6c0.3,0.2,0.5-0.3,0.2-0.7C1013.7,242.1,1012.9,242.1,1013.7,242.6z"/>
			<path class="main" d="M1193.3,227.3c-2.1-3.5-2.2-6.9-0.2-10.4c1.3-2.3,2.6-4.7,3.9-7c1.3-2.4,1.7-4.9,1.2-7.7
			c-1.1-6.9-3.7-13.1-7.2-19c-3.4-5.7-7-11.3-10.5-17c-3-5-5.7-10.1-5.5-16c-1.3-1.4-2.6-0.9-3.9-0.6c-13.2,2.5-26.5,4.6-40.1,6.2
			c-0.9-2.7-0.4-5.5-0.4-8.3c1.7-0.6,3.3-1.1,4.8-1.6c1.9-0.6,3.6-1.7,5-3.1c3.6-3.7,3.4-8.5-0.6-11.8c-6.5-5.5-19.2-5.3-25.6,0.3
			c-4.1,3.7-3.9,9.1,0.4,12.5c2.6,2.1,5.8,3,9.2,3.6c0.8,3.1,0.6,6,0.3,9.2c-10.5,1-20.9,2.1-31.7,2.4c0-3.6-0.3-6.8,0.1-10.2
			c2.6-0.8,5.2-1.4,7.5-2.8c6.4-4.1,6.5-11.1-0.1-14.8c-7.2-4-14.8-3.9-21.9,0.2c-6.9,4-6.6,10.8,0.2,14.9c2.3,1.4,5,1.6,7.6,2.9
			c0.1,3.1,0.3,6.2,0.4,9.3c-4.4,1.3-25.3,1.3-35.3,0.1c0.7-0.8,1.8-0.3,2.8-0.8c0-2.4,0-4.7,0-6.8c1.2-1.6,2.8-1.5,4.2-2
			c2.7-1,5.2-2.3,7-4.6c2.4-3.1,2.4-6.5-0.2-9.5c-0.6-0.8-1.4-1.4-2.2-2c-6.2-4.3-17.1-4.3-23.2,0c-6.2,4.2-6,10.4,0.4,14.4
			c2.4,1.5,5.2,2,8,2.9c0,2.5,0,5,0,8c-12.9-0.4-25.3-3-37.6-5.8c-1.8,1.2-2.5,2.9-3.6,4.4c-5,6.9-10.7,13.1-17.3,18.6
			c-8.9,7.5-19.3,11.1-30.7,11.5c-7.4,0.3-14.9,0.1-22.6-0.6c1.3-0.6,2.7-1,4.1-1.6c13.5-5.6,23.1-14.9,26-29.8
			c1.3-6.6,1.1-13.3-0.9-19.8c-2.4-7.8-7.5-13.2-14.4-17.2c-6.7-3.9-14.3-5.3-21.7-7.1c-2.3-0.5-4.5-1.2-6.7-1.9
			c-1.8-0.6-3-1.9-3.1-4c-0.1-2.2,0.8-3.9,2.7-5c1.8-1.1,3.8-1.3,5.8-1.4c7-0.2,13.3,2.3,19.3,5.7c1.6,0.9,3,1.9,4.9,3.1
			c3.7-10.1,7.3-19.9,10.9-29.6c-0.4-0.5-0.6-1.1-1-1.3c-19.6-11.3-39.7-13.3-60.5-3.5c-7.7,3.6-13.7,9.3-18.8,16.5
			c0-7.2,0-14.3,0-21.6c-29.1,0-57.7,0-86.8,0c0,6.4,0,12.6,0,18.8c-0.3,0.2-0.7,0.3-1,0.5c-0.4-0.7-0.7-1.5-1.3-2.1
			c-12.2-12.7-27.3-18.7-44.6-19.3c-11.7-0.4-22.9,1.8-33.2,7.3c-16.3,8.8-26.8,22.1-30.3,40.5c-0.1,0.6-0.3,1.3-1.1,1.4
			c-7.2-34-35.7-50.5-66.7-49.1c5.4-4.9,7.8-10.6,6.6-17.4c-1.2-6.8-4.9-11.8-12.2-14.2c2.3-2,4.2-4,5.3-6.7
			c4.2-10.5-1.7-21.3-12.9-23.6C598.9,2.8,593.4,3.1,588,3c-1,3.9-1.3,55.2-0.5,66.7c2.9,0,5.9,0,8.8,0c-7.8,4.4-15.1,9-21.1,15.5
			s-10.1,14-13.2,23.1c-0.8-3.9-0.5-6.8-1.1-9.7c-2.9-14-11.4-23-24.6-27.7c-4.9-1.8-9.9-2.7-15.1-3.1c-0.9,0-2,0.3-3-0.6
			c1.6-4.8,3.7-9.5,6-14.1c9.7,0,19.1,0,29.1,0c2.4,5.3,4.9,10.9,7.5,16.6c2.7,0.1,5.3,0.3,8.4-0.3c-10.1-23-20.1-45.8-30.4-69.3
			C528.7,22.9,519,45,509.2,67.3c-4.7,0.6-9.3,0.1-14.2,0.3c-1.1-4.3-0.4-8.6-0.5-12.8c-0.1-4.3,0-8.7,0-13c0-4.2,0-8.3,0-12.5
			c0-4.3,0-8.7,0-13s0-8.6,0-13.1c-2.7,0-5.1,0-7.8,0c0,16.2,0,32.1,0,49.2c-6.1-6.1-11.1-11.9-16.3-17.5
			c-5.2-5.6-10.3-11.3-15.5-17c-5.2-5.8-10.5-11.5-16.3-17.8c0,23.8,0,46.7,0,69.7c-0.7,0.3-1.6,0.1-2.2-0.2
			c-6.2-2.5-12.6-3.9-19.8-4.2c-5.5-8-11.2-16.1-17-24.4c1.1-0.4,1.8-0.8,2.6-1c11.6-3.1,17.1-19.3,8.3-30.4
			c-2.7-3.4-6.4-5.2-10.6-6c-6.4-1.3-12.9-0.7-19.3-0.8c-1.1,3.8-1.5,50.6-0.6,66.5c2.5,0.6,5.1,0.3,7.7,0.2c0-9.1,0-18.2,0-27.4
			c2.4-1.4,3.7-0.2,4.9,1.6c3.5,5.5,7.1,10.8,10.7,16.2c1.1,1.6,2.2,3.2,3.6,5.3c-6.6,1.1-12.7,2.6-18.6,5.1c-2.7,1.6-5.5,3.1-8,5
			c-13.5,10.2-19,23.8-16.4,40.3c1.6,10.1,8.2,16.7,17.3,21.1c5.8,2.7,12,3.7,18.2,4.9c2,0.4,4,0.7,5.9,1.2c3.1,0.9,5.2,3.1,5.1,5.5
			c-0.1,3-1.9,5-4.5,6.1c-3.5,1.4-7.1,1.5-10.8,0.8c-7.2-1.3-13.4-4.6-19.2-9c-1.2-0.9-2.4-1.9-4-3.1c-3.5,9.2-6.9,18.2-10.3,27.1
			c-0.2,0-0.4-0.1-0.6-0.1c0-5.5,0-11,0-16.7c-4.2-0.9-8.2-0.3-12.1-0.4c-3.8-0.1-7.7,0-11.5,0c-4,0-8,0-12.1,0
			c-0.8-3.8-0.3-7.4-0.4-11.3c10.7,0,20.9,0,31.5,0c0-10.4,0-20.4,0-30.8c-10.4,0-20.7,0-31.1,0c-0.9-3.7-0.3-7.1-0.5-10.9
			c4-0.8,7.8-0.3,11.5-0.4c3.8-0.1,7.7,0,11.5,0s7.6,0,11.7,0c0-10.9,0-21.5,0-32.4c-3.8,0-7.6,0-11.4,0c-0.1-1.8,1.2-2.1,1.9-2.9
			c4.3-4.6,6.5-10.2,6.6-16.3c0.3-14.8,0.1-29.6,0.1-44.6c-2.5-0.8-4.9-0.3-7.2-0.4c-1.2,1.3-0.7,2.7-0.7,4c0,12,0,24,0,36
			c0,3.9-0.6,7.7-1.9,11.3c-2.2,5.9-6.3,9.1-13.4,9.2c-7.3,0.1-11.7-3.4-13.8-9.3c-1.2-3.5-1.8-7.1-1.8-10.8c0-11.7,0-23.3,0-35
			c0-1.6,0-3.3,0-5.1c-2.7-0.5-5.1-0.2-7.4-0.2c-1,1.4-0.6,2.8-0.6,4.1c0,12.2,0,24.3,0,36.5c0,10.5,1.9,15.3,9.2,23.4
			c-11.9,0-23.5,0-35.5,0c0,38.5,0,76.5,0,114.8c-9.1,0-17.8,0-26.4,0c-0.3-1.2,0.8-1.4,1.3-1.7c12.2-7,18.2-18,20.4-31.5
			c0.7-4.4,0.9-8.9,0.9-13.4c0-20.8,0-41.7,0-62.5c0-1.7,0-3.3,0-5.1c7.8-4,11.1-10.4,10.2-18.9c-0.7-6.7-4.7-11.6-12.2-14.7
			c4.6-3.6,6.6-8.2,6.4-13.9c-0.4-8.5-4.7-14.1-13-16.1c-5.9-1.4-11.8-1.3-18.2-1c0,21.4,0,42.5,0,63.9c-4.8,0-9.2,0-13.4,0
			c-1.6,1.7-1,3.4-1,5c0,20.2,0,40.3,0,60.5c0,3.2-0.2,6.4-0.7,9.5c-0.9,5.5-4.1,8.3-9.9,8.7c-6,0.4-9.7-2.2-11.3-7.6
			c-0.8-2.9-0.8-5.9-0.8-8.9c0-20.5,0-41,0-61.5c0-1.6,0-3.3,0-5.2c-13.7,0-27.1,0-40.6,0c-1,0.9-0.6,2.1-0.6,3.2
			c0,22.7,0,45.3,0,68c0,7.7,1.2,15.3,4.2,22.4c3.4,8,8.7,14.4,16.4,18.8c0.6,0.3,1.3,0.6,1.4,1.6c-8.2,0-16.3,0-24.8,0
			c0-11.2,0-22.2,0-33.4c-5.9-0.7-11.5-0.2-17.1-0.3c-5.7-0.1-11.3,0-16.8,0c-0.3-0.4-0.4-0.5-0.5-0.6c-0.1-0.1-0.3-0.3-0.3-0.4
			c-0.1-0.5-0.2-1-0.2-1.5c0-25.7-0.1-51.3-0.1-77c0-0.2-0.1-0.3-0.1-0.5c-3.7-0.9-27-1.2-40.2-0.5c-0.2,0.1-0.3,0.2-0.4,0.3
			C96.1,67.7,96,67.9,96,68c0,24.5,0,49-0.4,73.7c-4.1-7.5-10-12.6-17.7-15.4c-0.4-1.4,0.6-1.5,1.3-1.8c7.1-3.5,10.9-9.6,12.4-17.1
			c0.9-4.6,0.8-9.3-0.1-13.9c-2-9.8-7.7-16.7-17-20.6c-6.2-2.6-12.7-3.7-19.4-4.1c-13-0.6-26-0.2-39-0.3c-4.5,0-9,0-13.5,0
			c-1,0-2,0.2-2.9-0.5c0,68,0,136,0,204c16.7-0.2,33.3-0.4,50-0.5c40.9-0.3,81.7-0.4,122.5-0.9c48.9-0.6,97.7-0.3,146.5-1
			c45.9-0.7,91.7-0.3,137.5-1c47.9-0.7,95.7-0.6,143.5-1c47.4-0.4,94.7-0.5,142-1.1c46-0.6,92-0.5,138-0.9
			c27.9-0.3,55.7-0.4,83.5-0.8c8.4-0.2,15.8,2.1,22.7,6.4c9.3,5.7,16.7,13.3,23.2,21.8c1,1.3,2,2.6,3.2,4.1
			c6.4-1.3,12.6-3.2,18.9-4.3c6.2-1.1,12.4-2,18.6-2.8c1,1.7,0.2,3.2,0.6,4.5c-0.6,0.4-1,0.9-1.4,1c-3.3,0.7-6.4,1.9-8.8,4.4
			c-3.4,3.4-3.4,7.6,0.1,11c2.5,2.4,5.6,3.6,8.9,4.2c2.9,0,5.7,0,8.6,0c2.7-0.6,5.4-1.5,7.7-3.2c5.3-4,5.2-9.7-0.1-13.6
			c-2.6-1.9-5.7-2.4-8.6-3.3c-0.8-1.8-0.5-3.5-0.4-5.5c10.4-1.3,20.9-1.6,31.6-1.5c1.1,2.3,0.5,4.5,0.5,6.8
			c-1.7,1.5-3.8,1.2-5.6,2.1c-3.6,1.9-7.1,4-7,8.7c0.1,4.4,3.4,6.5,6.9,8.3c1.4,0.7,3.4,0.1,4.2,1.9c3.3,0,6.7,0,10,0
			c0.5-1.8,2.3-1.4,3.5-2c3.7-1.9,7.3-4.2,7.2-8.7c-0.1-4.7-3.8-7.1-7.9-8.6c-1.5-0.5-3.1-0.9-4.8-1.4c-0.2-2.2-0.7-4.3-0.4-6.9
			c10.6-0.7,21.1,0.7,31.6,1c1,2.3,0.4,4.2,0.7,6.1c-3.1,1-5.8,1.6-8.2,3.2c-6.4,4.3-6.1,10.7,0.5,14.7c1.6,1,3.7,1.1,4.8,2.8
			c4,0,8,0,12,0c0.5-1.8,2.3-1.4,3.2-2.1c3.4-2,6.6-4.3,6.4-8.7c-0.2-4.3-3.4-6.6-7.1-8.1c-1.7-0.7-3.5-1-5.5-1.6
			c-0.6-1.5-0.3-3.3-0.3-5.3c15,0.9,29.5,3.4,44.6,5.2c-0.5-10.2,5.2-17.5,9.8-25.3c5.1-8.6,10.1-17.2,11.9-27.2c0-1.9,0-3.7,0-5.6
			C1197.1,233.9,1195.3,230.6,1193.3,227.3z M539.1,18.7c4.2,9.2,7.7,17.8,11.4,26.9c-7.7,0-14.8,0-22.6,0
			C531.6,36.7,535.2,28.1,539.1,18.7z M388.1,34.7c0-8,0-15.8-0.1-23.8c4.1,0,8-0.2,11.8,1.2c5.4,1.9,7.7,5.6,7.4,11.5
			c-0.2,5.4-3,9-8.3,10.3C395.6,34.7,392.1,35.3,388.1,34.7z M282.3,51.1c0,4.9-2.1,8.2-6.7,10c-4.5,1.8-9.1,1.6-14.3,1.5
			c0-7.8,0-15.2,0-23c5-0.9,9.9-0.4,14.5,1.4C280.5,42.9,282.3,46,282.3,51.1z M261.2,10.9c5.1-0.1,10.1-0.8,13.7,3.8
			c2.6,3.2,2.8,9.8,0.5,13.3c-3.3,5.1-8.6,4.9-14.2,4.8C261.2,25.3,261.2,18.3,261.2,10.9z M38.4,97.2c3.8,0,7.4-0.5,11,0.6
			c3.6,1.1,5.2,3,5.5,6.7c0.3,4.1-1.3,7-4.7,8.5c-2.7,1.2-6.6,1.4-11.8,0.6C38.4,108.3,38.4,102.9,38.4,97.2z M59.1,151.7
			c-0.8,3.7-3.6,5.4-6.9,6.3c-1.4,0.3-2.9,0.6-4.4,0.7c-3,0.1-6,0-9.5,0c-0.4-6.4-0.1-12.7-0.2-19.6c5.2,0.1,9.6-0.3,14.1,0.9
			C57.7,141.4,60.5,145.7,59.1,151.7z M95.8,180.8c-4.2,0-8.2,0-13.1,0c6-3.6,10-8.1,13.1-14.8C95.8,171.7,95.8,176.2,95.8,180.8z
			 M254.1,218.5c4.1,0.9,8.3,0,12.6,0.5c0.9,3.2,0.4,6.6,0.2,10.4c-4.3,0-8.4,0-12.9,0c0,8.1,0,15.9,0,23.8c-4.8,0.8-9.3,0.2-14,0.5
			c0-19.5,0-38.5,0-57.8c9.4,0,18.7,0,28.4,0.1c0.9,3.2,0.2,6.5,0.5,10.1c-5,0-9.6,0-14.5,0C253.7,210.4,254.1,214.3,254.1,218.5z
			 M327.7,252.9c-3.6,0.8-21.5,1-28.7,0.3c0-19.2,0-38.2,0-57.5c9.5,0,18.9,0,28.5,0c0,3.4,0,6.6,0,10.3c-4.7,0-9.2,0-14.1,0
			c0,4.3,0,8.3,0,12.5c3.9,1,8,0.1,12.3,0.6c0.6,3.4,0.2,6.8,0.2,10.5c-4.3,0-8.2,0-12.4,0c-0.7,4.4-0.3,8.5-0.3,12.8
			c4.8,1.1,9.6-0.2,14.5,0.7C327.7,246.4,327.7,249.7,327.7,252.9z M361.6,177.9c3.7,1.6,7.4,3.1,12.1,5c-4.7,0-8.3,0-12.2,0
			C361,181,360.9,179.6,361.6,177.9z M391.6,239c-1.2,7.7-5.9,12.5-13.3,14.4c-6.5,1.7-13.1,1.3-19.4-1.8c-0.9-3.5-0.1-6.9-0.6-10.9
			c3.3,1.3,6,2.4,8.9,2.9c2.5,0.4,5,0,7.2-1.2c3.9-2,4.5-5.9,1.6-9.1c-1.3-1.4-2.9-2.3-4.5-3.1c-3.1-1.6-6.1-3.3-8.9-5.4
			c-5.7-4.2-7.8-9.9-6.4-16.7c1.5-7.1,6.2-11.4,13.1-12.8c6.1-1.2,12.2-0.7,18,2.3c0.6,3.5,0.5,6.9,0.1,10.6c-2.3-0.8-4-2.1-6.1-2.7
			c-2.3-0.7-4.6-0.9-6.9-0.3c-4.3,1.2-5.8,5.3-3.2,9c1.1,1.7,2.8,2.8,4.5,3.9c2.5,1.6,5.1,3.1,7.6,4.7
			C389.2,226.6,392.7,231.7,391.6,239z M454.7,206.2c-3.9,0-7.5,0-11.4,0c0,15.9,0,31.3,0,47.2c-5.1,0-9.5,0-14.3,0
			c0-15.7,0-31.1,0-46.7c-3.7-1.1-7.4,0-11-0.8c0-3.4,0-6.6,0-10c12.2,0,24.1,0,36.2,0C455.1,199.2,454.5,202.5,454.7,206.2z
			 M476.6,159.8c-3.7,0.1-7.5,0-11.8,0c0,8.1,0,15.9,0,23.9c-6.8,0-13,0.4-19.3-0.3c-5.9,0-11.8,0-17.7,0c-0.1-0.3-0.2-0.6-0.3-0.9
			c7.3-3.4,13.3-8.3,18.1-14.5c0-2.5,0-5,0-7.7c-4.2-1.1-8.3-0.4-12.4-0.5c-4-0.1-7.9,0-12.5,0c-0.4-6.8-0.1-13.5-0.2-20.4
			c8.3,0,16.2,0,24.6,0c0.9-5.1,0.2-10.3,0.4-15.3c-6.9-7.5-15.8-11.2-25.6-13.3c-3.7-0.8-7.4-1.7-11.1-2.8c-3.2-1-4.3-2.3-4.3-4.7
			c0-2.5,1.4-4.4,4.3-5.5c4.4-1.8,8.9-0.6,13.2,0.5c4.6,1.1,8.7,3.3,12.6,5.9c0.8,0.5,1.5,1.4,2.8,1.4c3.6-9.8,7.3-19.8,10.9-29.7
			c-2.4-1.9-4.8-3.1-7.2-4.2c-0.9-0.4-2.2-0.4-2.3-1.8c2.4,0,4.9,0,7.6,0c0-16.5,0-32.6,0-49.9c14.8,16.2,28.9,31.5,43.5,47.5
			c-8.6,0.4-16.6,0-25,0.3c-0.1,15.1-0.2,30.1-0.3,45c0,7.2,0.1,14.4,0.2,21.5c0,1.6-0.6,3.3,0.5,4.9c3.8,0,7.5-0.1,11.3,0
			c3.8,0.1,7.6-0.5,11.6,0.4c0,6.6,0,13.1,0,19.8C484.5,160.4,480.5,159.7,476.6,159.8z M496.6,253.2c-2.1,1-4.4,0.3-6.7,0.4
			c-2.3,0.1-4.6,0-6.8,0c-0.9-3.9-1.2-49.4-0.4-58c4.7-0.2,9.1-0.2,13.9,0.1C496.6,214.9,496.6,234,496.6,253.2z M595.8,11.1
			c5.1-0.4,10.2-1,13.6,3.7c2.9,4.1,2.8,9,0.4,13.2c-3,5.2-8.4,4.9-14,4.9C595.8,25.3,595.8,18.3,595.8,11.1z M595.7,62.5
			c0-7.9,0-15.3,0.1-23c5-0.6,9.7-0.3,14.2,1.4c4.8,1.9,7.1,5.5,6.9,10.4c-0.2,4.9-2.7,8.3-7.5,10C605.1,62.8,600.6,62.8,595.7,62.5
			z M505.9,100.5c3.4-0.7,6.8-0.6,10.1,0.5c4.2,1.3,6,4.2,6,9.2c-0.1,4.7-1.9,7.5-5.8,8.9c-3.4,1.2-6.8,1.2-10.4,0.7
			C505.8,113.3,505.8,107,505.9,100.5z M505.6,183.8c-0.3-11.8,0-23.5-0.2-35.2c0.3-0.2,0.7-0.3,1-0.4c5.5,11.8,11.1,23.5,16.9,35.6
			C517.4,183.8,511.8,183.8,505.6,183.8z M556.8,253.5c-4.1,0-7.7,0-11.8,0c-7-19-13.9-38.1-21-57.6c5.2,0,10,0,15.4,0
			c3.7,11.9,7.4,23.9,11.3,36.5c2.9-12.6,7.4-24.3,10.9-36.4c5.2,0,9.8,0,15.2,0C570,215.4,563.4,234.4,556.8,253.5z M571.8,184.6
			c-2.1-1.6-2.8-3.3-3.8-4.8c-5.8-9-11.6-17.9-17.3-26.9c-2.9-4.6-5.7-9.3-11.2-12.9c8.7-3.3,16.1-7,20.3-15.5
			c0.5,27.8,11.3,48.2,37.4,58.7c1.2-0.2,1.6,0.7,2.4,1.2c-0.9,0.5-1.6,0.6-2.4,0.3c-4.3,0-8.7-0.1-13-0.1
			C579.9,184.6,575.6,184.6,571.8,184.6z M628.9,253.5c-2-2.7-1.7-6.3-3.4-9.4c-4.5,0-9.1,0-14,0c-1.8,2.6-1.5,6.2-3.2,9.3
			c-4.3,0.5-8.7,0.2-13.8,0.1c5.3-19.5,11.2-38.4,16.6-57.6c5.1,0,9.9,0,15.2,0c5.8,18.9,11.6,38,17.3,57.5
			C638.3,253.4,633.7,253.4,628.9,253.5z M642.3,137.3c-3.4,9.3-12.1,14.1-21.2,13.2c-10.5-1-17.7-7.9-19.1-17.8
			c-0.3-1.7-0.3-3.3-0.4-5c0-6.1,1.7-11.5,5.7-16.1c9.1-10.6,26.8-8.7,33.5,3.6C644.7,122.3,645.1,129.7,642.3,137.3z M671.1,253.4
			c0-19.1,0-38.1,0-57.4c4.5,0,8.9,0,13.9,0c0,8,0,15.6,0,23.2c0,7.6,0,15.3,0,23.4c4.9,0.5,9.7,0.1,14.6,0.3
			c0.9,3.5,0.2,6.9,0.5,10.5C690.2,253.4,680.8,253.4,671.1,253.4z M724.2,185.7c-2-0.1-4-0.3-6.1-0.2c-23.1-0.1-46.3-0.2-69.4-0.3
			c-1,0-2,0-3.1-0.3c21.3-8.2,34.7-23,39.2-45.8c4.8,22.4,17.5,37.8,39.4,45.2c1.1-0.2,1.8,0.3,2.3,1.3
			C725.8,185.9,725,186.2,724.2,185.7z M742.9,150.1c-8.9-1.7-15.5-8.6-16.7-18.1c-1-7.7,0.3-15,5.8-20.9c9.4-10,25.9-8.2,32.9,3.6
			c2.2,3.7,3.3,8,3.3,13.4c0.1,3.8-0.8,7.8-2.6,11.5C761.8,147.2,753,152,742.9,150.1z M818.8,185.8c-17.2,0-34.2,0-51.3,0
			c16.2-5.7,29.2-15.3,36.5-31.3c7.2-15.6,7.5-31.7,2.6-48.3c3.1-0.8,5.6-1,8.1-1c1.3,0,2.6-0.5,4.1,0.3
			C818.8,132.1,818.8,158.8,818.8,185.8z M922.7,154.9c-1.9,1.4-4.1,2-6.5,2.1c-5.7,0.4-10.9-1.1-15.9-3.5
			c-4.7-2.2-8.9-5.2-13.2-8.9c-4.2,11.2-8.4,22.2-12.6,33.3c6.3,4,13.2,5.7,19.9,8c0.8,0,1.5,0.1,2.2,0.4c-0.7,0.4-1.5,0.4-2.3,0.2
			c-11.1-0.1-22.3-0.1-33.3-0.2c-0.9-3.9-1.2-72.7-0.4-81.3c5.9-0.5,11.7,0.6,17.8,0.8c-0.4,4.4-0.1,8.3,0.8,12.2
			c2,8.4,7.1,14.5,14.5,18.8c6,3.4,12.7,4.7,19.4,6c2.7,0.5,5.5,1.2,8.2,1.9c2.3,0.6,3.8,2.1,4,4.6
			C925.5,151.7,924.7,153.5,922.7,154.9z M1028.5,217.4c-1.5,8-6.1,14.3-11.2,20.3c-1.1,1.5-2.8,2.5-3.4,4.2
			c2.7,0.7,5.2-0.8,7.8-0.8c2,0,3.9,0,6.1,0c0,5.2,0,10.2,0,15.5c-14.2,0-28.3,0-42.5,0c-0.1-1.5,1.1-2.3,1.8-3.3
			c5.8-8.1,11.7-16.2,17.5-24.3c2.3-3.2,4.4-6.7,6-10.3c1.5-3.3,1.9-6.7,1.5-10.2c-0.3-2.6-1.7-4-3.7-4c-2.1,0-3.3,1.3-3.7,3.4
			c-0.2,1.1-0.5,2.3-0.6,3.4c-0.1,1,0,2,0,3.1c-2.6,0.9-5.3,0.4-7.9,0.5c-2.6,0.1-5.3,0-7.8,0c-2.9-9.5,4.5-23.3,18.1-24.4
			C1021.5,189.4,1031.5,201.6,1028.5,217.4z M1078,241.2c-1,2.8-2.4,5.5-4.2,7.9c-6.8,9.2-20.1,10.4-28.6,2.8
			c-3.3-3-5.6-6.6-6.9-10.8c-3.5-11.4-3.7-22.9-0.3-34.3c0.9-3.2,2.7-6,4.7-8.7c7.3-9.9,24.4-10.8,32.2,1.7
			c2.6,4.2,4.1,8.7,4.9,13.5c0.5,3.5,0.7,7.2,1,10.1C1080.5,229.9,1080,235.7,1078,241.2z M1127.5,217.4c-1.5,8-6.1,14.3-11.2,20.3
			c-1.1,1.5-2.8,2.5-3.4,4.2c2.7,0.7,5.2-0.8,7.8-0.8c2,0,3.9,0,6.1,0c0,5.2,0,10.2,0,15.5c-14.2,0-28.3,0-42.5,0
			c-0.1-1.5,1.1-2.3,1.8-3.3c5.8-8.1,11.7-16.2,17.5-24.3c2.3-3.2,4.4-6.7,6-10.3c1.5-3.3,1.9-6.7,1.5-10.2c-0.3-2.6-1.7-4-3.7-4
			c-2.1,0-3.3,1.3-3.7,3.4c-0.2,1.1-0.5,2.3-0.6,3.4c-0.1,1,0,2,0,3.1c-2.6,0.9-5.3,0.4-7.9,0.5c-2.6,0.1-5.3,0-7.8,0
			c-2.9-9.5,4.5-23.3,18.1-24.4C1120.5,189.4,1130.5,201.6,1127.5,217.4z M1177,241.2c-1,2.8-2.4,5.5-4.2,7.9
			c-6.8,9.2-20.1,10.4-28.6,2.8c-3.3-3-5.6-6.6-6.9-10.8c-3.5-11.4-3.7-22.9-0.3-34.3c0.9-3.2,2.7-6,4.7-8.7
			c7.3-9.9,24.4-10.8,32.2,1.7c2.6,4.2,4.1,8.7,4.9,13.5c0.5,3.5,0.7,7.2,1,10.1C1179.5,229.9,1179,235.7,1177,241.2z"/>
			<path class="main" d="M1057.9,206.3c-3.7,1.3-4.3,4.5-4.8,7.6c-1,6.3-0.6,12.6,0.1,18.9c0.3,2.3,0.8,4.6,2.1,6.6
			c1.5,2.1,3.7,2.2,5.5,0.3c1-1,1.4-2.3,1.7-3.5c0.4-2.1,0.7-4.2,1-6.4c0.7-5.7,0.3-11.3-0.7-16.9
			C1062.3,210.2,1061.6,207.2,1057.9,206.3z"/>
	</g>
</g>
	<g id="background-layer">
	<path class="background" d="M643.6,253.4c-5.3,0-9.9,0-14.7,0c-2-2.7-1.7-6.3-3.4-9.4c-4.5,0-9.1,0-14,0c-1.9,2.5-1.5,6.1-3.2,9.3
		c-4.3,0.6-8.7,0.3-13.8,0.1c5.3-19.5,11.1-38.4,16.6-57.6c5.1,0,9.9,0,15.2,0C632.1,214.8,637.9,233.9,643.6,253.4z M623.4,234.6
		c-1.7-7.9-3.3-15.4-4.9-23c-0.2,0-0.4,0-0.6,0c-1.4,7.6-2.8,15.3-4.3,23C617,234.6,620,234.6,623.4,234.6z"/>
		<path class="background" d="M561.6,196c5.2,0,9.8,0,15.1,0c-6.8,19.4-13.4,38.4-20,57.5c-4,0-7.7,0-11.8,0c-6.9-19-13.9-38.1-21-57.6
		c5.2,0,10,0,15.4,0c3.7,12,7.4,23.9,11.3,36.5C553.6,219.7,558.1,208.1,561.6,196z"/>
		<path class="background" d="M299,253.2c0-19.3,0-38.2,0-57.5c9.5,0,18.9,0,28.5,0c0,3.4,0,6.6,0,10.3c-4.7,0-9.2,0-14.1,0
		c0,4.3,0,8.2,0,12.5c3.8,0.9,8,0,12.3,0.6c0.6,3.5,0.3,6.8,0.2,10.5c-4.3,0-8.2,0-12.4,0c-0.7,4.4-0.3,8.5-0.3,12.8
		c4.8,1.1,9.6-0.1,14.5,0.7c0,3.3,0,6.6,0,9.8C324.1,253.8,306.1,254,299,253.2z"/>
		<path class="background" d="M387.3,197.6c0.5,3.5,0.4,6.9,0.1,10.7c-2.3-0.8-4.1-2.2-6.1-2.7c-2.3-0.6-4.6-0.9-6.9-0.3
		c-4.3,1.2-5.8,5.3-3.2,9c1.2,1.7,2.8,2.8,4.5,3.9c2.5,1.6,5.1,3.1,7.6,4.7c5.9,3.8,9.5,8.9,8.3,16.2c-1.2,7.7-5.9,12.5-13.3,14.4
		c-6.6,1.7-13.1,1.3-19.4-1.8c-0.9-3.5-0.1-7-0.6-10.9c3.3,1.3,6,2.4,8.9,2.9c2.6,0.4,5,0,7.2-1.2c3.8-2,4.4-5.9,1.6-9.1
		c-1.2-1.4-2.9-2.3-4.5-3.1c-3.1-1.6-6.1-3.3-8.9-5.4c-5.7-4.2-7.8-9.9-6.4-16.7c1.5-7,6.2-11.4,13.1-12.8
		C375.5,194,381.6,194.5,387.3,197.6z"/>
		<path class="background" d="M240,195.9c9.4,0,18.7,0,28.2,0c1,3.2,0.3,6.4,0.5,10.1c-4.9,0-9.5,0-14.5,0c-0.6,4.3-0.3,8.2-0.3,12.4
		c4.1,0.9,8.3,0.1,12.6,0.5c0.9,3.3,0.4,6.7,0.2,10.4c-4.3,0-8.4,0-12.9,0c0,8.1,0,15.9,0,23.8c-4.8,0.8-9.2,0.2-14,0.5
		C240,234.2,240,215.2,240,195.9z"/>
		<path class="background" d="M443.3,253.4c-5.1,0-9.6,0-14.3,0c0-15.7,0-31.1,0-46.7c-3.7-1.1-7.4,0-11-0.8c0-3.4,0-6.7,0-10
		c12.2,0,24.1,0,36.2,0c0.9,3.3,0.3,6.5,0.5,10.3c-3.9,0-7.5,0-11.4,0C443.3,222.1,443.3,237.5,443.3,253.4z"/>
		<path class="background" d="M685,196c0,8,0,15.6,0,23.3s0,15.3,0,23.4c4.9,0.4,9.6,0,14.6,0.3c0.9,3.5,0.2,6.9,0.5,10.5
		c-9.9,0-19.3,0-29,0c0-19.1,0-38.2,0-57.4C675.6,196,680,196,685,196z"/>
		<path class="background" d="M482.7,195.6c4.7-0.2,9.2-0.3,13.9,0.1c0,19.2,0,38.3,0,57.5c-2.1,1-4.4,0.2-6.7,0.4c-2.3,0.1-4.6,0-6.8,0
		C482.2,249.8,481.9,204.3,482.7,195.6z"/>
		<path class="background" d="M1080.8,223.4c-0.3,6.5-0.8,12.3-2.8,17.8c-1,2.8-2.4,5.5-4.2,7.9c-6.8,9.2-20.1,10.4-28.6,2.8
		c-3.3-3-5.6-6.6-6.9-10.8c-3.5-11.4-3.7-22.9-0.3-34.3c0.9-3.2,2.7-6,4.7-8.7c7.3-9.9,24.4-10.8,32.2,1.7c2.6,4.2,4.1,8.7,4.9,13.5
		C1080.3,216.8,1080.5,220.5,1080.8,223.4z M1057.9,206.3c-3.7,1.3-4.3,4.5-4.8,7.6c-1,6.3-0.6,12.6,0.1,18.9
		c0.3,2.3,0.8,4.6,2.1,6.6c1.5,2.1,3.7,2.2,5.5,0.3c1-1,1.4-2.3,1.7-3.5c0.4-2.1,0.7-4.2,1-6.4c0.7-5.7,0.3-11.3-0.7-16.9
		C1062.3,210.2,1061.6,207.2,1057.9,206.3z"/>
		<path class="background" d="M1013.9,241.9c2.7,0.7,5.2-0.8,7.8-0.8c2,0,3.9,0,6.1,0c0,5.2,0,10.2,0,15.5c-14.2,0-28.3,0-42.5,0
		c-0.1-1.5,1.1-2.3,1.8-3.3c5.8-8.1,11.7-16.2,17.5-24.3c2.3-3.2,4.4-6.7,6-10.3c1.5-3.3,1.9-6.7,1.5-10.2c-0.3-2.6-1.7-4-3.7-4
		c-2.1,0-3.3,1.3-3.7,3.4c-0.2,1.1-0.5,2.3-0.6,3.4c-0.1,1,0,2,0,3.1c-2.6,0.9-5.3,0.4-7.9,0.5c-2.6,0.1-5.3,0-7.8,0
		c-2.9-9.5,4.5-23.3,18.1-24.4c15-1.1,25,11.1,22,26.9c-1.5,8-6.1,14.3-11.2,20.3C1016.2,239.2,1014.5,240.2,1013.9,241.9
		c-0.2,0.2-1,0.2-0.2,0.7C1014,242.8,1014.2,242.3,1013.9,241.9z"/>
		<path class="background" d="M1179.8,223.4c-0.3,6.5-0.8,12.3-2.8,17.8c-1,2.8-2.4,5.5-4.2,7.9c-6.8,9.2-20.1,10.4-28.6,2.8
		c-3.3-3-5.6-6.6-6.9-10.8c-3.5-11.4-3.7-22.9-0.3-34.3c0.9-3.2,2.7-6,4.7-8.7c7.3-9.9,24.4-10.8,32.2,1.7c2.6,4.2,4.1,8.7,4.9,13.5
		C1179.3,216.8,1179.5,220.5,1179.8,223.4z M1156.9,206.3c-3.7,1.3-4.3,4.5-4.8,7.6c-1,6.3-0.6,12.6,0.1,18.9
		c0.3,2.3,0.8,4.6,2.1,6.6c1.5,2.1,3.7,2.2,5.5,0.3c1-1,1.4-2.3,1.7-3.5c0.4-2.1,0.7-4.2,1-6.4c0.7-5.7,0.3-11.3-0.7-16.9
		C1161.3,210.2,1160.6,207.2,1156.9,206.3z"/>
		<path class="background" d="M1112.9,241.9c2.7,0.7,5.2-0.8,7.8-0.8c2,0,3.9,0,6.1,0c0,5.2,0,10.2,0,15.5c-14.2,0-28.3,0-42.5,0
		c-0.1-1.5,1.1-2.3,1.8-3.3c5.8-8.1,11.7-16.2,17.5-24.3c2.3-3.2,4.4-6.7,6-10.3c1.5-3.3,1.9-6.7,1.5-10.2c-0.3-2.6-1.7-4-3.7-4
		c-2.1,0-3.3,1.3-3.7,3.4c-0.2,1.1-0.5,2.3-0.6,3.4c-0.1,1,0,2,0,3.1c-2.6,0.9-5.3,0.4-7.9,0.5s-5.3,0-7.8,0
		c-2.9-9.5,4.5-23.3,18.1-24.4c15-1.1,25,11.1,22,26.9c-1.5,8-6.1,14.3-11.2,20.3C1115.2,239.2,1113.5,240.2,1112.9,241.9
		c-0.2,0.2-1,0.2-0.2,0.7C1113,242.8,1113.2,242.3,1112.9,241.9z"/>
</g>
	<g id="cross-layer" class="cross">
	<path class="cross" d="M445.9,124.2c0-3.6,0-7.2,0-11.3c6.7,0,12.9,0,19.1,0c0.1,7.2,0.1,14.3,0.2,21.5c0,1.6-0.5,3.3,0.5,4.9
		c3.8,0,7.6-0.1,11.3,0c3.8,0.1,7.6-0.5,11.6,0.4c0,6.6,0,13,0,19.8c-3.8,0.9-7.7,0.2-11.6,0.4c-3.8,0.1-7.6,0-11.8,0
		c0,8.1,0,15.8,0,23.9c-6.7,0-13,0.4-19.3-0.3c0-5.1,0-10.3,0-15.4c0-2.5,0-5,0-7.7c-4.2-1.1-8.3-0.4-12.4-0.5c-4-0.1-7.9,0-12.5,0
		c-0.4-6.8-0.1-13.5-0.2-20.4c8.4,0,16.3,0,24.6,0C446.3,134.4,445.6,129.3,445.9,124.2z"/>
</g>
</svg>
