<?xml version="1.0" encoding="utf-8"?>
<!-- Generator: Adobe Illustrator 16.0.4, SVG Export Plug-In . SVG Version: 6.00 Build 0)  -->
<!DOCTYPE svg PUBLIC "-//W3C//DTD SVG 1.1//EN" "http://www.w3.org/Graphics/SVG/1.1/DTD/svg11.dtd">
<svg version="1.1" id="Layer_5" xmlns="http://www.w3.org/2000/svg" xmlns:xlink="http://www.w3.org/1999/xlink" x="0px" y="0px"
	  viewBox="0 0 828.902 212.192" enable-background="new 0 0 828.902 212.192"
	 xml:space="preserve">
<g>
	<path fill="none" stroke="#0A1725" stroke-width="4" stroke-miterlimit="10" d="M101.623,53.123"/>
	<path fill="none" stroke="#0A1725" stroke-width="4" stroke-miterlimit="10" d="M47.775,53.576"/>
	<path fill="#CF6766" stroke="#0A1725" stroke-width="7" stroke-miterlimit="10" d="M93.703,109.138
		c0,10.489-8.504,18.993-18.993,18.993c-10.485,0-18.99-8.504-18.99-18.993c0-10.487,8.505-18.991,18.99-18.991
		C85.199,90.146,93.703,98.65,93.703,109.138z"/>

		<line fill="none" stroke="#0A1725" stroke-width="6" stroke-linecap="round" stroke-miterlimit="10" x1="47.468" y1="175.113" x2="101.955" y2="171.761"/>

		<line fill="none" stroke="#0A1725" stroke-width="6" stroke-linecap="round" stroke-miterlimit="10" x1="47.488" y1="184.181" x2="101.975" y2="180.828"/>
	<path fill="#0A1725" d="M51.707,191.442c1.189,11.656,11.035,20.75,23.004,20.75s21.815-9.094,23.004-20.75H51.707z"/>
	<path fill="none" stroke="#0A1725" stroke-width="12" stroke-linecap="round" stroke-miterlimit="10" d="M71.449,6
		C67,17.809,75.03,25.157,82.327,32.119c7.76,7.404,15.083,14.241,19.296,21.004c9.751,13.15,15.992,33.332,15.992,55.961
		c0,19.813-4.785,37.751-12.521,50.734"/>
	<path fill="none" stroke="#0A1725" stroke-width="12" stroke-linecap="round" stroke-miterlimit="10" d="M40.993,152.919
		c1.099,2.358,2.312,4.664,3.644,6.899"/>
	<path fill="none" stroke="#0A1725" stroke-width="12" stroke-linecap="round" stroke-miterlimit="10" d="M70.365,9.418
		c-2.584,8.681-4.399,16.914-9.042,24.822c-3.648,6.214-8.034,11.941-12.335,17.709c-11.018,14.777-15.887,33.208-16.74,51.438"/>

		<line fill="none" stroke="#0A1725" stroke-width="12" stroke-linecap="round" stroke-miterlimit="10" x1="44.637" y1="159.818" x2="104.949" y2="159.818"/>
	<circle fill="#CF6766" stroke="#0A1725" stroke-width="6" stroke-miterlimit="10" cx="34.575" cy="128.305" r="11.825"/>
	<circle fill="#CF6766" stroke="#0A1725" stroke-width="4" stroke-miterlimit="10" cx="9.2" cy="101.93" r="7.2"/>
	<line fill="none" stroke="#0A1725" stroke-width="4" stroke-miterlimit="10" x1="76.265" y1="161.178" x2="86.782" y2="122.334"/>
	<line fill="none" stroke="#0A1725" stroke-width="4" stroke-miterlimit="10" x1="62.265" y1="122.334" x2="72.782" y2="161.178"/>
</g>
<g>
	<g>
		<path fill="#0A1725" d="M72.354,51.992c8.795,4.718,16.241,10.8,18.351,21.007c0.653,3.156,5.472,1.817,4.821-1.33
			c-2.36-11.415-10.773-18.697-20.649-23.993C72.037,46.152,69.511,50.469,72.354,51.992L72.354,51.992z"/>
	</g>
</g>
<g>
	<path fill="#0A1725" d="M169.736,128.701c0,3.465,0,5.775,0.165,8.086c0.495,4.455,2.475,5.939,10.23,5.443v15.676
		c-4.455,0.494-8.91,0.66-14.024,0.66c-11.22,0-18.314-4.125-18.81-15.51c-0.33-3.961-0.33-8.086-0.33-13.859V36.141h22.77V128.701z
		"/>
	<path fill="#0A1725" d="M274.672,157.41h-22.769v-14.85l-6.765,11.221c-6.435,4.289-12.705,5.939-21.119,5.939
		c-18.149,0-29.039-10.23-31.019-22.273c-0.66-4.455-0.825-8.91-0.825-16.006V69.635h22.769v47.023c0,2.805,0.165,7.588,0.66,12.043
		c1.155,9.076,6.435,14.85,16.994,14.85c11.384,0,19.304-9.404,19.304-29.203V69.635h22.769V157.41z"/>
	<path fill="#0A1725" d="M426.799,105.107v52.303h-22.77v-45.703c0-5.115-0.165-9.898-0.66-14.354
		c-1.155-9.074-6.105-14.025-14.85-14.025c-10.229,0-16.004,8.746-16.004,29.039v45.043h-22.604v-45.703
		c0-5.115-0.165-9.898-0.66-14.354c-1.155-9.074-6.27-14.025-15.015-14.025c-10.229,0-15.839,8.746-15.839,29.039v45.043h-22.769
		V69.635h22.769v13.363l6.435-10.559c4.95-3.465,10.724-5.115,18.644-5.115c14.354,0,23.429,7.096,26.894,16.664l8.58-11.549
		c4.95-3.465,10.89-5.115,18.809-5.115c16.665,0,26.234,9.734,28.214,21.779C426.634,93.559,426.799,98.014,426.799,105.107z"/>
	<path fill="#0A1725" d="M470.691,49.01c0,7.26-5.115,12.045-12.539,12.045c-7.425,0-12.54-4.785-12.54-12.045
		c0-7.094,5.115-12.045,12.54-12.045C465.576,36.965,470.691,41.916,470.691,49.01z M446.767,157.41V69.635h22.769v87.775H446.767z"
		/>
	<path fill="#0A1725" d="M573.152,107.912v49.498h-22.769v-46.363c0-3.629,0-7.754-0.33-12.209c-0.66-9.24-5.774-15.51-16.829-15.51
		s-19.799,9.57-19.799,33.988v40.094h-22.769V69.635h22.769v14.189l6.765-10.395c6.27-4.455,12.705-6.105,21.119-6.105
		c18.645,0,29.369,9.24,31.184,24.584C572.987,96.363,573.152,100.818,573.152,107.912z"/>
	<path fill="#0A1725" d="M642.452,144.541l-4.29,9.404c-6.104,4.125-13.529,5.775-21.779,5.775c-15.179,0-28.214-8.91-28.214-25.574
		c0-19.305,16.5-30.193,48.343-30.193h5.61v-1.814c0-2.641,0-5.281-0.33-8.25c-0.66-6.105-4.62-10.561-13.529-10.561
		c-9.075,0-14.024,5.281-14.685,14.85l-22.109,0.166c0.66-19.801,16.665-31.02,37.619-31.02c24.584,0,33.823,10.725,35.144,25.904
		c0.33,4.125,0.495,8.744,0.495,13.529v28.379c0,6.6,0.33,12.539,1.65,22.273h-22.274L642.452,144.541z M642.122,125.072v-7.096
		c-18.149-1.318-30.358,2.805-30.358,14.355c0,7.754,5.279,11.385,13.364,11.385C634.367,143.717,642.122,137.281,642.122,125.072z"
		/>
	<path fill="#0A1725" d="M713.072,125.896c0,2.971,0,5.445,0.165,7.756c0.66,8.578,3.795,10.559,16.499,9.568v14.85
		c-5.114,0.826-9.899,1.154-15.015,1.154c-16.994,0-23.099-5.609-24.089-17.982c-0.33-3.961-0.33-7.756-0.33-12.705V85.309h-12.869
		V70.295h12.869V48.68h22.77v21.615h18.149v15.014h-18.149V125.896z"/>
	<path fill="#0A1725" d="M823.289,119.463h-62.367c1.486,18.479,9.734,24.254,20.295,24.254c9.734,0,16.83-5.445,18.314-14.85h22.77
		c-4.455,20.459-20.955,30.854-41.578,30.854c-24.09,0-42.734-15.014-42.734-45.869c0-26.893,17.654-46.527,44.549-46.527
		c26.893,0,41.082,20.459,41.082,44.383C823.619,113.852,823.619,116.492,823.289,119.463z M761.582,104.613h38.609
		c-1.486-13.859-7.756-21.285-18.645-21.285C770.986,83.328,763.562,90.094,761.582,104.613z"/>
</g>
</svg>
