<?xml version="1.0" encoding="utf-8"?>
<!-- Generator: Adobe Illustrator 22.0.0, SVG Export Plug-In . SVG Version: 6.00 Build 0)  -->
<svg version="1.1" xmlns="http://www.w3.org/2000/svg" xmlns:xlink="http://www.w3.org/1999/xlink" x="0px" y="0px"  viewBox="0 0 100 100" style="enable-background:new 0 0 100 100;" xml:space="preserve">
<g id="Layer_1">
	<g>
		<g>
			<g>
				<g>
					<path d="M86.9,43.5l-1,0.8c-0.8,0.7-1.9,1-2.9,0.9c-1.1-0.1-2-0.6-2.7-1.4c-0.7-0.8-1-1.9-0.9-2.9c0.1-1.1,0.6-2,1.4-2.7l1-0.8
						l-5-6l-3.2,2.6c-0.2,0.8-0.5,1.6-0.9,2.4c-0.2,0.9-0.5,1.7-0.8,2.5l4.6-3.8l1.7,2.1c-0.8,1-1.3,2.2-1.4,3.5
						c-0.2,1.8,0.4,3.5,1.5,4.8c1.1,1.4,2.7,2.2,4.5,2.4c1.3,0.1,2.6-0.1,3.7-0.7l1.7,2.1L61.8,70.9L60,68.8c0.8-1,1.3-2.2,1.4-3.5
						c0.1-0.7,0-1.5-0.2-2.2c-0.4,0.1-0.9,0.1-1.4,0c-0.7-0.1-1.3-0.3-1.7-0.6c0.5,0.8,0.8,1.7,0.7,2.6c-0.1,1.1-0.6,2-1.4,2.7
						l-1,0.8l5,6l30.4-25.1L86.9,43.5z"/>
				</g>
			</g>
			<g>
				<g>
					<rect x="71.9" y="48.3" transform="matrix(0.7713 -0.6364 0.6364 0.7713 -14.8119 57.9179)" width="2.6" height="2.6"/>
				</g>
			</g>
			<g>
				<g>
					<rect x="68.6" y="44.2" transform="matrix(0.7713 -0.6364 0.6364 0.7713 -13.0003 54.8695)" width="2.6" height="2.6"/>
				</g>
			</g>
			<g>
				<g>
					<rect x="75.2" y="52.3" transform="matrix(0.7713 -0.6364 0.6364 0.7713 -16.6226 60.9667)" width="2.6" height="2.6"/>
				</g>
			</g>
		</g>
		<g>
			<g>
				<g>
					<path d="M67.4,30.3l-0.5,1.2c-0.4,1-1.2,1.7-2.2,2.1c-1,0.4-2.1,0.3-3.1-0.1c-1-0.4-1.7-1.2-2.1-2.2c-0.4-1-0.3-2.1,0.1-3.1
						l0.5-1.2L53,23.8l-3.6,7.9c0.2,0.2,0.4,0.5,0.4,0.9c0,0.4,0,0.8,0,1.2c0.1,1.1,0.1,2.1,0.1,3.1l4.4-9.8l2.5,1.1
						c-0.3,1.3-0.2,2.6,0.3,3.8c0.6,1.7,1.9,3,3.5,3.7c1.6,0.7,3.4,0.8,5.1,0.2c1.2-0.5,2.3-1.3,3-2.3l2.5,1.1L56.9,66l-2.5-1.1
						c0.3-1.3,0.2-2.6-0.3-3.8c-0.6-1.7-1.9-3-3.5-3.7c0,0-0.1,0-0.2-0.1c0.4,1.3,0.5,2.6,0.8,3.9c0.2,0.2,0.3,0.5,0.4,0.8
						c0.4,1,0.3,2.1-0.1,3.1l-0.5,1.2l7.1,3.2l16.2-35.9L67.4,30.3z"/>
				</g>
			</g>
			<g>
				<g>
					<rect x="56.5" y="40.4" transform="matrix(0.4114 -0.9114 0.9114 0.4114 -4.0526 77.2438)" width="2.6" height="2.6"/>
				</g>
			</g>
			<g>
				<g>
					<rect x="51.7" y="38.3" transform="matrix(0.4114 -0.9114 0.9114 0.4114 -4.8981 71.6179)" width="2.6" height="2.6"/>
				</g>
			</g>
			<g>
				<g>
					<rect x="61.3" y="42.6" transform="matrix(0.4114 -0.9114 0.9114 0.4114 -3.2057 82.8693)" width="2.6" height="2.6"/>
				</g>
			</g>
		</g>
		<g>
			<g>
				<g>
					<path d="M51.4,27l-7.8,0.2l0,1.3c0,1.1-0.4,2.1-1.1,2.9c-0.7,0.8-1.7,1.2-2.8,1.3c-1.1,0-2.1-0.4-2.9-1.1
						c-0.8-0.7-1.2-1.7-1.3-2.8l0-1.3l-7.8,0.2L28,32c1.4,1.6,2.3,3.6,2.8,5.7l-0.2-7.4l2.7-0.1c0.3,1.3,0.9,2.4,1.9,3.3
						c1.3,1.2,3,1.8,4.7,1.8c1.8-0.1,3.4-0.8,4.6-2.1c0.9-1,1.5-2.1,1.7-3.4l2.7-0.1l1,34.2L47.2,64c-0.3-1.3-0.9-2.4-1.9-3.3
						c-1.1-1-2.4-1.6-3.9-1.8c0.8,1.1,1.5,2.3,1.9,3.5c0.1,0,0.1,0.1,0.2,0.1c0.8,0.7,1.2,1.7,1.3,2.8l0,1.3l7.8-0.2L51.4,27z"/>
				</g>
			</g>
			<g>
				<g>

						<rect x="38.7" y="40.5" transform="matrix(0.9995 -3.013732e-02 3.013732e-02 0.9995 -1.2423 1.2262)" width="2.6" height="2.6"/>
				</g>
			</g>
			<g>
				<g>

						<rect x="33.5" y="40.7" transform="matrix(0.9995 -3.013732e-02 3.013732e-02 0.9995 -1.2494 1.0683)" width="2.6" height="2.6"/>
				</g>
			</g>
			<g>
				<g>

						<rect x="44" y="40.4" transform="matrix(0.9995 -3.013732e-02 3.013732e-02 0.9995 -1.2352 1.3841)" width="2.6" height="2.6"/>
				</g>
			</g>
		</g>
		<g>
			<g>
				<g>
					<path d="M22.3,33.9l0.6,1.2c0.5,1,0.5,2,0.2,3.1c-0.3,1-1.1,1.8-2,2.3c-1,0.5-2,0.5-3.1,0.2s-1.8-1.1-2.3-2l-0.6-1.2l-7,3.4
						l17.4,35.4l7-3.4L32,71.6c-0.5-1-0.5-2-0.2-3.1c0.3-1,1.1-1.8,2-2.3c1-0.5,2-0.5,3.1-0.2s1.8,1.1,2.3,2l0.6,1.2l7-3.4
						L29.3,30.4L22.3,33.9z M40.8,65.9c-0.8-1-1.9-1.8-3.1-2.2c-1.7-0.6-3.5-0.5-5,0.3c-1.6,0.8-2.8,2.1-3.3,3.8
						c-0.4,1.2-0.5,2.6-0.1,3.8l-2.4,1.2L11.7,42l2.4-1.2c0.8,1,1.9,1.8,3.1,2.2c1.7,0.6,3.5,0.5,5-0.3c1.6-0.8,2.8-2.1,3.3-3.8
						c0.4-1.2,0.5-2.6,0.1-3.8l2.4-1.2l15.1,30.7L40.8,65.9z"/>
				</g>
			</g>
			<g>
				<g>
					<rect x="23.8" y="47.3" transform="matrix(0.8978 -0.4405 0.4405 0.8978 -18.8372 16.0312)" width="2.6" height="2.6"/>
				</g>
			</g>
			<g>
				<g>
					<rect x="19.1" y="49.6" transform="matrix(0.8978 -0.4405 0.4405 0.8978 -20.3356 14.1934)" width="2.6" height="2.6"/>
				</g>
			</g>
			<g>
				<g>
					<rect x="28.5" y="45" transform="matrix(0.8978 -0.4405 0.4405 0.8978 -17.3384 17.8685)" width="2.6" height="2.6"/>
				</g>
			</g>
		</g>
	</g>
</g>
<g id="Layer_2">
</g>
</svg>
