<?xml version="1.0" encoding="utf-8"?>
<!-- Generator: Adobe Illustrator 22.0.0, SVG Export Plug-In . SVG Version: 6.00 Build 0)  -->
<svg version="1.1" xmlns="http://www.w3.org/2000/svg" xmlns:xlink="http://www.w3.org/1999/xlink" x="0px" y="0px"  viewBox="0 0 100 100" style="enable-background:new 0 0 100 100;" xml:space="preserve">
<style type="text/css">
	.st0{stroke:#000000;stroke-miterlimit:10;}
</style>
<g id="Layer_2">
	<g>
		<g>
			<g>
				<g>
					<path class="st0" d="M66.6,25.8H66v-3.3c0-1.1-0.9-2-2-2h-1.3c-1.1,0-2,0.9-2,2v3.3H39.4v-3.3c0-1.1-0.9-2-2-2H36
						c-1.1,0-2,0.9-2,2v3.3h-0.7c-1.8,0-3.3,1.5-3.3,3.3v27.9c0,1.8,1.5,3.3,3.3,3.3h33.2c1.8,0,3.3-1.5,3.3-3.3V29.2
						C69.9,27.3,68.4,25.8,66.6,25.8z M62,26.5v-4c0-0.4,0.3-0.7,0.7-0.7H64c0.4,0,0.7,0.3,0.7,0.7v4v2.7c0,0.4-0.3,0.7-0.7,0.7
						h-1.3c-0.4,0-0.7-0.3-0.7-0.7V26.5z M35.4,26.5v-4c0-0.4,0.3-0.7,0.7-0.7h1.3c0.4,0,0.7,0.3,0.7,0.7v4v2.7
						c0,0.4-0.3,0.7-0.7,0.7H36c-0.4,0-0.7-0.3-0.7-0.7V26.5z M68.6,57.1c0,1.1-0.9,2-2,2H33.4c-1.1,0-2-0.9-2-2V37.8h37.2V57.1z
						 M68.6,36.5H31.4v-7.3c0-1.1,0.9-2,2-2H34v2c0,1.1,0.9,2,2,2h1.3c1.1,0,2-0.9,2-2v-2h21.3v2c0,1.1,0.9,2,2,2H64
						c1.1,0,2-0.9,2-2v-2h0.7c1.1,0,2,0.9,2,2V36.5z"/>
				</g>
			</g>
			<g>
				<g>
					<path class="st0" d="M57.3,29.2H42.7c-0.4,0-0.7,0.3-0.7,0.7v4c0,0.4,0.3,0.7,0.7,0.7h14.6c0.4,0,0.7-0.3,0.7-0.7v-4
						C58,29.5,57.7,29.2,57.3,29.2z M56.6,33.1H43.4v-2.7h13.3V33.1z"/>
				</g>
			</g>
			<g>
				<g>
					<path class="st0" d="M38.7,39.8h-4c-0.4,0-0.7,0.3-0.7,0.7v3.3c0,0.4,0.3,0.7,0.7,0.7h4c0.4,0,0.7-0.3,0.7-0.7v-3.3
						C39.4,40.1,39.1,39.8,38.7,39.8z M38,43.1h-2.7v-2H38V43.1z"/>
				</g>
			</g>
			<g>
				<g>
					<path class="st0" d="M47.3,39.8h-4c-0.4,0-0.7,0.3-0.7,0.7v3.3c0,0.4,0.3,0.7,0.7,0.7h4c0.4,0,0.7-0.3,0.7-0.7v-3.3
						C48,40.1,47.7,39.8,47.3,39.8z M46.7,43.1H44v-2h2.7V43.1z"/>
				</g>
			</g>
			<g>
				<g>
					<path class="st0" d="M56.6,39.8h-4c-0.4,0-0.7,0.3-0.7,0.7v3.3c0,0.4,0.3,0.7,0.7,0.7h4c0.4,0,0.7-0.3,0.7-0.7v-3.3
						C57.3,40.1,57,39.8,56.6,39.8z M56,43.1h-2.7v-2H56V43.1z"/>
				</g>
			</g>
			<g>
				<g>
					<path class="st0" d="M65.3,39.8h-4c-0.4,0-0.7,0.3-0.7,0.7v3.3c0,0.4,0.3,0.7,0.7,0.7h4c0.4,0,0.7-0.3,0.7-0.7v-3.3
						C66,40.1,65.7,39.8,65.3,39.8z M64.6,43.1H62v-2h2.7V43.1z"/>
				</g>
			</g>
			<g>
				<g>
					<path class="st0" d="M38.7,46.4h-4c-0.4,0-0.7,0.3-0.7,0.7v3.3c0,0.4,0.3,0.7,0.7,0.7h4c0.4,0,0.7-0.3,0.7-0.7v-3.3
						C39.4,46.7,39.1,46.4,38.7,46.4z M38,49.8h-2.7v-2H38V49.8z"/>
				</g>
			</g>
			<g>
				<g>
					<path class="st0" d="M47.3,46.4h-4c-0.4,0-0.7,0.3-0.7,0.7v3.3c0,0.4,0.3,0.7,0.7,0.7h4c0.4,0,0.7-0.3,0.7-0.7v-3.3
						C48,46.7,47.7,46.4,47.3,46.4z M46.7,49.8H44v-2h2.7V49.8z"/>
				</g>
			</g>
			<g>
				<g>
					<path class="st0" d="M56.6,46.4h-4c-0.4,0-0.7,0.3-0.7,0.7v3.3c0,0.4,0.3,0.7,0.7,0.7h4c0.4,0,0.7-0.3,0.7-0.7v-3.3
						C57.3,46.7,57,46.4,56.6,46.4z M56,49.8h-2.7v-2H56V49.8z"/>
				</g>
			</g>
			<g>
				<g>
					<path class="st0" d="M65.3,46.4h-4c-0.4,0-0.7,0.3-0.7,0.7v3.3c0,0.4,0.3,0.7,0.7,0.7h4c0.4,0,0.7-0.3,0.7-0.7v-3.3
						C66,46.7,65.7,46.4,65.3,46.4z M64.6,49.8H62v-2h2.7V49.8z"/>
				</g>
			</g>
			<g>
				<g>
					<path class="st0" d="M38.7,53.1h-4c-0.4,0-0.7,0.3-0.7,0.7v3.3c0,0.4,0.3,0.7,0.7,0.7h4c0.4,0,0.7-0.3,0.7-0.7v-3.3
						C39.4,53.4,39.1,53.1,38.7,53.1z M38,56.4h-2.7v-2H38V56.4z"/>
				</g>
			</g>
			<g>
				<g>
					<path class="st0" d="M47.3,53.1h-4c-0.4,0-0.7,0.3-0.7,0.7v3.3c0,0.4,0.3,0.7,0.7,0.7h4c0.4,0,0.7-0.3,0.7-0.7v-3.3
						C48,53.4,47.7,53.1,47.3,53.1z M46.7,56.4H44v-2h2.7V56.4z"/>
				</g>
			</g>
			<g>
				<g>
					<path class="st0" d="M56.8,52.7l-2.9,3.4l-1.5-1.5l-0.9,0.9l2,2c0.1,0.1,0.3,0.2,0.5,0.2c0,0,0,0,0,0c0.2,0,0.4-0.1,0.5-0.2
						l3.3-4L56.8,52.7z"/>
				</g>
			</g>
			<g>
				<g>
					<path class="st0" d="M64.8,52.7l-2.9,3.4l-1.5-1.5l-0.9,0.9l2,2c0.1,0.1,0.3,0.2,0.5,0.2c0,0,0,0,0,0c0.2,0,0.4-0.1,0.5-0.2
						l3.3-4L64.8,52.7z"/>
				</g>
			</g>
		</g>
		<g>
			<path d="M44.7,75.4l-1.5-2l-1.5,2h-1.5l2.3-3l-2.2-2.9h1.5l1.4,1.9l1.4-1.9h1.5L44,72.4l2.3,3H44.7z"/>
			<path d="M59.4,73.1h-1.9v2.4h-1.9v-2.4h-5.8v-1.3l5.2-6.8h2.1l-4.9,6.5h3.4v-2.1h1.8v2.1h1.9V73.1z"/>
		</g>
	</g>
</g>
<g id="Layer_3">
	<g id="Layer_2_1_">
	</g>
</g>
</svg>
