<?xml version="1.0" encoding="utf-8"?>
<!-- Generator: Adobe Illustrator 22.0.0, SVG Export Plug-In . SVG Version: 6.00 Build 0)  -->
<svg version="1.1" id="Layer_1" xmlns="http://www.w3.org/2000/svg" xmlns:xlink="http://www.w3.org/1999/xlink" x="0px" y="0px"
	  viewBox="0 0 100 100" style="enable-background:new 0 0 100 100;" xml:space="preserve">
<style type="text/css">
	.st0{stroke:#000000;stroke-miterlimit:10;}
</style>
<g id="Layer_1_1_">
	<g>
		<g>
			<g>
				<path class="st0" d="M76.9,30.9l-9.4-4.6C66.6,24.5,65,23,62.9,22c-2.3-1.1-4.9-1.6-7.4-1.2c-3,0.4-5.7,1.8-7.9,4.1
					c-2.5,2.6-4,6.3-4.7,10.9c-0.1,0.4-0.1,0.8-0.2,1.1c-2.5,1.6-4.8,4.3-6,8.5c-2.2,7.8-6.5,9.8-9.3,11.2c-1.1,0.5-2,0.9-2.6,1.6
					c-0.6,0.6-0.7,1.2-0.5,1.9c0.3,0.9,1.4,1.6,3.4,2.1c1.2,0.3,2.7,0.5,4.3,0.7c-0.4,0.7-0.8,1.1-1.1,1.7l-5.7,8l0,0l-2.5,3.6
					c-0.2,0.3-0.2,0.7-0.2,1s0.4,0.7,0.7,0.7c3,1.1,6.2,1.6,9.3,1.6c4.5,0,8.9-1.1,12.5-3.2c3.9-2.2,6.4-5.4,7.3-9.1
					c1.9-0.6,3.7-1.4,5.3-2.3c2.9-1.6,5.2-3.8,6.8-6.2c1.7-2.8,2.7-5.9,2.7-9.3c0.1-4.4,0.4-8.9,0.7-12.4l8.8-3.9
					c0.4-0.2,0.7-0.6,0.7-1C77.5,31.5,77.3,31.1,76.9,30.9z M27,59.4c0.4-0.2,0.9-0.5,1.5-0.7c3-1.4,8-3.8,10.5-12.6
					c1.8-6.4,6.2-8.7,9.8-8.7c2.4,0,4.6,0.9,6.1,2.5c1.6,1.6,2.3,3.9,2.1,6.6c-0.7,4.8-3.5,8.5-8.4,11c-5.2,2.5-11,3-14,3l0,0
					c-0.2,0-0.3,0-0.6,0l0,0c-0.2,0-0.3,0-0.5,0C30.2,60.4,28,59.9,27,59.4z M32.3,66.5c1.7,0.8,3.8,1.4,6.1,1.7
					c-1.8,2.7-5.9,4.3-10.1,3.9L32.3,66.5z M43.9,74.1c-5.2,3-12.1,3.7-18.4,1.9l1.2-1.7c0.9,0.2,1.9,0.2,2.8,0.2
					c4.9,0,9.5-2.4,11.3-6.1c0.6,0,1.1,0.1,1.6,0.1c0.5,0,1,0,1.6,0c2-0.1,3.9-0.3,5.7-0.8C48.8,70.2,46.7,72.5,43.9,74.1z
					 M65.9,35.6c0,0.1,0,0.2,0,0.3l0,0c-0.3,3.6-0.7,8.4-0.8,13.2c-0.1,7.2-4.7,11.3-8.5,13.5c-1.6,1-3.5,1.7-5.4,2.3
					c-0.1,0-0.1,0-0.2,0.1c-3.4,1.1-7.1,1.4-10.6,1.1c-0.2-0.1-0.3-0.1-0.5,0c-2.3-0.2-4.4-0.7-6.3-1.6c0.3-0.6,0.7-1.1,1.1-1.8
					c3.3,0,9.4-0.4,14.9-3.2c2.5-1.3,4.7-3,6.2-4.9c1.8-2.2,3-4.8,3.4-7.9v-0.1c0.2-3.3-0.7-6.2-2.8-8.3c-2-2.1-4.8-3.3-7.8-3.3
					c-1.1,0-2.4,0.2-3.5,0.6c1.1-7.4,5-12,10.5-12.7c4.3-0.5,8.5,1.5,9.8,4.6c0.4,1,0.6,2,0.6,3C66.2,31.6,66,33.4,65.9,35.6z
					 M68.2,34.2c0.2-1.6,0.2-2.8,0.2-3.6c0-0.4,0-0.9-0.1-1.3l5.3,2.5L68.2,34.2z"/>
			</g>
		</g>
		<g>
			<g>
				<path class="st0" d="M45.1,56c-0.2-0.6-0.8-1-1.4-0.7l0,0l0,0c-0.6,0.2-1,0.8-0.7,1.4c0.2,0.5,0.6,0.8,1.1,0.8
					c0.1,0,0.2,0,0.3-0.1l0,0C44.9,57.3,45.3,56.6,45.1,56z"/>
			</g>
		</g>
		<g>
			<g>
				<path class="st0" d="M54.4,45.1c-0.7-0.1-1.2,0.3-1.3,1c-0.6,3.4-2.6,6.1-6.2,7.9c-0.6,0.2-0.8,1-0.5,1.6c0.2,0.4,0.6,0.7,1,0.7
					c0.2,0,0.3,0,0.5-0.1c4.3-2.1,6.8-5.5,7.5-9.6C55.4,45.9,55,45.2,54.4,45.1z"/>
			</g>
		</g>
		<g>
			<g>
				<path class="st0" d="M61.4,29.9c-0.4-1.6-1.7-2.7-3.5-2.8C56,27,54.3,28,53.6,29.5c-0.2,0.6,0,1.2,0.7,1.5
					c0.6,0.2,1.2,0,1.5-0.7c0.3-0.7,1.2-1.1,2-1c0.4,0,1.2,0.2,1.5,1.1c0.2,0.5,0.6,0.9,1.1,0.9c0.1,0,0.2,0,0.2,0
					C61.2,31.2,61.5,30.6,61.4,29.9z"/>
			</g>
		</g>
	</g>
</g>
<g id="Layer_2_1_">
</g>
</svg>
