<?xml version="1.0" encoding="utf-8"?>
<!-- Generator: Adobe Illustrator 22.0.0, SVG Export Plug-In . SVG Version: 6.00 Build 0)  -->
<svg version="1.1" xmlns="http://www.w3.org/2000/svg" xmlns:xlink="http://www.w3.org/1999/xlink" x="0px" y="0px" viewBox="0 0 100 100" style="enable-background:new 0 0 100 100;" xml:space="preserve">
<style type="text/css">
	.st0{stroke:#000000;stroke-miterlimit:10;}
</style>
<g id="Layer_2">
	<g>
		<g>
			<g>
				<path class="st0" d="M70.3,32.1h-0.8V28c0-1.3-1.1-2.4-2.4-2.4h-1.6c-1.3,0-2.4,1.1-2.4,2.4v4.1H37V28c0-1.3-1.1-2.4-2.4-2.4
					h-1.6c-1.3,0-2.4,1.1-2.4,2.4v4.1h-0.8c-2.2,0-4.1,1.8-4.1,4.1v34.2c0,2.2,1.8,4.1,4.1,4.1h40.7c2.2,0,4.1-1.8,4.1-4.1V36.2
					C74.4,33.9,72.6,32.1,70.3,32.1z M64.7,32.9V28c0-0.4,0.4-0.8,0.8-0.8h1.6c0.4,0,0.8,0.4,0.8,0.8v4.9v3.3c0,0.4-0.4,0.8-0.8,0.8
					h-1.6c-0.4,0-0.8-0.4-0.8-0.8V32.9z M32.1,32.9V28c0-0.4,0.4-0.8,0.8-0.8h1.6c0.4,0,0.8,0.4,0.8,0.8v4.9v3.3
					c0,0.4-0.4,0.8-0.8,0.8h-1.6c-0.4,0-0.8-0.4-0.8-0.8V32.9z M72.8,70.3c0,1.3-1.1,2.4-2.4,2.4H29.7c-1.3,0-2.4-1.1-2.4-2.4V46.7
					h45.6V70.3z M72.8,45.1H27.2v-9c0-1.3,1.1-2.4,2.4-2.4h0.8v2.4c0,1.3,1.1,2.4,2.4,2.4h1.6c1.3,0,2.4-1.1,2.4-2.4v-2.4h26v2.4
					c0,1.3,1.1,2.4,2.4,2.4h1.6c1.3,0,2.4-1.1,2.4-2.4v-2.4h0.8c1.3,0,2.4,1.1,2.4,2.4V45.1z"/>
			</g>
		</g>
		<g>
			<g>
				<path class="st0" d="M59,36.2H41c-0.5,0-0.8,0.4-0.8,0.8v4.9c0,0.5,0.4,0.8,0.8,0.8H59c0.5,0,0.8-0.4,0.8-0.8V37
					C59.8,36.5,59.4,36.2,59,36.2z M58.1,41H41.9v-3.3h16.3V41z"/>
			</g>
		</g>
		<g>
			<g>
				<path class="st0" d="M36.2,49.2h-4.9c-0.5,0-0.8,0.4-0.8,0.8v4.1c0,0.5,0.4,0.8,0.8,0.8h4.9c0.5,0,0.8-0.4,0.8-0.8V50
					C37,49.5,36.6,49.2,36.2,49.2z M35.3,53.3h-3.3v-2.4h3.3V53.3z"/>
			</g>
		</g>
		<g>
			<g>
				<path class="st0" d="M46.7,49.2h-4.9c-0.5,0-0.8,0.4-0.8,0.8v4.1c0,0.5,0.4,0.8,0.8,0.8h4.9c0.5,0,0.8-0.4,0.8-0.8V50
					C47.6,49.5,47.2,49.2,46.7,49.2z M45.9,53.3h-3.3v-2.4h3.3V53.3z"/>
			</g>
		</g>
		<g>
			<g>
				<path class="st0" d="M58.1,49.2h-4.9c-0.5,0-0.8,0.4-0.8,0.8v4.1c0,0.5,0.4,0.8,0.8,0.8h4.9c0.5,0,0.8-0.4,0.8-0.8V50
					C59,49.5,58.6,49.2,58.1,49.2z M57.3,53.3h-3.3v-2.4h3.3V53.3z"/>
			</g>
		</g>
		<g>
			<g>
				<path class="st0" d="M68.7,49.2h-4.9c-0.5,0-0.8,0.4-0.8,0.8v4.1c0,0.5,0.4,0.8,0.8,0.8h4.9c0.5,0,0.8-0.4,0.8-0.8V50
					C69.5,49.5,69.2,49.2,68.7,49.2z M67.9,53.3h-3.3v-2.4h3.3V53.3z"/>
			</g>
		</g>
		<g>
			<g>
				<path class="st0" d="M36.2,57.3h-4.9c-0.5,0-0.8,0.4-0.8,0.8v4.1c0,0.5,0.4,0.8,0.8,0.8h4.9c0.5,0,0.8-0.4,0.8-0.8v-4.1
					C37,57.7,36.6,57.3,36.2,57.3z M35.3,61.4h-3.3V59h3.3V61.4z"/>
			</g>
		</g>
		<g>
			<g>
				<path class="st0" d="M46.7,57.3h-4.9c-0.5,0-0.8,0.4-0.8,0.8v4.1c0,0.5,0.4,0.8,0.8,0.8h4.9c0.5,0,0.8-0.4,0.8-0.8v-4.1
					C47.6,57.7,47.2,57.3,46.7,57.3z M45.9,61.4h-3.3V59h3.3V61.4z"/>
			</g>
		</g>
		<g>
			<g>
				<path class="st0" d="M58.1,57.3h-4.9c-0.5,0-0.8,0.4-0.8,0.8v4.1c0,0.5,0.4,0.8,0.8,0.8h4.9c0.5,0,0.8-0.4,0.8-0.8v-4.1
					C59,57.7,58.6,57.3,58.1,57.3z M57.3,61.4h-3.3V59h3.3V61.4z"/>
			</g>
		</g>
		<g>
			<g>
				<path class="st0" d="M68.7,57.3h-4.9c-0.5,0-0.8,0.4-0.8,0.8v4.1c0,0.5,0.4,0.8,0.8,0.8h4.9c0.5,0,0.8-0.4,0.8-0.8v-4.1
					C69.5,57.7,69.2,57.3,68.7,57.3z M67.9,61.4h-3.3V59h3.3V61.4z"/>
			</g>
		</g>
		<g>
			<g>
				<path class="st0" d="M36.2,65.5h-4.9c-0.5,0-0.8,0.4-0.8,0.8v4.1c0,0.5,0.4,0.8,0.8,0.8h4.9c0.5,0,0.8-0.4,0.8-0.8v-4.1
					C37,65.8,36.6,65.5,36.2,65.5z M35.3,69.5h-3.3v-2.4h3.3V69.5z"/>
			</g>
		</g>
		<g>
			<g>
				<path class="st0" d="M46.7,65.5h-4.9c-0.5,0-0.8,0.4-0.8,0.8v4.1c0,0.5,0.4,0.8,0.8,0.8h4.9c0.5,0,0.8-0.4,0.8-0.8v-4.1
					C47.6,65.8,47.2,65.5,46.7,65.5z M45.9,69.5h-3.3v-2.4h3.3V69.5z"/>
			</g>
		</g>
		<g>
			<g>
				<path class="st0" d="M58.3,64.9l-3.5,4.2L53,67.3l-1.2,1.2l2.4,2.4c0.2,0.2,0.4,0.2,0.6,0.2c0,0,0,0,0,0c0.2,0,0.4-0.1,0.6-0.3
					l4.1-4.9L58.3,64.9z"/>
			</g>
		</g>
		<g>
			<g>
				<path class="st0" d="M68.1,64.9l-3.5,4.2l-1.8-1.8l-1.2,1.2l2.4,2.4c0.2,0.2,0.4,0.2,0.6,0.2c0,0,0,0,0,0c0.2,0,0.4-0.1,0.6-0.3
					l4.1-4.9L68.1,64.9z"/>
			</g>
		</g>
	</g>
</g>
<g id="Layer_3">
	<g id="Layer_2_1_">
	</g>
</g>
</svg>
