<?xml version="1.0" encoding="utf-8"?>
<!-- Generator: Adobe Illustrator 22.0.0, SVG Export Plug-In . SVG Version: 6.00 Build 0)  -->
<svg version="1.1" xmlns="http://www.w3.org/2000/svg" xmlns:xlink="http://www.w3.org/1999/xlink" x="0px" y="0px"  viewBox="0 0 100 100" style="enable-background:new 0 0 100 100;" xml:space="preserve">
<g id="Layer_2">
	<g>
		<path d="M49.9,22.1c-4.2,0-7.6,3.4-7.6,7.6c0,4.2,3.4,7.6,7.6,7.6c4.2,0,7.6-3.4,7.6-7.6S54.1,22.1,49.9,22.1z M49.9,34.7
			c-2.8,0-5-2.3-5-5c0-2.8,2.3-5,5-5c2.8,0,5,2.3,5,5C54.9,32.5,52.7,34.7,49.9,34.7z"/>
	</g>
	<g>
		<path d="M67.3,33.4c-0.9-0.8-2-1.2-3.2-1.2c-1.2,0-2.3,0.5-3.1,1.4l-7.2,7.6h-7.8l-7.2-7.6c-0.9-0.9-2-1.4-3.2-1.4
			c-1.1,0-2.2,0.4-3,1.2c-1.8,1.7-1.9,4.5-0.2,6.3l8.3,8.8v25.1c0,2.4,1.9,4.3,4.3,4.3h9.9c2.4,0,4.3-1.9,4.3-4.3V63.3
			c0-0.7-0.6-1.3-1.3-1.3c-0.7,0-1.3,0.6-1.3,1.3v10.3c0,1-0.8,1.8-1.7,1.8h-3.7V59.1c0-0.7-0.6-1.3-1.3-1.3c-0.7,0-1.3,0.6-1.3,1.3
			v16.2h-3.6c-1,0-1.8-0.8-1.8-1.8V48c0-0.3-0.1-0.6-0.3-0.9l-8.6-9.2c-0.3-0.4-0.5-0.8-0.5-1.3c0-0.5,0.2-1,0.6-1.3
			c0.8-0.7,1.9-0.7,2.7,0.1l7.6,8c0.2,0.3,0.6,0.4,0.9,0.4h8.9c0.4,0,0.7-0.1,0.9-0.4l7.6-8c0.3-0.4,0.8-0.6,1.3-0.6
			c0.5,0,1,0.2,1.3,0.5c0.4,0.3,0.6,0.8,0.6,1.3c0,0.5-0.2,1-0.5,1.3L57,47.1c-0.2,0.2-0.3,0.5-0.3,0.9v9c0,0.7,0.6,1.3,1.3,1.3
			c0.7,0,1.3-0.6,1.3-1.3v-8.5l8.3-8.8C69.2,37.9,69.1,35.1,67.3,33.4z"/>
	</g>
</g>
<g id="Layer_3">
	<g id="Layer_2_1_">
	</g>
</g>
</svg>
