<?xml version="1.0" encoding="utf-8"?>
<!-- Generator: Adobe Illustrator 22.0.0, SVG Export Plug-In . SVG Version: 6.00 Build 0)  -->
<svg version="1.1" id="Layer_1" xmlns="http://www.w3.org/2000/svg" xmlns:xlink="http://www.w3.org/1999/xlink" x="0px" y="0px"
	viewBox="0 0 100 100" style="enable-background:new 0 0 100 100;" xml:space="preserve">
<g id="Layer_1_1_">
	<g>
		<g>
			<g>
				<path d="M71.5,35.8L70.3,37c-1,1-2.3,1.5-3.6,1.5S64,37.9,63,37c-1-1-1.5-2.3-1.5-3.6s0.6-2.7,1.5-3.6l1.2-1.2l-7.1-7.1
					L21.5,57.2l7.1,7.1l1.2-1.2c1-1,2.3-1.5,3.6-1.5S36,62.1,37,63c1,1,1.5,2.3,1.5,3.6s-0.6,2.7-1.5,3.6l-1.2,1.2l7.1,7.1
					l35.7-35.7L71.5,35.8z M40.3,71.4c0.9-1.4,1.4-3,1.4-4.7c0-2.3-0.9-4.4-2.5-6c-1.6-1.6-3.7-2.5-6-2.5c-1.7,0-3.3,0.5-4.7,1.4
					l-2.4-2.4l31-31l2.4,2.4c-0.9,1.4-1.4,3-1.4,4.7c0,2.3,0.9,4.4,2.5,6c1.6,1.6,3.7,2.5,6,2.5c1.7,0,3.3-0.5,4.7-1.4l2.4,2.4
					l-31,31L40.3,71.4z"/>
			</g>
		</g>
		<g>
			<g>
				<rect x="53.1" y="43.5" transform="matrix(0.7071 -0.7071 0.7071 0.7071 -15.8856 51.9735)" width="3.4" height="3.4"/>
			</g>
		</g>
		<g>
			<g>
				<rect x="48.4" y="38.7" transform="matrix(0.7071 -0.7071 0.7071 0.7071 -13.9147 47.2295)" width="3.4" height="3.4"/>
			</g>
		</g>
		<g>
			<g>
				<rect x="57.9" y="48.3" transform="matrix(0.7071 -0.7071 0.7071 0.7071 -17.8798 56.7754)" width="3.4" height="3.4"/>
			</g>
		</g>
	</g>
</g>
<g id="Layer_2_1_">
</g>
</svg>
