<?xml version="1.0" encoding="utf-8"?>
<!-- Generator: Adobe Illustrator 22.0.0, SVG Export Plug-In . SVG Version: 6.00 Build 0)  -->
<svg version="1.1" id="Layer_1" xmlns="http://www.w3.org/2000/svg" xmlns:xlink="http://www.w3.org/1999/xlink" x="0px" y="0px"
	 width="266.3px" height="110px" viewBox="0 0 266.3 110" style="enable-background:new 0 0 266.3 110;" xml:space="preserve">
<style type="text/css">
	.st0{fill-rule:evenodd;clip-rule:evenodd;fill:#FFFFFF;}
</style>
<g>
	<path class="st0" d="M87.4,72.1c-1.6,2.6-5,3.4-7.5,1.8c-1.7-1-2.6-2.8-2.6-4.7l-0.2-3.4l3.1-1.4c1.7-0.9,3.7-0.9,5.4,0.2
		C88.2,66.1,89,69.5,87.4,72.1L87.4,72.1z M90.9,51.4l-0.2-0.4c-1.3-2.6-5-3.3-8.3-1.7L70,55.4l-12.5-7.2l13.1-7.5l11.8,5.8
		c3.3,1.6,7,0.8,8.2-1.7l0.2-0.4c1.3-2.6-0.4-6-3.7-7.6L75.7,31V18.1c0-3.6-2.3-6.6-5.2-6.6l-0.5,0c-2.9,0-5.2,3-5.2,6.6l0,12.4
		l-13.2,7.6V22.9l10.7-6.6c3.1-1.9,4.4-5.5,2.9-7.9l-0.3-0.4c-1.5-2.4-5.3-2.8-8.4-0.9l-10.9,6.8L34.7,7c-3.1-1.9-6.9-1.5-8.4,0.9
		L26,8.3c-1.5,2.4-0.2,6,2.9,7.9l11,6.8v15l-13.4-7.8l0-11.8c0-3.7-2.3-6.6-5.2-6.6h-0.5c-2.9,0-5.2,3-5.2,6.6l0,12.9L4.1,37
		c-3.3,1.6-4.9,5-3.7,7.6L0.6,45c1.3,2.6,5,3.3,8.2,1.7l12.3-6L34,48.2l-12.8,7.4L9,49.4c-3.3-1.6-7-0.9-8.3,1.7l-0.2,0.4
		c-1.3,2.6,0.4,6,3.6,7.6l11.6,5.8l-0.1,12.9c0,3.6,2.3,6.6,5.2,6.7l0.5,0c2.9,0,5.2-3,5.2-6.6L26.5,66l13.4-7.7v14.5l-11.2,7.1
		c-3.1,1.9-4.4,5.5-2.8,7.9l0.3,0.4c1.5,2.4,5.3,2.8,8.4,0.8l5.4-3.4V110h11.7V86l5.2,3.2c3.1,1.9,6.9,1.5,8.4-1l0.3-0.4
		c1.5-2.4,0.2-6-2.9-7.9l-10.9-6.7V58.4L64.8,66l0.1,11.6c0,3.7,2.4,6.6,5.2,6.6l0.5,0c2.9,0,5.2-3,5.2-6.7l-0.1-12.9L87.3,59
		C90.5,57.4,92.2,53.9,90.9,51.4L90.9,51.4z M4,72.2c1.6,2.6,5,3.4,7.5,1.8c1.7-1,2.6-2.8,2.6-4.7l0.2-3.4l-3.1-1.4
		c-1.7-0.9-3.7-0.9-5.4,0.2C3.2,66.3,2.4,69.7,4,72.2L4,72.2z M3.9,24.1c-1.6,2.6-0.8,5.9,1.8,7.5c1.7,1,3.7,1.1,5.3,0.2l3.1-1.4
		L14,27.1c0-1.9-0.9-3.7-2.6-4.7C8.8,20.8,5.5,21.6,3.9,24.1L3.9,24.1z M45.7,0c3,0,5.5,2.5,5.5,5.5c0,2-1,3.7-2.6,4.7l-2.8,1.9
		l-2.8-1.9c-1.6-1-2.7-2.7-2.7-4.7C40.3,2.5,42.7,0,45.7,0L45.7,0z M87.4,23.8c1.6,2.6,0.8,5.9-1.8,7.5c-1.7,1-3.7,1.1-5.3,0.2
		l-3.1-1.4l0.1-3.4c0-1.9,0.9-3.7,2.6-4.8C82.4,20.5,85.8,21.3,87.4,23.8L87.4,23.8z"/>
	<path class="st0" d="M98.3,74.6l0.1-1.1c0.9-0.3,1.5-0.8,1.8-1.4c0.3-0.7,0.5-2.2,0.5-4.6V45.7c0-2.2-0.2-3.5-0.7-3.9
		c-0.4-0.4-1.5-0.6-3.2-0.6h-0.5v-1.6c1.1,0.1,2.2,0.1,3.4,0.2c1.1,0,2.3,0.1,3.5,0.1c1.4,0,3.1,0,5.1-0.1c1.9-0.1,3.2-0.1,3.7-0.1
		c3.5,0,6.1,0.6,7.7,1.7c1.6,1.2,2.5,3,2.5,5.4c0,2-0.7,3.7-2,5c-1.3,1.4-3.3,2.4-6,3c3.2,0.2,5.6,1,7.3,2.4c1.7,1.4,2.5,3.4,2.5,6
		c0,3.4-1.3,6.2-4,8.3c-2.6,2.1-6.2,3.2-10.5,3.2c-0.7,0-1.6,0-2.9-0.1c-1.2-0.1-2.1-0.1-2.7-0.1c-0.7,0-1.5,0-2.4,0
		C100.5,74.5,99.4,74.5,98.3,74.6L98.3,74.6z M105.4,72.3c0.9,0.1,1.7,0.2,2.4,0.3c0.6,0.1,1.1,0.1,1.5,0.1c3.1,0,5.4-0.7,7-2.2
		c1.6-1.4,2.4-3.6,2.4-6.5c0-3-0.8-5.1-2.5-6.3c-1.7-1.2-4.7-1.8-9.1-1.8h-1.7v14.7V72.3L105.4,72.3z M105.4,54c0,0,0.1,0,0.2,0
		c1,0,1.8,0.1,2.2,0.1c3.2,0,5.6-0.5,7.1-1.6c1.5-1.1,2.2-2.7,2.2-5c0-2.2-0.6-3.7-1.8-4.7c-1.2-0.9-3.4-1.4-6.4-1.4
		c-0.7,0-1.3,0-1.8,0.1c-0.5,0-1,0.1-1.5,0.2c-0.1,0.5-0.1,1.1-0.2,1.7c0,0.6-0.1,1.3-0.1,2.1V54L105.4,54z"/>
	<path class="st0" d="M125.8,68.3V57.5c0-1.6-0.2-2.5-0.6-2.8c-0.4-0.3-1.5-0.5-3.2-0.6v-1.3c1.4-0.2,2.7-0.4,4-0.8
		c1.3-0.3,2.5-0.8,3.7-1.3l0.7,0.3c-0.1,1.2-0.2,2.4-0.3,3.5c-0.1,1.1-0.1,2.1-0.1,3.1v8.8c0,2,0.4,3.5,1.1,4.3
		c0.7,0.8,1.9,1.3,3.6,1.3c2,0,3.6-0.6,4.9-1.7c1.3-1.2,1.9-2.6,1.9-4.5v-9.1c0-1.1-0.2-1.9-0.5-2.2c-0.4-0.3-1.2-0.5-2.6-0.5h-1.1
		v-1.3c1.8-0.2,3.3-0.5,4.7-0.8c1.4-0.3,2.5-0.7,3.5-1.2l0.7,0.3c-0.1,1.1-0.1,2.2-0.2,3.2c0,1-0.1,1.9-0.1,2.7v0.9v11.5
		c0,1.8,0.2,2.8,0.7,3.2c0.4,0.4,1.5,0.6,3.3,0.6l0,1.4c-1-0.1-1.8-0.1-2.3-0.2c-0.6,0-1.1,0-1.6,0c-0.5,0-1.1,0-1.7,0
		c-0.6,0-1.4,0.1-2.5,0.2v-4.1l-3.1,2.7c-0.8,0.7-1.7,1.2-2.7,1.6c-1,0.3-2.1,0.5-3.3,0.5c-2.4,0-4.1-0.5-5.2-1.6
		C126.4,72.5,125.8,70.7,125.8,68.3L125.8,68.3z"/>
	<path class="st0" d="M153.5,67.7v-9c0-2.2-0.2-3.4-0.6-3.9c-0.4-0.4-1.3-0.6-2.6-0.6h-1l0-1.3c1.4-0.1,2.7-0.4,3.9-0.7
		c1.3-0.3,2.4-0.7,3.6-1.3l0.9,0.1v5.1l1.6-1.8l0.3-0.3c1.9-2.2,3.5-3.2,4.9-3.2c0.3,0,0.7,0,1.1,0.1c0.4,0.1,0.9,0.2,1.5,0.4
		c-0.2,1-0.3,2-0.4,2.9c-0.1,0.9-0.1,1.8-0.1,2.6v0.7h-1.1c-0.4-0.9-0.9-1.4-1.4-1.8c-0.5-0.3-1.2-0.5-2-0.5c-1.3,0-2.4,0.6-3.1,1.7
		c-0.7,1.1-1.1,2.7-1.1,4.7v6.8c0,2.2,0.2,3.6,0.7,4.1c0.4,0.5,1.4,0.7,2.8,0.7c0.1,0,0.3,0,0.6,0c0.3,0,0.5,0,0.7,0l0,1.4
		c-0.5-0.1-1-0.1-1.6-0.1c-0.6,0-1.5,0-2.7,0h-2.3c-1.6,0-2.9,0-4,0c-1.1,0-2,0.1-2.6,0.1v-1.4c0.1,0,0.3,0,0.5,0c0.2,0,0.4,0,0.5,0
		c1.3,0,2.2-0.2,2.6-0.7c0.4-0.5,0.6-1.8,0.6-3.9V67.7L153.5,67.7z"/>
	<path class="st0" d="M172.1,69.5V57c0-1.3-0.1-2-0.4-2.4c-0.3-0.3-0.9-0.5-1.8-0.5c-0.3,0-0.8,0-1.6,0.1c-0.1,0-0.1,0-0.1,0v-1.4
		c1.2-0.2,2.4-0.4,3.7-0.8c1.3-0.3,2.6-0.8,4-1.2l0.6,0.2l-0.1,4.4l3.1-2.7c0.7-0.7,1.5-1.1,2.3-1.4c0.8-0.3,1.8-0.4,3-0.4
		c2.7,0,4.7,0.8,6,2.3c1.3,1.5,1.9,3.9,1.9,7.2v9.1c0,1.7,0.2,2.7,0.7,3.1c0.5,0.4,1.5,0.6,3,0.6v1.4c-1.2-0.1-2.1-0.1-2.8-0.1
		c-0.7,0-1.2,0-1.5,0c-0.7,0-1.3,0-2,0c-0.7,0-1.4,0.1-2,0.1c0.1-0.9,0.1-1.7,0.2-2.5c0-0.8,0.1-1.6,0.1-2.5v-9.3
		c0-2.1-0.5-3.7-1.4-4.8c-0.9-1.1-2.3-1.6-4.2-1.6c-1.8,0-3.3,0.5-4.4,1.5c-1.1,1-1.6,2.4-1.6,4.1v10.6c0,1.4,0.2,2.3,0.6,2.6
		c0.4,0.3,1.5,0.4,3.2,0.4v1.4c-2.1-0.1-3.6-0.2-4.4-0.2c-0.8,0-1.4,0-1.9,0c-0.9,0-1.8,0-2.8,0.1c-0.9,0-1.9,0.1-3,0.2l0-1.4
		c1.7,0,2.8-0.2,3.2-0.5C171.9,72.3,172.1,71.3,172.1,69.5L172.1,69.5z"/>
	<path class="st0" d="M211.3,61.4c-3.8,0.5-6.4,1.3-8,2.2c-1.5,1-2.3,2.4-2.3,4.3c0,1.3,0.4,2.3,1,3c0.7,0.7,1.7,1.1,3,1.1
		c1.1,0,2.1-0.3,3.1-0.9c1-0.6,2-1.6,3.1-3V61.4L211.3,61.4z M215.3,68.9v0.8c0,1.6,0.2,2.6,0.6,2.9c0.4,0.3,1.3,0.5,2.8,0.5v1.5
		c-0.6-0.1-1.2-0.1-1.8-0.1c-0.6,0-1.3,0-1.9,0c-0.4,0-0.9,0-1.5,0c-0.6,0-1.3,0.1-2.1,0.1l0-4.1l-4.5,3.3c-0.6,0.4-1.2,0.8-1.9,1
		c-0.7,0.2-1.5,0.3-2.3,0.3c-1.8,0-3.2-0.6-4.2-1.7c-1-1.1-1.5-2.6-1.5-4.6c0-2.7,1.1-4.7,3.3-6.1c2.2-1.4,5.9-2.4,11-2.9
		c0-0.1,0-0.2,0-0.4c0-0.2,0-0.3,0-0.3c0-1.9-0.5-3.3-1.6-4.4c-1.1-1-2.5-1.6-4.4-1.6c-1.6,0-2.8,0.3-3.5,0.9
		c-0.7,0.6-1.2,1.8-1.5,3.4l-1.4-0.3l0.1-3.4c1.9-1.3,3.4-2.1,4.6-2.5c1.2-0.4,2.3-0.7,3.5-0.7c2.9,0,5,0.7,6.3,2
		c1.3,1.3,1.9,3.6,1.9,6.7V68.9L215.3,68.9z"/>
	<path class="st0" d="M223.7,69.5c1,0.9,2,1.6,3,2.1c1,0.5,2.1,0.7,3.2,0.7c2.3,0,4.1-0.9,5.4-2.5c1.3-1.7,2-4,2-6.9
		c0-2.7-0.6-4.9-1.9-6.4c-1.2-1.6-2.9-2.4-5-2.4c-0.9,0-1.7,0.1-2.5,0.4c-0.8,0.3-1.5,0.7-2.1,1.2c-0.6,0.5-1,1.1-1.4,1.8
		c-0.4,0.7-0.6,1.2-0.6,1.5V69.5L223.7,69.5z M219.4,70.1V44.7c0-1.7-0.2-2.8-0.5-3.1c-0.3-0.3-1.2-0.5-2.6-0.5h-0.8v-1.4
		c1.4-0.2,2.7-0.4,4-0.7c1.3-0.3,2.6-0.7,3.9-1.2l0.6,0.3v1.3c0,0.2,0,0.9-0.1,2.2c-0.1,1.2-0.1,2.3-0.1,3.3v10.7l2.6-2.4
		c0.9-0.8,1.8-1.4,2.8-1.8c1-0.4,2.2-0.5,3.6-0.5c2.7,0,4.8,0.9,6.5,2.8c1.6,1.8,2.4,4.3,2.4,7.3c0,2.3-0.5,4.3-1.4,6
		c-0.9,1.7-2.4,3.4-4.6,5.1c-1.7,1.3-3,2.1-4.1,2.5c-1.1,0.4-2.2,0.6-3.5,0.6c-1.2,0-2.3-0.2-3.3-0.5c-1-0.3-1.9-0.8-2.7-1.4l-2,1.7
		l-0.8-0.2c0.1-0.6,0.2-1.2,0.2-1.8c0.1-0.6,0.1-1.2,0.1-1.9V70.1L219.4,70.1z"/>
	<path class="st0" d="M251.8,75.5L244,56.7c-0.1-0.2-0.2-0.5-0.3-0.8c-0.8-2-2-3-3.7-3v-1.4c1.4,0.1,2.4,0.1,3.1,0.2
		c0.7,0,1.3,0,1.8,0c0.8,0,1.6,0,2.5,0c0.9,0,2.2-0.1,3.9-0.2l0,1.4H251c-1,0-1.7,0.1-2.2,0.3c-0.5,0.2-0.7,0.5-0.7,0.9
		c0,0.3,0.1,0.7,0.2,1.1c0.1,0.4,0.4,1.1,0.8,2.1l5.2,12.9l5.5-13.5c0.3-0.8,0.5-1.3,0.6-1.6s0.1-0.6,0.1-0.8c0-0.4-0.2-0.8-0.6-0.9
		c-0.4-0.2-1.3-0.3-2.7-0.4l0-1.4c0.9,0.1,1.7,0.1,2.4,0.1c0.7,0,1.4,0,2.1,0s1.4,0,2.2,0c0.8,0,1.6-0.1,2.5-0.1v1.4
		c-1.7,0.2-3,1.5-4.2,4c-0.1,0.4-0.3,0.6-0.3,0.8l-8.3,18.9l0,0.1c-3.4,7.7-6.8,11.6-10.3,11.6c-0.6,0-1.1-0.1-1.6-0.2
		c-0.5-0.1-1-0.2-1.5-0.4c0.2-0.7,0.4-1.3,0.6-2c0.2-0.7,0.3-1.4,0.5-2.2c0.7,0.4,1.4,0.7,2,0.9c0.6,0.2,1.2,0.3,1.8,0.3
		c1.3,0,2.4-0.7,3.5-2.1C249.5,81.1,250.6,78.8,251.8,75.5L251.8,75.5z"/>
	<path class="st0" d="M142.3,35l0.3,0.2l-0.8,1.5c-0.9,0.5-1.8,0.9-2.9,1.1c-1.1,0.2-2.2,0.4-3.6,0.4c-1.5,0-2.9-0.2-4.3-0.7
		c-1.3-0.5-2.5-1.2-3.5-2c-1.1-1-1.9-2.1-2.4-3.5c-0.5-1.3-0.8-2.8-0.8-4.5c0-3.2,1-5.8,3.1-7.7c2-1.9,4.8-2.8,8.4-2.8
		c1.2,0,2.4,0.1,3.5,0.3c1.1,0.2,2.2,0.5,3.3,0.9c-0.2,0.7-0.4,1.4-0.5,2.2c-0.1,0.7-0.2,1.5-0.2,2.3h-0.7c0-0.4-0.1-0.9-0.1-1.2
		c0-0.4-0.1-0.8-0.1-1.1c-0.8-0.7-1.8-1.2-2.7-1.5c-1-0.3-2-0.5-3-0.5c-2.4,0-4.3,0.8-5.7,2.3c-1.4,1.5-2.1,3.6-2.1,6.2
		c0,3,0.8,5.4,2.5,7.3c1.7,1.8,3.9,2.7,6.7,2.7c1.1,0,2.1-0.1,3.1-0.4C140.7,35.9,141.5,35.5,142.3,35L142.3,35z"/>
	<path class="st0" d="M146.4,35.1V28c0-1-0.1-1.6-0.3-1.8c-0.2-0.2-0.8-0.3-1.6-0.3h-0.3v-0.8c0.9-0.1,1.7-0.3,2.4-0.5
		c0.7-0.2,1.4-0.4,2-0.7L149,24v10.7c0,1,0.1,1.7,0.3,1.9c0.2,0.2,0.8,0.3,1.6,0.3h0.3v0.8c-0.3,0-0.7-0.1-1.2-0.1
		c-0.5,0-1.2,0-2.4,0c-1.2,0-2,0-2.4,0c-0.5,0-0.8,0-1.1,0.1v-0.8h0.3c0.8,0,1.3-0.1,1.6-0.3C146.3,36.4,146.4,35.9,146.4,35.1
		L146.4,35.1z M145.8,19.2c0-0.5,0.2-0.8,0.5-1.2c0.3-0.3,0.7-0.5,1.2-0.5c0.5,0,0.8,0.2,1.2,0.5c0.3,0.3,0.5,0.7,0.5,1.2
		c0,0.4-0.2,0.8-0.5,1.1c-0.3,0.3-0.7,0.5-1.2,0.5c-0.5,0-0.8-0.2-1.2-0.5C146,20,145.8,19.6,145.8,19.2L145.8,19.2z"/>
	<path class="st0" d="M154.5,34.2v-7.9h-2.1v-0.5c0.4-0.1,0.7-0.2,1.1-0.4c0.4-0.2,0.7-0.4,1.1-0.6c0-1.2,0-2,0-2.6
		c0-0.6,0-1.2,0-1.7c0.4-0.2,0.7-0.3,1.1-0.5c0.4-0.2,0.8-0.4,1.2-0.6l0.4,0.3c-0.1,0.7-0.2,1.5-0.2,2.4c0,0.9-0.1,1.9-0.1,3
		c0.6,0,1.3,0,1.9,0c0.6,0,1.3-0.1,2-0.2l-0.1,1.5H157v6.6c0,1.4,0.1,2.3,0.4,2.8c0.3,0.5,0.8,0.7,1.6,0.7c0.2,0,0.5,0,0.8-0.1
		c0.3,0,0.6-0.1,1-0.2l0.2,0.4c-0.2,0.2-0.5,0.4-0.8,0.6c-0.3,0.2-0.7,0.4-1.1,0.7c-0.3,0.1-0.6,0.1-0.8,0.2c-0.2,0-0.4,0.1-0.6,0.1
		c-1.2,0-2-0.3-2.5-0.8C154.7,36.8,154.5,35.8,154.5,34.2L154.5,34.2z"/>
	<path class="st0" d="M168.6,38.3l-4.5-11c0-0.1-0.1-0.3-0.2-0.5c-0.5-1.2-1.2-1.8-2.2-1.8v-0.8c0.8,0,1.4,0.1,1.8,0.1
		c0.4,0,0.7,0,1.1,0c0.5,0,1,0,1.5,0c0.5,0,1.3,0,2.3-0.1l0,0.8h-0.2c-0.6,0-1,0.1-1.3,0.2c-0.3,0.1-0.4,0.3-0.4,0.5
		c0,0.2,0,0.4,0.1,0.7c0.1,0.3,0.2,0.7,0.4,1.2l3,7.5l3.2-7.9c0.2-0.5,0.3-0.8,0.4-1c0.1-0.2,0.1-0.3,0.1-0.5c0-0.3-0.1-0.4-0.4-0.5
		c-0.2-0.1-0.8-0.2-1.6-0.2l0-0.8c0.5,0,1,0.1,1.4,0.1c0.4,0,0.8,0,1.2,0c0.4,0,0.8,0,1.3,0c0.4,0,0.9,0,1.5-0.1v0.8
		c-1,0.1-1.8,0.9-2.4,2.4c-0.1,0.2-0.2,0.4-0.2,0.5l-4.9,11l0,0.1c-2,4.5-4,6.8-6,6.8c-0.3,0-0.6,0-0.9-0.1
		c-0.3-0.1-0.6-0.1-0.9-0.3c0.1-0.4,0.2-0.8,0.3-1.2c0.1-0.4,0.2-0.8,0.3-1.3c0.4,0.2,0.8,0.4,1.2,0.5c0.4,0.1,0.7,0.2,1.1,0.2
		c0.7,0,1.4-0.4,2-1.2C167.3,41.6,167.9,40.2,168.6,38.3L168.6,38.3z"/>
	<path class="st0" d="M187.4,30c0,2.2,0.4,3.9,1.2,5.2c0.8,1.3,2,1.9,3.4,1.9c1.3,0,2.3-0.5,3-1.4c0.7-0.9,1-2.3,1-4.1
		c0-2.2-0.4-3.9-1.2-5.1c-0.8-1.2-1.8-1.9-3.2-1.9c-1.4,0-2.4,0.4-3.1,1.3C187.8,27,187.4,28.3,187.4,30L187.4,30z M184.8,31
		c0-2.2,0.7-4,2-5.3c1.3-1.3,3.1-2,5.3-2c2,0,3.7,0.6,4.9,1.8c1.2,1.2,1.8,2.9,1.8,5c0,2.2-0.7,4.1-2.1,5.5
		c-1.4,1.4-3.2,2.1-5.4,2.1c-2,0-3.6-0.6-4.7-1.9C185.4,35,184.8,33.2,184.8,31L184.8,31z"/>
	<path class="st0" d="M200.4,37.8l0-0.8c1,0,1.7-0.2,1.9-0.4c0.2-0.2,0.4-0.9,0.4-2v-8.2h-2.2l0-0.5c0.4-0.1,0.8-0.3,1.2-0.5
		c0.4-0.2,0.7-0.4,1-0.5v-0.7c0-1,0.1-1.8,0.2-2.4c0.2-0.6,0.4-1.2,0.8-1.7c0.8-1.2,1.6-2,2.3-2.6c0.8-0.6,1.5-0.9,2.2-0.9
		c0.2,0,0.5,0,0.7,0.1c0.2,0,0.4,0.1,0.6,0.2l0,2.3l-0.3,0.1c-0.2-0.2-0.5-0.4-0.9-0.5c-0.4-0.1-0.8-0.2-1.3-0.2
		c-0.6,0-1,0.2-1.4,0.6c-0.3,0.4-0.5,1-0.5,1.8V25c0.9,0,1.7,0,2.4-0.1c0.7,0,1.2-0.1,1.6-0.1l-0.2,1.5h-3.7v8.4
		c0,1,0.1,1.6,0.4,1.8c0.3,0.2,1,0.3,2.3,0.4v0.8c-0.4,0-1-0.1-1.6-0.1c-0.6,0-1.3,0-2.1,0c-1.3,0-2.2,0-2.6,0
		C201.1,37.7,200.7,37.7,200.4,37.8L200.4,37.8z"/>
</g>
</svg>
