<?xml version="1.0" encoding="utf-8"?>
<!-- Generator: Adobe Illustrator 22.0.0, SVG Export Plug-In . SVG Version: 6.00 Build 0)  -->
<svg version="1.1" xmlns="http://www.w3.org/2000/svg" xmlns:xlink="http://www.w3.org/1999/xlink" x="0px" y="0px" width="1200px"
	 height="316px" viewBox="0 0 1200 316" style="enable-background:new 0 0 1200 316;" xml:space="preserve">
<style type="text/css">
	.st0{fill:#005289;}
	.st1{fill:#FDFDFD;}
	.st2{fill:#F9D85F;}
</style>
<g id="Layer_4">
	<path class="st0" d="M1136,316c-4,0-8,0-12,0c-1.1-1.7-3.2-1.8-4.8-2.8c-6.6-4-6.9-10.4-0.5-14.7c2.4-1.6,5.1-2.2,8.2-3.2
		c-0.3-1.9,0.3-3.8-0.7-6.1c-10.5-0.3-21-1.7-31.6-1c-0.3,2.6,0.2,4.7,0.4,6.9c1.7,0.5,3.3,0.9,4.8,1.4c4.1,1.5,7.8,3.9,7.9,8.6
		c0.1,4.5-3.5,6.8-7.2,8.7c-1.2,0.6-3,0.2-3.5,2c-3.3,0-6.7,0-10,0c-0.8-1.8-2.8-1.2-4.2-1.9c-3.5-1.8-6.8-3.9-6.9-8.3
		c-0.1-4.7,3.4-6.8,7-8.7c1.8-0.9,3.9-0.6,5.6-2.1c0-2.3,0.6-4.5-0.5-6.8c-10.7-0.1-21.2,0.2-31.6,1.5c-0.1,2-0.4,3.7,0.4,5.5
		c2.9,0.9,6,1.4,8.6,3.3c5.3,3.9,5.4,9.6,0.1,13.6c-2.3,1.7-5,2.6-7.7,3.2c-2.9,0-5.7,0-8.6,0c-3.3-0.6-6.4-1.8-8.9-4.2
		c-3.5-3.4-3.5-7.6-0.1-11c2.4-2.5,5.5-3.7,8.8-4.4c0.4-0.1,0.8-0.6,1.4-1c-0.4-1.3,0.4-2.8-0.6-4.5c-6.2,0.8-12.4,1.7-18.6,2.8
		c-6.3,1.1-12.5,3-18.9,4.3c-1.2-1.5-2.2-2.8-3.2-4.1c-6.5-8.5-13.9-16.1-23.2-21.8c-6.9-4.3-14.3-6.6-22.7-6.4
		c-27.8,0.4-55.6,0.5-83.5,0.8c-46,0.4-92,0.3-138,0.9c-47.3,0.6-94.6,0.7-142,1.1c-47.8,0.4-95.6,0.3-143.5,1
		c-45.8,0.7-91.6,0.3-137.5,1c-48.8,0.7-97.6,0.4-146.5,1c-40.8,0.5-81.6,0.6-122.5,0.9c-16.7,0.1-33.3,0.3-50,0.5c0-68,0-136,0-204
		c0.9,0.7,1.9,0.5,2.9,0.5c4.5,0,9,0,13.5,0c13,0.1,26-0.3,39,0.3c6.7,0.4,13.2,1.5,19.4,4.1c9.3,3.9,15,10.8,17,20.6
		c0.9,4.6,1,9.3,0.1,13.9c-1.5,7.5-5.3,13.6-12.4,17.1c-0.7,0.3-1.7,0.4-1.3,1.8c7.7,2.8,13.6,7.9,17.7,15.4C96,117,96,92.5,96,68
		c0-0.1,0.1-0.3,0.2-0.4s0.2-0.2,0.4-0.3c13.2-0.7,36.5-0.4,40.2,0.5c0,0.2,0.1,0.3,0.1,0.5c0,25.7,0.1,51.3,0.1,77
		c0,0.5,0.1,1,0.2,1.5c0,0.1,0.2,0.3,0.3,0.4c0.1,0.1,0.2,0.2,0.5,0.6c5.5,0,11.1-0.1,16.8,0c5.6,0.1,11.2-0.4,17.1,0.3
		c0,11.2,0,22.2,0,33.4c8.5,0,16.6,0,24.8,0c-0.1-1-0.8-1.3-1.4-1.6c-7.7-4.4-13-10.8-16.4-18.8c-3-7.1-4.2-14.7-4.2-22.4
		c0-22.7,0-45.3,0-68c0-1.1-0.4-2.3,0.6-3.2c13.5,0,26.9,0,40.6,0c0,1.9,0,3.6,0,5.2c0,20.5,0,41,0,61.5c0,3,0,6,0.8,8.9
		c1.6,5.4,5.3,8,11.3,7.6c5.8-0.4,9-3.2,9.9-8.7c0.5-3.1,0.7-6.3,0.7-9.5c0-20.2,0-40.3,0-60.5c0-1.6-0.6-3.3,1-5
		c4.2,0,8.6,0,13.4,0c0-21.4,0-42.5,0-63.9c6.4-0.3,12.3-0.4,18.2,1c8.3,2,12.6,7.6,13,16.1c0.2,5.7-1.8,10.3-6.4,13.9
		c7.5,3.1,11.5,8,12.2,14.7c0.9,8.5-2.4,14.9-10.2,18.9c0,1.8,0,3.4,0,5.1c0,20.8,0,41.7,0,62.5c0,4.5-0.2,9-0.9,13.4
		c-2.2,13.5-8.2,24.5-20.4,31.5c-0.5,0.3-1.6,0.5-1.3,1.7c8.6,0,17.3,0,26.4,0c0-38.3,0-76.3,0-114.8c12,0,23.6,0,35.5,0
		c-7.3-8.1-9.2-12.9-9.2-23.4c0-12.2,0-24.3,0-36.5c0-1.3-0.4-2.7,0.6-4.1c2.3,0,4.7-0.3,7.4,0.2c0,1.8,0,3.5,0,5.1
		c0,11.7,0,23.3,0,35c0,3.7,0.6,7.3,1.8,10.8c2.1,5.9,6.5,9.4,13.8,9.3c7.1-0.1,11.2-3.3,13.4-9.2c1.3-3.6,1.9-7.4,1.9-11.3
		c0-12,0-24,0-36c0-1.3-0.5-2.7,0.7-4c2.3,0.1,4.7-0.4,7.2,0.4c0,15,0.2,29.8-0.1,44.6c-0.1,6.1-2.3,11.7-6.6,16.3
		c-0.7,0.8-2,1.1-1.9,2.9c3.8,0,7.6,0,11.4,0c0,10.9,0,21.5,0,32.4c-4.1,0-7.9,0-11.7,0c-3.8,0-7.7-0.1-11.5,0
		c-3.7,0.1-7.5-0.4-11.5,0.4c0.2,3.8-0.4,7.2,0.5,10.9c10.4,0,20.7,0,31.1,0c0,10.4,0,20.4,0,30.8c-10.6,0-20.8,0-31.5,0
		c0.1,3.9-0.4,7.5,0.4,11.3c4.1,0,8.1,0,12.1,0c3.8,0,7.7-0.1,11.5,0c3.9,0.1,7.9-0.5,12.1,0.4c0,5.7,0,11.2,0,16.7
		c0.2,0,0.4,0.1,0.6,0.1c3.4-8.9,6.8-17.9,10.3-27.1c1.6,1.2,2.8,2.2,4,3.1c5.8,4.4,12,7.7,19.2,9c3.7,0.7,7.3,0.6,10.8-0.8
		c2.6-1.1,4.4-3.1,4.5-6.1c0.1-2.4-2-4.6-5.1-5.5c-1.9-0.5-3.9-0.8-5.9-1.2c-6.2-1.2-12.4-2.2-18.2-4.9c-9.1-4.4-15.7-11-17.3-21.1
		c-2.6-16.5,2.9-30.1,16.4-40.3c2.5-1.9,5.3-3.4,8-5c5.9-2.5,12-4,18.6-5.1c-1.4-2.1-2.5-3.7-3.6-5.3c-3.6-5.4-7.2-10.7-10.7-16.2
		c-1.2-1.8-2.5-3-4.9-1.6c0,9.2,0,18.3,0,27.4c-2.6,0.1-5.2,0.4-7.7-0.2c-0.9-15.9-0.5-62.7,0.6-66.5c6.4,0.1,12.9-0.5,19.3,0.8
		c4.2,0.8,7.9,2.6,10.6,6c8.8,11.1,3.3,27.3-8.3,30.4c-0.8,0.2-1.5,0.6-2.6,1c5.8,8.3,11.5,16.4,17,24.4c7.2,0.3,13.6,1.7,19.8,4.2
		c0.7,0.3,1.6,0.6,2.4,0.1c-0.1,1.6,1.4,1.6,2.3,2c2.4,1.1,4.8,2.3,7.2,4.2c-3.6,9.9-7.3,19.9-10.9,29.7c-1.3,0-2-0.9-2.8-1.4
		c-3.9-2.6-8-4.8-12.6-5.9c-4.3-1.1-8.8-2.3-13.2-0.5c-2.9,1.1-4.3,3-4.3,5.5c0,2.4,1.1,3.7,4.3,4.7c3.7,1.1,7.4,2,11.1,2.8
		c9.8,2.1,18.7,5.8,25.6,13.3c-0.2,5,0.5,10.2-0.4,15.3c-8.4,0-16.3,0-24.6,0c0.1,6.9-0.2,13.6,0.2,20.4c4.6,0,8.5-0.1,12.5,0
		c4.1,0.1,8.2-0.6,12.4,0.5c0,2.7,0,5.2,0,7.7c-4.8,6.2-10.8,11.1-18.1,14.5c0.1,0.3,0.2,0.6,0.3,0.9c5.9,0,11.8,0,17.7,0
		c6.3,0.7,12.5,0.3,19.3,0.3c0-8,0-15.8,0-23.9c4.3,0,8.1,0.1,11.8,0c3.9-0.1,7.9,0.6,11.6-0.4c0-6.7,0-13.2,0-19.8
		c-4-0.9-7.8-0.3-11.6-0.4c-3.8-0.1-7.5,0-11.3,0c-1.1-1.6-0.5-3.3-0.5-4.9c-0.1-7.1-0.2-14.3-0.2-21.5c0.1-14.9,0.2-29.9,0.3-45
		c8.4-0.3,16.4,0.1,25-0.3c-14.6-16-28.7-31.3-43.5-47.5c0,17.3,0,33.4,0,49.9c-2.8,0-5.3,0-7.8,0c0-23,0-46,0-69.8
		c5.8,6.3,11.1,12,16.3,17.8c5.2,5.7,10.3,11.4,15.5,17s10.2,11.4,16.3,17.5c0-17.1,0-33,0-49.2c2.7,0,5.1,0,7.8,0
		c0,4.5,0,8.8,0,13.1s0,8.7,0,13c0,4.2,0,8.3,0,12.5c0,4.3-0.1,8.7,0,13c0.1,4.2-0.6,8.5,0.5,12.8c4.9-0.2,9.5,0.3,14.2-0.3
		C519,45,528.7,22.9,538.8,0.1c10.3,23.5,20.3,46.3,30.4,69.3c-3.1,0.6-5.7,0.4-8.4,0.3c-2.6-5.7-5.1-11.3-7.5-16.6
		c-10,0-19.4,0-29.1,0c-2.3,4.6-4.4,9.3-6,14.1c1,0.9,2.1,0.6,3,0.6c5.2,0.4,10.2,1.3,15.1,3.1c13.2,4.7,21.7,13.7,24.6,27.7
		c0.6,2.9,0.3,5.8,1.1,9.7c3.1-9.1,7.2-16.6,13.2-23.1s13.3-11.1,21.1-15.5c-2.9,0-5.9,0-8.8,0C586.7,58.2,587,6.9,588,3
		c5.4,0.1,10.9-0.2,16.3,0.9c11.2,2.3,17.1,13.1,12.9,23.6c-1.1,2.7-3,4.7-5.3,6.7c7.3,2.4,11,7.4,12.2,14.2s-1.2,12.5-6.6,17.4
		c31-1.4,59.5,15.1,66.7,49.1c0.8-0.1,1-0.8,1.1-1.4c3.5-18.4,14-31.7,30.3-40.5c10.3-5.5,21.5-7.7,33.2-7.3
		c17.3,0.6,32.4,6.6,44.6,19.3c0.6,0.6,0.9,1.4,1.3,2.1c0.3-0.2,0.7-0.3,1-0.5c0-6.2,0-12.4,0-18.8c29.1,0,57.7,0,86.8,0
		c0,7.3,0,14.4,0,21.6c5.1-7.2,11.1-12.9,18.8-16.5c20.8-9.8,40.9-7.8,60.5,3.5c0.4,0.2,0.6,0.8,1,1.3c-3.6,9.7-7.2,19.5-10.9,29.6
		c-1.9-1.2-3.3-2.2-4.9-3.1c-6-3.4-12.3-5.9-19.3-5.7c-2,0.1-4,0.3-5.8,1.4c-1.9,1.1-2.8,2.8-2.7,5c0.1,2.1,1.3,3.4,3.1,4
		c2.2,0.7,4.4,1.4,6.7,1.9c7.4,1.8,15,3.2,21.7,7.1c6.9,4,12,9.4,14.4,17.2c2,6.5,2.2,13.2,0.9,19.8c-2.9,14.9-12.5,24.2-26,29.8
		c-1.4,0.6-2.8,1-4.1,1.6c7.7,0.7,15.2,0.9,22.6,0.6c11.4-0.4,21.8-4,30.7-11.5c6.6-5.5,12.3-11.7,17.3-18.6
		c1.1-1.5,1.8-3.2,3.6-4.4c12.3,2.8,24.7,5.4,37.6,5.8c0-3,0-5.5,0-8c-2.8-0.9-5.6-1.4-8-2.9c-6.4-4-6.6-10.2-0.4-14.4
		c6.1-4.3,17-4.3,23.2,0c0.8,0.6,1.6,1.2,2.2,2c2.6,3,2.6,6.4,0.2,9.5c-1.8,2.3-4.3,3.6-7,4.6c-1.4,0.5-3,0.4-4.2,2
		c0,2.1,0,4.4,0,6.8c-1,0.5-2.1,0-2.8,0.8c10,1.2,30.9,1.2,35.3-0.1c-0.1-3.1-0.3-6.2-0.4-9.3c-2.6-1.3-5.3-1.5-7.6-2.9
		c-6.8-4.1-7.1-10.9-0.2-14.9c7.1-4.1,14.7-4.2,21.9-0.2c6.6,3.7,6.5,10.7,0.1,14.8c-2.3,1.4-4.9,2-7.5,2.8
		c-0.4,3.4-0.1,6.6-0.1,10.2c10.8-0.3,21.2-1.4,31.7-2.4c0.3-3.2,0.5-6.1-0.3-9.2c-3.4-0.6-6.6-1.5-9.2-3.6
		c-4.3-3.4-4.5-8.8-0.4-12.5c6.4-5.6,19.1-5.8,25.6-0.3c4,3.3,4.2,8.1,0.6,11.8c-1.4,1.4-3.1,2.5-5,3.1c-1.5,0.5-3.1,1-4.8,1.6
		c0,2.8-0.5,5.6,0.4,8.3c13.6-1.6,26.9-3.7,40.1-6.2c1.3-0.3,2.6-0.8,3.9,0.6c-0.2,5.9,2.5,11,5.5,16c3.5,5.7,7.1,11.3,10.5,17
		c3.5,5.9,6.1,12.1,7.2,19c0.5,2.8,0.1,5.3-1.2,7.7c-1.3,2.3-2.6,4.7-3.9,7c-2,3.5-1.9,6.9,0.2,10.4c2,3.3,3.8,6.6,5.7,10
		c0,1.9,0,3.7,0,5.6c-1.8,10-6.8,18.6-11.9,27.2c-4.6,7.8-10.3,15.1-9.8,25.3c-15.1-1.8-29.6-4.3-44.6-5.2c0,2-0.3,3.8,0.3,5.3
		c2,0.6,3.8,0.9,5.5,1.6c3.7,1.5,6.9,3.8,7.1,8.1c0.2,4.4-3,6.7-6.4,8.7C1138.3,314.6,1136.5,314.2,1136,316z M597.2,183.2
		c-26.1-10.5-36.9-30.9-37.4-58.7c-4.2,8.5-11.6,12.2-20.3,15.5c5.5,3.6,8.3,8.3,11.2,12.9c5.7,9,11.5,17.9,17.3,26.9
		c1,1.5,1.7,3.2,3.8,4.8c3.8,0,8.1,0,12.4,0c4.3,0,8.7,0.1,13,0.1c0.8,0.3,1.5,0.2,2.4-0.3C598.8,183.9,598.4,183,597.2,183.2z
		 M724.2,185.7c0.8,0.5,1.6,0.2,2.3-0.1c-0.5-1-1.2-1.5-2.3-1.3c-21.9-7.4-34.6-22.8-39.4-45.2c-4.5,22.8-17.9,37.6-39.2,45.8
		c1.1,0.3,2.1,0.3,3.1,0.3c23.1,0.1,46.3,0.2,69.4,0.3C720.2,185.4,722.2,185.6,724.2,185.7z M894.4,185.9c-6.7-2.3-13.6-4-19.9-8
		c4.2-11.1,8.4-22.1,12.6-33.3c4.3,3.7,8.5,6.7,13.2,8.9c5,2.4,10.2,3.9,15.9,3.5c2.4-0.1,4.6-0.7,6.5-2.1c2-1.4,2.8-3.2,2.6-5.6
		c-0.2-2.5-1.7-4-4-4.6c-2.7-0.7-5.5-1.4-8.2-1.9c-6.7-1.3-13.4-2.6-19.4-6c-7.4-4.3-12.5-10.4-14.5-18.8c-0.9-3.9-1.2-7.8-0.8-12.2
		c-6.1-0.2-11.9-1.3-17.8-0.8c-0.8,8.6-0.5,77.4,0.4,81.3c11,0.1,22.2,0.1,33.3,0.2c0.8,0.2,1.6,0.2,2.3-0.2
		C895.9,186,895.2,185.9,894.4,185.9z M643.6,253.4c-5.7-19.5-11.5-38.6-17.3-57.5c-5.3,0-10.1,0-15.2,0
		c-5.4,19.2-11.3,38.1-16.6,57.6c5.1,0.1,9.5,0.4,13.8-0.1c1.7-3.1,1.4-6.7,3.2-9.3c4.9,0,9.5,0,14,0c1.7,3.1,1.4,6.7,3.4,9.4
		C633.7,253.4,638.3,253.4,643.6,253.4z M768.2,128.1c0-5.4-1.1-9.7-3.3-13.4c-7-11.8-23.5-13.6-32.9-3.6
		c-5.5,5.9-6.8,13.2-5.8,20.9c1.2,9.5,7.8,16.4,16.7,18.1c10.1,1.9,18.9-2.9,22.7-10.5C767.4,135.9,768.3,131.9,768.2,128.1z
		 M601.6,127.7c0.1,1.7,0.1,3.3,0.4,5c1.4,9.9,8.6,16.8,19.1,17.8c9.1,0.9,17.8-3.9,21.2-13.2c2.8-7.6,2.4-15-1.5-22.1
		c-6.7-12.3-24.4-14.2-33.5-3.6C603.3,116.2,601.6,121.6,601.6,127.7z M561.6,196c-3.5,12.1-8,23.8-10.9,36.4
		c-3.9-12.6-7.6-24.6-11.3-36.5c-5.4,0-10.2,0-15.4,0c7.1,19.5,14,38.6,21,57.6c4.1,0,7.7,0,11.8,0c6.6-19.1,13.2-38.1,20-57.5
		C571.4,196,566.8,196,561.6,196z M806.6,106.2c4.9,16.6,4.6,32.7-2.6,48.3c-7.3,16-20.3,25.6-36.5,31.3c17.1,0,34.1,0,51.3,0
		c0-27,0-53.7,0-80.3c-1.5-0.8-2.8-0.3-4.1-0.3C812.2,105.2,809.7,105.4,806.6,106.2z M299,253.2c7.2,0.7,25.1,0.5,28.7-0.3
		c0-3.2,0-6.5,0-9.8c-4.9-0.9-9.7,0.4-14.5-0.7c0-4.3-0.4-8.4,0.3-12.8c4.2,0,8.1,0,12.4,0c0-3.7,0.4-7.1-0.2-10.5
		c-4.3-0.5-8.4,0.4-12.3-0.6c0-4.2,0-8.2,0-12.5c4.9,0,9.4,0,14.1,0c0-3.7,0-6.9,0-10.3c-9.6,0-19,0-28.5,0
		C299,215,299,234,299,253.2z M387.3,197.6c-5.8-3-11.9-3.5-18-2.3c-6.9,1.4-11.6,5.7-13.1,12.8c-1.4,6.8,0.7,12.5,6.4,16.7
		c2.8,2.1,5.8,3.8,8.9,5.4c1.6,0.8,3.2,1.7,4.5,3.1c2.9,3.2,2.3,7.1-1.6,9.1c-2.2,1.2-4.7,1.6-7.2,1.2c-2.9-0.5-5.6-1.6-8.9-2.9
		c0.5,4-0.3,7.4,0.6,10.9c6.3,3.1,12.9,3.5,19.4,1.8c7.4-1.9,12.1-6.7,13.3-14.4c1.1-7.3-2.4-12.4-8.3-16.2
		c-2.5-1.6-5.1-3.1-7.6-4.7c-1.7-1.1-3.4-2.2-4.5-3.9c-2.6-3.7-1.1-7.8,3.2-9c2.3-0.6,4.6-0.4,6.9,0.3c2.1,0.6,3.8,1.9,6.1,2.7
		C387.8,204.5,387.9,201.1,387.3,197.6z M240,195.9c0,19.3,0,38.3,0,57.8c4.7-0.3,9.2,0.3,14-0.5c0-7.9,0-15.7,0-23.8
		c4.5,0,8.6,0,12.9,0c0.2-3.8,0.7-7.2-0.2-10.4c-4.3-0.5-8.5,0.4-12.6-0.5c0-4.2-0.4-8.1,0.3-12.4c4.9,0,9.5,0,14.5,0
		c-0.3-3.6,0.4-6.9-0.5-10.1C258.7,195.9,249.4,195.9,240,195.9z M443.3,253.4c0-15.9,0-31.3,0-47.2c3.9,0,7.5,0,11.4,0
		c-0.2-3.7,0.4-7-0.5-10.3c-12.1,0-24,0-36.2,0c0,3.4,0,6.6,0,10c3.6,0.8,7.3-0.3,11,0.8c0,15.6,0,31,0,46.7
		C433.8,253.4,438.2,253.4,443.3,253.4z M685,196c-5,0-9.4,0-13.9,0c0,19.3,0,38.3,0,57.4c9.7,0,19.1,0,29,0
		c-0.3-3.6,0.4-7-0.5-10.5c-4.9-0.2-9.7,0.2-14.6-0.3c0-8.1,0-15.8,0-23.4S685,204,685,196z M482.7,195.6c-0.8,8.6-0.5,54.1,0.4,58
		c2.2,0,4.5,0.1,6.8,0s4.6,0.6,6.7-0.4c0-19.2,0-38.3,0-57.5C491.8,195.4,487.4,195.4,482.7,195.6z M595.7,62.5
		c4.9,0.3,9.4,0.3,13.7-1.2c4.8-1.7,7.3-5.1,7.5-10s-2.1-8.5-6.9-10.4c-4.5-1.7-9.2-2-14.2-1.4C595.7,47.2,595.7,54.6,595.7,62.5z
		 M261.3,62.6c5.2,0.1,9.8,0.3,14.3-1.5c4.6-1.8,6.7-5.1,6.7-10c0-5.1-1.8-8.2-6.5-10.1c-4.6-1.8-9.5-2.3-14.5-1.4
		C261.3,47.4,261.3,54.8,261.3,62.6z M388.1,34.7c4,0.6,7.5,0,10.8-0.8c5.3-1.3,8.1-4.9,8.3-10.3c0.3-5.9-2-9.6-7.4-11.5
		c-3.8-1.4-7.7-1.2-11.8-1.2C388.1,18.9,388.1,26.7,388.1,34.7z M38.1,139.1c0.1,6.9-0.2,13.2,0.2,19.6c3.5,0,6.5,0.1,9.5,0
		c1.5-0.1,3-0.4,4.4-0.7c3.3-0.9,6.1-2.6,6.9-6.3c1.4-6-1.4-10.3-6.9-11.7C47.7,138.8,43.3,139.2,38.1,139.1z M506.4,148.2
		c-0.3,0.1-0.7,0.2-1,0.4c0.2,11.7-0.1,23.4,0.2,35.2c6.2,0,11.8,0,17.7,0C517.5,171.7,511.9,160,506.4,148.2z M550.5,45.6
		c-3.7-9.1-7.2-17.7-11.4-26.9c-3.9,9.4-7.5,18-11.2,26.9C535.7,45.6,542.8,45.6,550.5,45.6z M261.2,32.8c5.6,0.1,10.9,0.3,14.2-4.8
		c2.3-3.5,2.1-10.1-0.5-13.3c-3.6-4.6-8.6-3.9-13.7-3.8C261.2,18.3,261.2,25.3,261.2,32.8z M595.8,32.9c5.6,0,11,0.3,14-4.9
		c2.4-4.2,2.5-9.1-0.4-13.2c-3.4-4.7-8.5-4.1-13.6-3.7C595.8,18.3,595.8,25.3,595.8,32.9z M505.8,119.8c3.6,0.5,7,0.5,10.4-0.7
		c3.9-1.4,5.7-4.2,5.8-8.9c0-5-1.8-7.9-6-9.2c-3.3-1.1-6.7-1.2-10.1-0.5C505.8,107,505.8,113.3,505.8,119.8z M38.4,97.2
		c0,5.7,0,11.1,0,16.4c5.2,0.8,9.1,0.6,11.8-0.6c3.4-1.5,5-4.4,4.7-8.5c-0.3-3.7-1.9-5.6-5.5-6.7C45.8,96.7,42.2,97.2,38.4,97.2z
		 M95.8,180.8c0-4.6,0-9.1,0-14.8c-3.1,6.7-7.1,11.2-13.1,14.8C87.6,180.8,91.6,180.8,95.8,180.8z M361.5,182.9c3.9,0,7.5,0,12.2,0
		c-4.7-1.9-8.4-3.4-12.1-5C360.9,179.6,361,181,361.5,182.9z"/>
	<path class="st0" d="M667.9,69.8c-2.9,0-5.2,0-8,0c0-2.3,0-4.4,0-6.5c0-4.3-0.3-8.7,0.1-13c0.5-6.6-1.2-12.2-4.6-17.8
		c-4.9-8.1-9.3-16.5-13.8-24.8c-0.7-1.3-1.8-2.4-1.8-4.4c2.7,0,5.4,0,8.5,0c5,9,10.1,18.3,15.6,28.2c5.4-9.7,10.5-19,15.7-28.3
		c3,0,5.8,0,8.6,0c-0.1,2-1.2,3.3-2,4.7c-5.5,9.9-10.9,19.8-16.4,29.6c-1.3,2.2-1.9,4.5-1.9,7.1C668,52.9,667.9,61.2,667.9,69.8z"/>
	<path class="st0" d="M623.4,234.6c-3.4,0-6.4,0-9.8,0c1.4-7.7,2.9-15.3,4.3-23c0.2,0,0.4,0,0.6,0
		C620.1,219.2,621.7,226.8,623.4,234.6z"/>
</g>
<g id="Layer_3">
	<path class="st1" d="M1080.8,223.4c-0.3,6.5-0.8,12.3-2.8,17.8c-1,2.8-2.4,5.5-4.2,7.9c-6.8,9.2-20.1,10.4-28.6,2.8
		c-3.3-3-5.6-6.6-6.9-10.8c-3.5-11.4-3.7-22.9-0.3-34.3c0.9-3.2,2.7-6,4.7-8.7c7.3-9.9,24.4-10.8,32.2,1.7c2.6,4.2,4.1,8.7,4.9,13.5
		C1080.3,216.8,1080.5,220.5,1080.8,223.4z M1057.9,206.3c-3.7,1.3-4.3,4.5-4.8,7.6c-1,6.3-0.6,12.6,0.1,18.9
		c0.3,2.3,0.8,4.6,2.1,6.6c1.5,2.1,3.7,2.2,5.5,0.3c1-1,1.4-2.3,1.7-3.5c0.4-2.1,0.7-4.2,1-6.4c0.7-5.7,0.3-11.3-0.7-16.9
		C1062.3,210.2,1061.6,207.2,1057.9,206.3z"/>
	<path class="st1" d="M1013.9,241.9c2.7,0.7,5.2-0.8,7.8-0.8c2,0,3.9,0,6.1,0c0,5.2,0,10.2,0,15.5c-14.2,0-28.3,0-42.5,0
		c-0.1-1.5,1.1-2.3,1.8-3.3c5.8-8.1,11.7-16.2,17.5-24.3c2.3-3.2,4.4-6.7,6-10.3c1.5-3.3,1.9-6.7,1.5-10.2c-0.3-2.6-1.7-4-3.7-4
		c-2.1,0-3.3,1.3-3.7,3.4c-0.2,1.1-0.5,2.3-0.6,3.4c-0.1,1,0,2,0,3.1c-2.6,0.9-5.3,0.4-7.9,0.5c-2.6,0.1-5.3,0-7.8,0
		c-2.9-9.5,4.5-23.3,18.1-24.4c15-1.1,25,11.1,22,26.9c-1.5,8-6.1,14.3-11.2,20.3C1016.2,239.2,1014.5,240.2,1013.9,241.9
		c-0.2,0.2-1,0.2-0.2,0.7C1014,242.8,1014.2,242.3,1013.9,241.9z"/>
	<path class="st1" d="M1179.8,223.4c-0.3,6.5-0.8,12.3-2.8,17.8c-1,2.8-2.4,5.5-4.2,7.9c-6.8,9.2-20.1,10.4-28.6,2.8
		c-3.3-3-5.6-6.6-6.9-10.8c-3.5-11.4-3.7-22.9-0.3-34.3c0.9-3.2,2.7-6,4.7-8.7c7.3-9.9,24.4-10.8,32.2,1.7c2.6,4.2,4.1,8.7,4.9,13.5
		C1179.3,216.8,1179.5,220.5,1179.8,223.4z M1156.9,206.3c-3.7,1.3-4.3,4.5-4.8,7.6c-1,6.3-0.6,12.6,0.1,18.9
		c0.3,2.3,0.8,4.6,2.1,6.6c1.5,2.1,3.7,2.2,5.5,0.3c1-1,1.4-2.3,1.7-3.5c0.4-2.1,0.7-4.2,1-6.4c0.7-5.7,0.3-11.3-0.7-16.9
		C1161.3,210.2,1160.6,207.2,1156.9,206.3z"/>
	<path class="st1" d="M1112.9,241.9c2.7,0.7,5.2-0.8,7.8-0.8c2,0,3.9,0,6.1,0c0,5.2,0,10.2,0,15.5c-14.2,0-28.3,0-42.5,0
		c-0.1-1.5,1.1-2.3,1.8-3.3c5.8-8.1,11.7-16.2,17.5-24.3c2.3-3.2,4.4-6.7,6-10.3c1.5-3.3,1.9-6.7,1.5-10.2c-0.3-2.6-1.7-4-3.7-4
		c-2.1,0-3.3,1.3-3.7,3.4c-0.2,1.1-0.5,2.3-0.6,3.4c-0.1,1,0,2,0,3.1c-2.6,0.9-5.3,0.4-7.9,0.5s-5.3,0-7.8,0
		c-2.9-9.5,4.5-23.3,18.1-24.4c15-1.1,25,11.1,22,26.9c-1.5,8-6.1,14.3-11.2,20.3C1115.2,239.2,1113.5,240.2,1112.9,241.9
		c-0.2,0.2-1,0.2-0.2,0.7C1113,242.8,1113.2,242.3,1112.9,241.9z"/>
	<path class="st1" d="M643.6,253.4c-5.3,0-9.9,0-14.7,0c-2-2.7-1.7-6.3-3.4-9.4c-4.5,0-9.1,0-14,0c-1.9,2.5-1.5,6.1-3.2,9.3
		c-4.3,0.6-8.7,0.3-13.8,0.1c5.3-19.5,11.1-38.4,16.6-57.6c5.1,0,9.9,0,15.2,0C632.1,214.8,637.9,233.9,643.6,253.4z M623.4,234.6
		c-1.7-7.9-3.3-15.4-4.9-23c-0.2,0-0.4,0-0.6,0c-1.4,7.6-2.8,15.3-4.3,23C617,234.6,620,234.6,623.4,234.6z"/>
	<path class="st1" d="M561.6,196c5.2,0,9.8,0,15.1,0c-6.8,19.4-13.4,38.4-20,57.5c-4,0-7.7,0-11.8,0c-6.9-19-13.9-38.1-21-57.6
		c5.2,0,10,0,15.4,0c3.7,12,7.4,23.9,11.3,36.5C553.6,219.7,558.1,208.1,561.6,196z"/>
	<path class="st1" d="M299,253.2c0-19.3,0-38.2,0-57.5c9.5,0,18.9,0,28.5,0c0,3.4,0,6.6,0,10.3c-4.7,0-9.2,0-14.1,0
		c0,4.3,0,8.2,0,12.5c3.8,0.9,8,0,12.3,0.6c0.6,3.5,0.3,6.8,0.2,10.5c-4.3,0-8.2,0-12.4,0c-0.7,4.4-0.3,8.5-0.3,12.8
		c4.8,1.1,9.6-0.1,14.5,0.7c0,3.3,0,6.6,0,9.8C324.1,253.8,306.1,254,299,253.2z"/>
	<path class="st1" d="M387.3,197.6c0.5,3.5,0.4,6.9,0.1,10.7c-2.3-0.8-4.1-2.2-6.1-2.7c-2.3-0.6-4.6-0.9-6.9-0.3
		c-4.3,1.2-5.8,5.3-3.2,9c1.2,1.7,2.8,2.8,4.5,3.9c2.5,1.6,5.1,3.1,7.6,4.7c5.9,3.8,9.5,8.9,8.3,16.2c-1.2,7.7-5.9,12.5-13.3,14.4
		c-6.6,1.7-13.1,1.3-19.4-1.8c-0.9-3.5-0.1-7-0.6-10.9c3.3,1.3,6,2.4,8.9,2.9c2.6,0.4,5,0,7.2-1.2c3.8-2,4.4-5.9,1.6-9.1
		c-1.2-1.4-2.9-2.3-4.5-3.1c-3.1-1.6-6.1-3.3-8.9-5.4c-5.7-4.2-7.8-9.9-6.4-16.7c1.5-7,6.2-11.4,13.1-12.8
		C375.5,194,381.6,194.5,387.3,197.6z"/>
	<path class="st1" d="M240,195.9c9.4,0,18.7,0,28.2,0c1,3.2,0.3,6.4,0.5,10.1c-4.9,0-9.5,0-14.5,0c-0.6,4.3-0.3,8.2-0.3,12.4
		c4.1,0.9,8.3,0.1,12.6,0.5c0.9,3.3,0.4,6.7,0.2,10.4c-4.3,0-8.4,0-12.9,0c0,8.1,0,15.9,0,23.8c-4.8,0.8-9.2,0.2-14,0.5
		C240,234.2,240,215.2,240,195.9z"/>
	<path class="st1" d="M443.3,253.4c-5.1,0-9.6,0-14.3,0c0-15.7,0-31.1,0-46.7c-3.7-1.1-7.4,0-11-0.8c0-3.4,0-6.7,0-10
		c12.2,0,24.1,0,36.2,0c0.9,3.3,0.3,6.5,0.5,10.3c-3.9,0-7.5,0-11.4,0C443.3,222.1,443.3,237.5,443.3,253.4z"/>
	<path class="st1" d="M685,196c0,8,0,15.6,0,23.3s0,15.3,0,23.4c4.9,0.4,9.6,0,14.6,0.3c0.9,3.5,0.2,6.9,0.5,10.5
		c-9.9,0-19.3,0-29,0c0-19.1,0-38.2,0-57.4C675.6,196,680,196,685,196z"/>
	<path class="st1" d="M482.7,195.6c4.7-0.2,9.2-0.3,13.9,0.1c0,19.2,0,38.3,0,57.5c-2.1,1-4.4,0.2-6.7,0.4c-2.3,0.1-4.6,0-6.8,0
		C482.2,249.8,481.9,204.3,482.7,195.6z"/>
</g>
<g id="Layer_2">
	<path class="st2" d="M445.9,124.2c0-3.6,0-7.2,0-11.3c6.7,0,12.9,0,19.1,0c0.1,7.2,0.1,14.3,0.2,21.5c0,1.6-0.5,3.3,0.5,4.9
		c3.8,0,7.6-0.1,11.3,0c3.8,0.1,7.6-0.5,11.6,0.4c0,6.6,0,13,0,19.8c-3.8,0.9-7.7,0.2-11.6,0.4c-3.8,0.1-7.6,0-11.8,0
		c0,8.1,0,15.8,0,23.9c-6.7,0-13,0.4-19.3-0.3c0-5.1,0-10.3,0-15.4c0-2.5,0-5,0-7.7c-4.2-1.1-8.3-0.4-12.4-0.5c-4-0.1-7.9,0-12.5,0
		c-0.4-6.8-0.1-13.5-0.2-20.4c8.4,0,16.3,0,24.6,0C446.3,134.4,445.6,129.3,445.9,124.2z"/>
</g>
</svg>
