<?xml version="1.0" encoding="utf-8"?>
<!-- Generator: Adobe Illustrator 22.0.0, SVG Export Plug-In . SVG Version: 6.00 Build 0)  -->
<svg version="1.1" id="Layer_1" xmlns="http://www.w3.org/2000/svg" xmlns:xlink="http://www.w3.org/1999/xlink" x="0px" y="0px"
	 width="1200px" height="316px" viewBox="0 0 1200 316" style="enable-background:new 0 0 1200 316;" xml:space="preserve">
<style type="text/css">
	.st0{fill:#252122;}
	.st1{fill:#FDFDFD;}
	.st2{fill:#F9D85F;}
</style>
<g id="Uo7Xtb.tif">
	<g>
		<path class="st0" d="M1136,316c-4,0-8,0-12,0c-1.1-1.7-3.2-1.8-4.8-2.8c-6.6-4-6.9-10.4-0.5-14.7c2.4-1.6,5.1-2.2,8.2-3.2
			c-0.3-1.9,0.3-3.8-0.7-6.1c-10.5-0.3-21-1.7-31.6-1c-0.3,2.6,0.2,4.7,0.4,6.9c1.7,0.5,3.3,0.9,4.8,1.4c4.1,1.5,7.8,3.9,7.9,8.6
			c0.1,4.5-3.5,6.8-7.2,8.7c-1.2,0.6-3,0.2-3.5,2c-3.3,0-6.7,0-10,0c-0.8-1.8-2.8-1.2-4.2-1.9c-3.5-1.8-6.8-3.9-6.9-8.3
			c-0.1-4.7,3.4-6.8,7-8.7c1.8-0.9,3.9-0.6,5.6-2.1c0-2.3,0.6-4.5-0.5-6.8c-10.7-0.1-21.2,0.2-31.6,1.5c-0.1,2-0.4,3.7,0.4,5.5
			c2.9,0.9,6,1.4,8.6,3.3c5.3,3.9,5.4,9.6,0.1,13.6c-2.3,1.7-5,2.6-7.7,3.2c-2.9,0-5.7,0-8.6,0c-3.3-0.6-6.4-1.8-8.9-4.2
			c-3.5-3.4-3.5-7.6-0.1-11c2.4-2.5,5.5-3.7,8.8-4.4c0.4-0.1,0.8-0.6,1.4-1c-0.4-1.3,0.4-2.8-0.6-4.5c-6.2,0.8-12.4,1.7-18.6,2.8
			c-6.3,1.1-12.5,3-18.9,4.3c-1.2-1.5-2.2-2.8-3.2-4.1c-6.5-8.5-13.9-16.1-23.2-21.8c-6.9-4.3-14.3-6.6-22.7-6.4
			c-27.8,0.4-55.6,0.5-83.5,0.8c-46,0.4-92,0.3-138,0.9c-47.3,0.6-94.6,0.7-142,1.1c-47.8,0.4-95.6,0.3-143.5,1
			c-45.8,0.7-91.6,0.3-137.5,1c-48.8,0.7-97.6,0.4-146.5,1c-40.8,0.5-81.6,0.6-122.5,0.9c-16.7,0.1-33.3,0.3-50,0.5
			c0-68,0-136,0-204c0.9,0.7,1.9,0.5,2.9,0.5c4.5,0,9,0,13.5,0c13,0.1,26-0.3,39,0.3c6.7,0.4,13.2,1.5,19.4,4.1
			c9.3,3.9,15,10.8,17,20.6c0.9,4.6,1,9.3,0.1,13.9c-1.5,7.5-5.3,13.6-12.4,17.1c-0.7,0.3-1.7,0.4-1.3,1.8
			c7.7,2.8,13.6,7.9,17.7,15.4c0.4-24.7,0.4-49.2,0.4-73.7c0-0.1,0.1-0.3,0.2-0.4c0.1-0.1,0.2-0.2,0.4-0.3
			c13.2-0.7,36.5-0.4,40.2,0.5c0,0.2,0.1,0.3,0.1,0.5c0,25.7,0.1,51.3,0.1,77c0,0.5,0.1,1,0.2,1.5c0,0.1,0.2,0.3,0.3,0.4
			c0.1,0.1,0.2,0.2,0.5,0.6c5.5,0,11.1-0.1,16.8,0c5.6,0.1,11.2-0.4,17.1,0.3c0,11.2,0,22.2,0,33.4c8.5,0,16.6,0,24.8,0
			c-0.1-1-0.8-1.3-1.4-1.6c-7.7-4.4-13-10.8-16.4-18.8c-3-7.1-4.2-14.7-4.2-22.4c0-22.7,0-45.3,0-68c0-1.1-0.4-2.3,0.6-3.2
			c13.5,0,26.9,0,40.6,0c0,1.9,0,3.6,0,5.2c0,20.5,0,41,0,61.5c0,3,0,6,0.8,8.9c1.6,5.4,5.3,8,11.3,7.6c5.8-0.4,9-3.2,9.9-8.7
			c0.5-3.1,0.7-6.3,0.7-9.5c0-20.2,0-40.3,0-60.5c0-1.6-0.6-3.3,1-5c4.2,0,8.6,0,13.4,0c0-21.4,0-42.5,0-63.9
			c6.4-0.3,12.3-0.4,18.2,1c8.3,2,12.6,7.6,13,16.1c0.2,5.7-1.8,10.3-6.4,13.9c7.5,3.1,11.5,8,12.2,14.7c0.9,8.5-2.4,14.9-10.2,18.9
			c0,1.8,0,3.4,0,5.1c0,20.8,0,41.7,0,62.5c0,4.5-0.2,9-0.9,13.4c-2.2,13.5-8.2,24.5-20.4,31.5c-0.5,0.3-1.6,0.5-1.3,1.7
			c8.6,0,17.3,0,26.4,0c0-38.3,0-76.3,0-114.8c12,0,23.6,0,35.5,0c-7.3-8.1-9.2-12.9-9.2-23.4c0-12.2,0-24.3,0-36.5
			c0-1.3-0.4-2.7,0.6-4.1c2.3,0,4.7-0.3,7.4,0.2c0,1.8,0,3.5,0,5.1c0,11.7,0,23.3,0,35c0,3.7,0.6,7.3,1.8,10.8
			c2.1,5.9,6.5,9.4,13.8,9.3c7.1-0.1,11.2-3.3,13.4-9.2c1.3-3.6,1.9-7.4,1.9-11.3c0-12,0-24,0-36c0-1.3-0.5-2.7,0.7-4
			c2.3,0.1,4.7-0.4,7.2,0.4c0,15,0.2,29.8-0.1,44.6c-0.1,6.1-2.3,11.7-6.6,16.3c-0.7,0.8-2,1.1-1.9,2.9c3.8,0,7.6,0,11.4,0
			c0,10.9,0,21.5,0,32.4c-4.1,0-7.9,0-11.7,0c-3.8,0-7.7-0.1-11.5,0c-3.7,0.1-7.5-0.4-11.5,0.4c0.2,3.8-0.4,7.2,0.5,10.9
			c10.4,0,20.7,0,31.1,0c0,10.4,0,20.4,0,30.8c-10.6,0-20.8,0-31.5,0c0.1,3.9-0.4,7.5,0.4,11.3c4.1,0,8.1,0,12.1,0
			c3.8,0,7.7-0.1,11.5,0c3.9,0.1,7.9-0.5,12.1,0.4c0,5.7,0,11.2,0,16.7c0.2,0,0.4,0.1,0.6,0.1c3.4-8.9,6.8-17.9,10.3-27.1
			c1.6,1.2,2.8,2.2,4,3.1c5.8,4.4,12,7.7,19.2,9c3.7,0.7,7.3,0.6,10.8-0.8c2.6-1.1,4.4-3.1,4.5-6.1c0.1-2.4-2-4.6-5.1-5.5
			c-1.9-0.5-3.9-0.8-5.9-1.2c-6.2-1.2-12.4-2.2-18.2-4.9c-9.1-4.4-15.7-11-17.3-21.1c-2.6-16.5,2.9-30.1,16.4-40.3
			c2.5-1.9,5.3-3.4,8-5c5.9-2.5,12-4,18.6-5.1c-1.4-2.1-2.5-3.7-3.6-5.3c-3.6-5.4-7.2-10.7-10.7-16.2c-1.2-1.8-2.5-3-4.9-1.6
			c0,9.2,0,18.3,0,27.4c-2.6,0.1-5.2,0.4-7.7-0.2c-0.9-15.9-0.5-62.7,0.6-66.5c6.4,0.1,12.9-0.5,19.3,0.8c4.2,0.8,7.9,2.6,10.6,6
			c8.8,11.1,3.3,27.3-8.3,30.4c-0.8,0.2-1.5,0.6-2.6,1c5.8,8.3,11.5,16.4,17,24.4c7.2,0.3,13.6,1.7,19.8,4.2
			c0.7,0.3,1.6,0.6,2.4,0.1c-0.1,1.6,1.4,1.6,2.3,2c2.4,1.1,4.8,2.3,7.2,4.2c-3.6,9.9-7.3,19.9-10.9,29.7c-1.3,0-2-0.9-2.8-1.4
			c-3.9-2.6-8-4.8-12.6-5.9c-4.3-1.1-8.8-2.3-13.2-0.5c-2.9,1.1-4.3,3-4.3,5.5c0,2.4,1.1,3.7,4.3,4.7c3.7,1.1,7.4,2,11.1,2.8
			c9.8,2.1,18.7,5.8,25.6,13.3c-0.2,5,0.5,10.2-0.4,15.3c-8.4,0-16.3,0-24.6,0c0.1,6.9-0.2,13.6,0.2,20.4c4.6,0,8.5-0.1,12.5,0
			c4.1,0.1,8.2-0.6,12.4,0.5c0,2.7,0,5.2,0,7.7c-4.8,6.2-10.8,11.1-18.1,14.5c0.1,0.3,0.2,0.6,0.3,0.9c5.9,0,11.8,0,17.7,0
			c6.3,0.7,12.5,0.3,19.3,0.3c0-8,0-15.8,0-23.9c4.3,0,8.1,0.1,11.8,0c3.9-0.1,7.9,0.6,11.6-0.4c0-6.7,0-13.2,0-19.8
			c-4-0.9-7.8-0.3-11.6-0.4c-3.8-0.1-7.5,0-11.3,0c-1.1-1.6-0.5-3.3-0.5-4.9c-0.1-7.1-0.2-14.3-0.2-21.5c0.1-14.9,0.2-29.9,0.3-45
			c8.4-0.3,16.4,0.1,25-0.3c-14.6-16-28.7-31.3-43.5-47.5c0,17.3,0,33.4,0,49.9c-2.8,0-5.3,0-7.8,0c0-23,0-46,0-69.8
			c5.8,6.3,11.1,12,16.3,17.8c5.2,5.7,10.3,11.4,15.5,17c5.2,5.6,10.2,11.4,16.3,17.5c0-17.1,0-33,0-49.2c2.7,0,5.1,0,7.8,0
			c0,4.5,0,8.8,0,13.1c0,4.3,0,8.7,0,13c0,4.2,0,8.3,0,12.5c0,4.3-0.1,8.7,0,13c0.1,4.2-0.6,8.5,0.5,12.8c4.9-0.2,9.5,0.3,14.2-0.3
			c9.8-22.3,19.5-44.4,29.6-67.2c10.3,23.5,20.3,46.3,30.4,69.3c-3.1,0.6-5.7,0.4-8.4,0.3c-2.6-5.7-5.1-11.3-7.5-16.6
			c-10,0-19.4,0-29.1,0c-2.3,4.6-4.4,9.3-6,14.1c1,0.9,2.1,0.6,3,0.6c5.2,0.4,10.2,1.3,15.1,3.1c13.2,4.7,21.7,13.7,24.6,27.7
			c0.6,2.9,0.3,5.8,1.1,9.7c3.1-9.1,7.2-16.6,13.2-23.1c6-6.5,13.3-11.1,21.1-15.5c-2.9,0-5.9,0-8.8,0c-0.8-11.5-0.5-62.8,0.5-66.7
			c5.4,0.1,10.9-0.2,16.3,0.9c11.2,2.3,17.1,13.1,12.9,23.6c-1.1,2.7-3,4.7-5.3,6.7c7.3,2.4,11,7.4,12.2,14.2
			c1.2,6.8-1.2,12.5-6.6,17.4c31-1.4,59.5,15.1,66.7,49.1c0.8-0.1,1-0.8,1.1-1.4c3.5-18.4,14-31.7,30.3-40.5
			c10.3-5.5,21.5-7.7,33.2-7.3c17.3,0.6,32.4,6.6,44.6,19.3c0.6,0.6,0.9,1.4,1.3,2.1c0.3-0.2,0.7-0.3,1-0.5c0-6.2,0-12.4,0-18.8
			c29.1,0,57.7,0,86.8,0c0,7.3,0,14.4,0,21.6c5.1-7.2,11.1-12.9,18.8-16.5c20.8-9.8,40.9-7.8,60.5,3.5c0.4,0.2,0.6,0.8,1,1.3
			c-3.6,9.7-7.2,19.5-10.9,29.6c-1.9-1.2-3.3-2.2-4.9-3.1c-6-3.4-12.3-5.9-19.3-5.7c-2,0.1-4,0.3-5.8,1.4c-1.9,1.1-2.8,2.8-2.7,5
			c0.1,2.1,1.3,3.4,3.1,4c2.2,0.7,4.4,1.4,6.7,1.9c7.4,1.8,15,3.2,21.7,7.1c6.9,4,12,9.4,14.4,17.2c2,6.5,2.2,13.2,0.9,19.8
			c-2.9,14.9-12.5,24.2-26,29.8c-1.4,0.6-2.8,1-4.1,1.6c7.7,0.7,15.2,0.9,22.6,0.6c11.4-0.4,21.8-4,30.7-11.5
			c6.6-5.5,12.3-11.7,17.3-18.6c1.1-1.5,1.8-3.2,3.6-4.4c12.3,2.8,24.7,5.4,37.6,5.8c0-3,0-5.5,0-8c-2.8-0.9-5.6-1.4-8-2.9
			c-6.4-4-6.6-10.2-0.4-14.4c6.1-4.3,17-4.3,23.2,0c0.8,0.6,1.6,1.2,2.2,2c2.6,3,2.6,6.4,0.2,9.5c-1.8,2.3-4.3,3.6-7,4.6
			c-1.4,0.5-3,0.4-4.2,2c0,2.1,0,4.4,0,6.8c-1,0.5-2.1,0-2.8,0.8c10,1.2,30.9,1.2,35.3-0.1c-0.1-3.1-0.3-6.2-0.4-9.3
			c-2.6-1.3-5.3-1.5-7.6-2.9c-6.8-4.1-7.1-10.9-0.2-14.9c7.1-4.1,14.7-4.2,21.9-0.2c6.6,3.7,6.5,10.7,0.1,14.8
			c-2.3,1.4-4.9,2-7.5,2.8c-0.4,3.4-0.1,6.6-0.1,10.2c10.8-0.3,21.2-1.4,31.7-2.4c0.3-3.2,0.5-6.1-0.3-9.2c-3.4-0.6-6.6-1.5-9.2-3.6
			c-4.3-3.4-4.5-8.8-0.4-12.5c6.4-5.6,19.1-5.8,25.6-0.3c4,3.3,4.2,8.1,0.6,11.8c-1.4,1.4-3.1,2.5-5,3.1c-1.5,0.5-3.1,1-4.8,1.6
			c0,2.8-0.5,5.6,0.4,8.3c13.6-1.6,26.9-3.7,40.1-6.2c1.3-0.3,2.6-0.8,3.9,0.6c-0.2,5.9,2.5,11,5.5,16c3.5,5.7,7.1,11.3,10.5,17
			c3.5,5.9,6.1,12.1,7.2,19c0.5,2.8,0.1,5.3-1.2,7.7c-1.3,2.3-2.6,4.7-3.9,7c-2,3.5-1.9,6.9,0.2,10.4c2,3.3,3.8,6.6,5.7,10
			c0,1.9,0,3.7,0,5.6c-1.8,10-6.8,18.6-11.9,27.2c-4.6,7.8-10.3,15.1-9.8,25.3c-15.1-1.8-29.6-4.3-44.6-5.2c0,2-0.3,3.8,0.3,5.3
			c2,0.6,3.8,0.9,5.5,1.6c3.7,1.5,6.9,3.8,7.1,8.1c0.2,4.4-3,6.7-6.4,8.7C1138.3,314.6,1136.5,314.2,1136,316z M597.2,183.2
			c-26.1-10.5-36.9-30.9-37.4-58.7c-4.2,8.5-11.6,12.2-20.3,15.5c5.5,3.6,8.3,8.3,11.2,12.9c5.7,9,11.5,17.9,17.3,26.9
			c1,1.5,1.7,3.2,3.8,4.8c3.8,0,8.1,0,12.4,0c4.3,0,8.7,0.1,13,0.1c0.8,0.3,1.5,0.2,2.4-0.3C598.8,183.9,598.4,183,597.2,183.2z
			 M724.2,185.7c0.8,0.5,1.6,0.2,2.3-0.1c-0.5-1-1.2-1.5-2.3-1.3c-21.9-7.4-34.6-22.8-39.4-45.2c-4.5,22.8-17.9,37.6-39.2,45.8
			c1.1,0.3,2.1,0.3,3.1,0.3c23.1,0.1,46.3,0.2,69.4,0.3C720.2,185.4,722.2,185.6,724.2,185.7z M894.4,185.9c-6.7-2.3-13.6-4-19.9-8
			c4.2-11.1,8.4-22.1,12.6-33.3c4.3,3.7,8.5,6.7,13.2,8.9c5,2.4,10.2,3.9,15.9,3.5c2.4-0.1,4.6-0.7,6.5-2.1c2-1.4,2.8-3.2,2.6-5.6
			c-0.2-2.5-1.7-4-4-4.6c-2.7-0.7-5.5-1.4-8.2-1.9c-6.7-1.3-13.4-2.6-19.4-6c-7.4-4.3-12.5-10.4-14.5-18.8
			c-0.9-3.9-1.2-7.8-0.8-12.2c-6.1-0.2-11.9-1.3-17.8-0.8c-0.8,8.6-0.5,77.4,0.4,81.3c11,0.1,22.2,0.1,33.3,0.2
			c0.8,0.2,1.6,0.2,2.3-0.2C895.9,186,895.2,185.9,894.4,185.9z M643.6,253.4c-5.7-19.5-11.5-38.6-17.3-57.5c-5.3,0-10.1,0-15.2,0
			c-5.4,19.2-11.3,38.1-16.6,57.6c5.1,0.1,9.5,0.4,13.8-0.1c1.7-3.1,1.4-6.7,3.2-9.3c4.9,0,9.5,0,14,0c1.7,3.1,1.4,6.7,3.4,9.4
			C633.7,253.4,638.3,253.4,643.6,253.4z M768.2,128.1c0-5.4-1.1-9.7-3.3-13.4c-7-11.8-23.5-13.6-32.9-3.6
			c-5.5,5.9-6.8,13.2-5.8,20.9c1.2,9.5,7.8,16.4,16.7,18.1c10.1,1.9,18.9-2.9,22.7-10.5C767.4,135.9,768.3,131.9,768.2,128.1z
			 M601.6,127.7c0.1,1.7,0.1,3.3,0.4,5c1.4,9.9,8.6,16.8,19.1,17.8c9.1,0.9,17.8-3.9,21.2-13.2c2.8-7.6,2.4-15-1.5-22.1
			c-6.7-12.3-24.4-14.2-33.5-3.6C603.3,116.2,601.6,121.6,601.6,127.7z M561.6,196c-3.5,12.1-8,23.8-10.9,36.4
			c-3.9-12.6-7.6-24.6-11.3-36.5c-5.4,0-10.2,0-15.4,0c7.1,19.5,14,38.6,21,57.6c4.1,0,7.7,0,11.8,0c6.6-19.1,13.2-38.1,20-57.5
			C571.4,196,566.8,196,561.6,196z M806.6,106.2c4.9,16.6,4.6,32.7-2.6,48.3c-7.3,16-20.3,25.6-36.5,31.3c17.1,0,34.1,0,51.3,0
			c0-27,0-53.7,0-80.3c-1.5-0.8-2.8-0.3-4.1-0.3C812.2,105.2,809.7,105.4,806.6,106.2z M299,253.2c7.2,0.7,25.1,0.5,28.7-0.3
			c0-3.2,0-6.5,0-9.8c-4.9-0.9-9.7,0.4-14.5-0.7c0-4.3-0.4-8.4,0.3-12.8c4.2,0,8.1,0,12.4,0c0-3.7,0.4-7.1-0.2-10.5
			c-4.3-0.5-8.4,0.4-12.3-0.6c0-4.2,0-8.2,0-12.5c4.9,0,9.4,0,14.1,0c0-3.7,0-6.9,0-10.3c-9.6,0-19,0-28.5,0
			C299,215,299,234,299,253.2z M387.3,197.6c-5.8-3-11.9-3.5-18-2.3c-6.9,1.4-11.6,5.7-13.1,12.8c-1.4,6.8,0.7,12.5,6.4,16.7
			c2.8,2.1,5.8,3.8,8.9,5.4c1.6,0.8,3.2,1.7,4.5,3.1c2.9,3.2,2.3,7.1-1.6,9.1c-2.2,1.2-4.7,1.6-7.2,1.2c-2.9-0.5-5.6-1.6-8.9-2.9
			c0.5,4-0.3,7.4,0.6,10.9c6.3,3.1,12.9,3.5,19.4,1.8c7.4-1.9,12.1-6.7,13.3-14.4c1.1-7.3-2.4-12.4-8.3-16.2
			c-2.5-1.6-5.1-3.1-7.6-4.7c-1.7-1.1-3.4-2.2-4.5-3.9c-2.6-3.7-1.1-7.8,3.2-9c2.3-0.6,4.6-0.4,6.9,0.3c2.1,0.6,3.8,1.9,6.1,2.7
			C387.8,204.5,387.9,201.1,387.3,197.6z M240,195.9c0,19.3,0,38.3,0,57.8c4.7-0.3,9.2,0.3,14-0.5c0-7.9,0-15.7,0-23.8
			c4.5,0,8.6,0,12.9,0c0.2-3.8,0.7-7.2-0.2-10.4c-4.3-0.5-8.5,0.4-12.6-0.5c0-4.2-0.4-8.1,0.3-12.4c4.9,0,9.5,0,14.5,0
			c-0.3-3.6,0.4-6.9-0.5-10.1C258.7,195.9,249.4,195.9,240,195.9z M443.3,253.4c0-15.9,0-31.3,0-47.2c3.9,0,7.5,0,11.4,0
			c-0.2-3.7,0.4-7-0.5-10.3c-12.1,0-24,0-36.2,0c0,3.4,0,6.6,0,10c3.6,0.8,7.3-0.3,11,0.8c0,15.6,0,31,0,46.7
			C433.8,253.4,438.2,253.4,443.3,253.4z M685,196c-5,0-9.4,0-13.9,0c0,19.3,0,38.3,0,57.4c9.7,0,19.1,0,29,0
			c-0.3-3.6,0.4-7-0.5-10.5c-4.9-0.2-9.7,0.2-14.6-0.3c0-8.1,0-15.8,0-23.4C685,211.6,685,204,685,196z M482.7,195.6
			c-0.8,8.6-0.5,54.1,0.4,58c2.2,0,4.5,0.1,6.8,0c2.3-0.1,4.6,0.6,6.7-0.4c0-19.2,0-38.3,0-57.5
			C491.8,195.4,487.4,195.4,482.7,195.6z M595.7,62.5c4.9,0.3,9.4,0.3,13.7-1.2c4.8-1.7,7.3-5.1,7.5-10c0.2-4.9-2.1-8.5-6.9-10.4
			c-4.5-1.7-9.2-2-14.2-1.4C595.7,47.2,595.7,54.6,595.7,62.5z M261.3,62.6c5.2,0.1,9.8,0.3,14.3-1.5c4.6-1.8,6.7-5.1,6.7-10
			c0-5.1-1.8-8.2-6.5-10.1c-4.6-1.8-9.5-2.3-14.5-1.4C261.3,47.4,261.3,54.8,261.3,62.6z M388.1,34.7c4,0.6,7.5,0,10.8-0.8
			c5.3-1.3,8.1-4.9,8.3-10.3c0.3-5.9-2-9.6-7.4-11.5c-3.8-1.4-7.7-1.2-11.8-1.2C388.1,18.9,388.1,26.7,388.1,34.7z M38.1,139.1
			c0.1,6.9-0.2,13.2,0.2,19.6c3.5,0,6.5,0.1,9.5,0c1.5-0.1,3-0.4,4.4-0.7c3.3-0.9,6.1-2.6,6.9-6.3c1.4-6-1.4-10.3-6.9-11.7
			C47.7,138.8,43.3,139.2,38.1,139.1z M506.4,148.2c-0.3,0.1-0.7,0.2-1,0.4c0.2,11.7-0.1,23.4,0.2,35.2c6.2,0,11.8,0,17.7,0
			C517.5,171.7,511.9,160,506.4,148.2z M550.5,45.6c-3.7-9.1-7.2-17.7-11.4-26.9c-3.9,9.4-7.5,18-11.2,26.9
			C535.7,45.6,542.8,45.6,550.5,45.6z M261.2,32.8c5.6,0.1,10.9,0.3,14.2-4.8c2.3-3.5,2.1-10.1-0.5-13.3c-3.6-4.6-8.6-3.9-13.7-3.8
			C261.2,18.3,261.2,25.3,261.2,32.8z M595.8,32.9c5.6,0,11,0.3,14-4.9c2.4-4.2,2.5-9.1-0.4-13.2c-3.4-4.7-8.5-4.1-13.6-3.7
			C595.8,18.3,595.8,25.3,595.8,32.9z M505.8,119.8c3.6,0.5,7,0.5,10.4-0.7c3.9-1.4,5.7-4.2,5.8-8.9c0-5-1.8-7.9-6-9.2
			c-3.3-1.1-6.7-1.2-10.1-0.5C505.8,107,505.8,113.3,505.8,119.8z M38.4,97.2c0,5.7,0,11.1,0,16.4c5.2,0.8,9.1,0.6,11.8-0.6
			c3.4-1.5,5-4.4,4.7-8.5c-0.3-3.7-1.9-5.6-5.5-6.7C45.8,96.7,42.2,97.2,38.4,97.2z M95.8,180.8c0-4.6,0-9.1,0-14.8
			c-3.1,6.7-7.1,11.2-13.1,14.8C87.6,180.8,91.6,180.8,95.8,180.8z M361.5,182.9c3.9,0,7.5,0,12.2,0c-4.7-1.9-8.4-3.4-12.1-5
			C360.9,179.6,361,181,361.5,182.9z"/>
		<path class="st1" d="M1199.3,237.2c-1.9-3.3-3.7-6.7-5.7-10c-2.1-3.5-2.2-6.9-0.2-10.4c1.3-2.3,2.6-4.6,3.9-7
			c1.3-2.4,1.7-4.9,1.2-7.7c-1.1-6.8-3.7-13.1-7.2-19c-3.4-5.7-7-11.3-10.5-17c-3.1-5-5.7-10.1-5.5-16c-1.3-1.3-2.6-0.8-3.9-0.6
			c-13.2,2.5-26.5,4.6-40.1,6.2c-0.9-2.7-0.4-5.5-0.4-8.3c1.7-0.6,3.3-1,4.8-1.6c1.9-0.7,3.6-1.7,5-3.1c3.6-3.6,3.4-8.4-0.6-11.8
			c-6.5-5.5-19.2-5.4-25.6,0.3c-4.1,3.6-3.9,9,0.4,12.5c2.7,2.1,5.9,3,9.2,3.6c0.8,3,0.6,5.9,0.3,9.2c-10.6,1-20.9,2.1-31.7,2.4
			c-0.1-3.6-0.4-6.9,0.1-10.2c2.6-0.8,5.2-1.4,7.5-2.8c6.4-4.1,6.5-11-0.1-14.8c-7.2-4.1-14.7-4-21.9,0.2c-6.9,4-6.7,10.8,0.2,14.9
			c2.3,1.4,5,1.7,7.6,2.9c0.1,3.1,0.3,6.2,0.4,9.3c-4.4,1.3-25.3,1.3-35.3,0.1c0.7-0.8,1.8-0.3,2.8-0.8c0-2.4,0-4.7,0-6.8
			c1.2-1.5,2.8-1.5,4.2-2c2.7-0.9,5.2-2.3,7-4.6c2.5-3.1,2.4-6.5-0.2-9.5c-0.6-0.7-1.4-1.4-2.2-2c-6.1-4.3-17.1-4.3-23.2,0
			c-6.2,4.3-6,10.4,0.4,14.4c2.4,1.5,5.2,2,8,2.9c0,2.5,0,5,0,8c-12.8-0.5-25.3-3-37.6-5.8c-1.8,1.2-2.5,2.9-3.6,4.4
			c-5,6.9-10.7,13.2-17.3,18.6c-8.9,7.4-19.3,11-30.7,11.5c-7.5,0.3-15,0.1-22.6-0.6c1.4-0.5,2.8-1,4.1-1.6
			c13.6-5.7,23.1-14.9,26-29.8c1.3-6.6,1.1-13.3-0.9-19.8c-2.4-7.7-7.5-13.2-14.4-17.2c-6.7-3.9-14.3-5.3-21.7-7.1
			c-2.3-0.5-4.5-1.2-6.7-1.9c-1.9-0.6-3.1-1.9-3.1-4c-0.1-2.2,0.9-3.8,2.7-5c1.8-1.1,3.7-1.3,5.8-1.4c7.1-0.2,13.4,2.2,19.3,5.7
			c1.6,0.9,3,1.9,4.9,3.1c3.7-10.1,7.3-19.9,10.9-29.6c-0.4-0.5-0.6-1.1-1-1.3c-19.6-11.3-39.7-13.3-60.5-3.5
			c-7.7,3.6-13.7,9.3-18.8,16.5c0-7.1,0-14.3,0-21.6c-29.1,0-57.7,0-86.8,0c0,6.3,0,12.5,0,18.8c-0.3,0.2-0.7,0.3-1,0.5
			c-0.4-0.7-0.8-1.5-1.3-2.1c-12.1-12.7-27.2-18.6-44.6-19.3c-11.7-0.4-22.9,1.7-33.2,7.3c-16.3,8.7-26.8,22-30.3,40.5
			c-0.1,0.7-0.3,1.3-1.1,1.4C677.6,80.9,649,64.4,618,65.9c5.4-4.9,7.8-10.6,6.6-17.4c-1.2-6.9-5-11.8-12.2-14.2
			c2.3-2.1,4.3-4.1,5.3-6.7c4.2-10.5-1.7-21.2-12.9-23.6c-5.4-1.1-10.9-0.8-16.3-0.9c-1,3.9-1.3,55.2-0.5,66.7c2.9,0,5.8,0,8.8,0
			c-7.7,4.5-15.1,9-21.1,15.5c-6,6.4-10,14-13.2,23.1c-0.8-3.9-0.5-6.8-1.1-9.7c-2.9-14-11.4-22.9-24.6-27.7
			c-4.9-1.7-9.9-2.7-15.1-3.1c-1-0.1-2,0.2-3-0.6c1.6-4.8,3.8-9.4,6-14.1c9.6,0,19.1,0,29.1,0c2.4,5.3,4.9,10.9,7.5,16.6
			c2.7,0.1,5.3,0.3,8.4-0.3c-10.1-23-20.1-45.7-30.4-69.3c-10,22.8-19.8,44.9-29.6,67.2c-4.7,0.6-9.3,0.1-14.2,0.3
			c-1-4.3-0.4-8.6-0.5-12.8c-0.1-4.3,0-8.7,0-13c0-4.2,0-8.3,0-12.5c0-4.3,0-8.7,0-13c0-4.3,0-8.6,0-13.1c-2.8,0-5.2,0-7.8,0
			c0,16.1,0,32.1,0,49.2c-6.1-6.1-11.1-12-16.3-17.5c-5.2-5.6-10.3-11.3-15.5-17c-5.3-5.7-10.5-11.5-16.3-17.8c0,23.9,0,46.8,0,69.8
			l0.1-0.1c-0.8,0.5-1.6,0.2-2.4-0.1c-6.2-2.4-12.7-3.9-19.8-4.2c-5.5-8-11.2-16.1-17-24.4c1-0.4,1.8-0.8,2.6-1
			c11.5-3,17-19.3,8.3-30.4c-2.7-3.4-6.4-5.2-10.6-6c-6.4-1.3-12.9-0.7-19.3-0.8c-1.1,3.9-1.5,50.6-0.6,66.5
			c2.5,0.7,5.1,0.3,7.7,0.2c0.2,0.2,0.4,0.5,0.6,0.7c-2.7,1.7-5.5,3.1-8,5c-13.5,10.1-19,23.7-16.4,40.3
			c1.6,10.1,8.2,16.8,17.3,21.1c5.8,2.8,12,3.7,18.2,4.9c2,0.4,3.9,0.6,5.9,1.2c3.1,0.9,5.1,3,5.1,5.5c-0.1,3-1.8,5-4.5,6.1
			c-3.5,1.5-7.1,1.5-10.8,0.8c-7.2-1.3-13.4-4.7-19.2-9c-1.2-0.9-2.4-1.8-4-3.1c-3.5,9.2-6.9,18.1-10.3,27.1c-0.2,0-0.4-0.1-0.6-0.1
			c0-5.5,0-11,0-16.7c-4.2-1-8.2-0.3-12.1-0.4c-3.8-0.1-7.7,0-11.5,0c-4,0-8,0-12.1,0c-0.8-3.8-0.3-7.4-0.4-11.3
			c10.7,0,20.9,0,31.5,0c0-10.4,0-20.4,0-30.8c-10.4,0-20.6,0-31.1,0c-0.9-3.7-0.3-7.1-0.5-10.9c3.9-0.8,7.7-0.3,11.5-0.4
			c3.8-0.1,7.7,0,11.5,0c3.8,0,7.6,0,11.7,0c0-10.9,0-21.5,0-32.4c-3.8,0-7.6,0-11.4,0c-0.1-1.8,1.2-2.1,1.9-2.9
			c4.2-4.6,6.5-10.2,6.6-16.3c0.3-14.8,0.1-29.6,0.1-44.6c-2.5-0.8-4.9-0.3-7.2-0.4c-1.2,1.4-0.7,2.8-0.7,4c0,12,0,24,0,36
			c0,3.9-0.5,7.6-1.9,11.3c-2.2,5.9-6.3,9.1-13.4,9.2c-7.4,0.1-11.7-3.4-13.8-9.3c-1.2-3.5-1.8-7.1-1.8-10.8c0-11.7,0-23.3,0-35
			c0-1.6,0-3.3,0-5.1c-2.7-0.5-5.1-0.3-7.4-0.2c-1,1.5-0.6,2.9-0.6,4.1c0,12.2,0,24.3,0,36.5c0,10.5,1.9,15.3,9.2,23.4
			c-11.9,0-23.5,0-35.5,0c0,38.5,0,76.6,0,114.8c-9.1,0-17.7,0-26.4,0c-0.3-1.3,0.7-1.4,1.3-1.7c12.2-7,18.2-18.1,20.4-31.5
			c0.7-4.4,1-8.9,0.9-13.4c-0.1-20.8,0-41.7,0-62.5c0-1.7,0-3.3,0-5.1c7.9-4,11.1-10.3,10.2-18.9c-0.7-6.7-4.7-11.6-12.2-14.7
			c4.6-3.6,6.6-8.2,6.4-13.9c-0.3-8.5-4.7-14.1-13-16.1c-5.9-1.4-11.8-1.3-18.2-1c0,21.4,0,42.4,0,63.9c-4.8,0-9.2,0-13.4,0
			c-1.6,1.7-0.9,3.5-1,5c0,20.2-0.1,40.3,0,60.5c0,3.2-0.3,6.3-0.7,9.5c-0.8,5.5-4.1,8.3-9.9,8.7c-6,0.4-9.7-2.2-11.3-7.6
			c-0.8-2.9-0.8-5.9-0.8-8.9c0-20.5,0-41,0-61.5c0-1.6,0-3.3,0-5.2c-13.7,0-27.1,0-40.6,0c-1,0.9-0.6,2.1-0.6,3.2
			c0,22.7,0,45.3,0,68c0,7.7,1.2,15.3,4.2,22.4c3.4,8,8.7,14.5,16.4,18.8c0.6,0.3,1.2,0.6,1.4,1.6c-8.2,0-16.3,0-24.8,0
			c0-11.2,0-22.2,0-33.4c-5.9-0.7-11.5-0.2-17.1-0.3c-5.7-0.1-11.3,0-16.8,0c-0.3-0.3-0.4-0.4-0.5-0.6c-0.1-0.1-0.2-0.3-0.3-0.4
			c-0.1-0.5-0.2-1-0.2-1.5c0-25.7-0.1-51.3-0.1-77c0-0.2-0.1-0.3-0.1-0.5c-3.7-0.9-27-1.2-40.2-0.5c-0.1,0.1-0.3,0.2-0.4,0.3
			c-0.1,0.1-0.2,0.3-0.2,0.4c0,24.5,0,49-0.4,73.7c-4.1-7.5-10.1-12.6-17.7-15.4c-0.4-1.4,0.7-1.5,1.3-1.8
			c7.2-3.5,10.9-9.6,12.4-17.1c0.9-4.6,0.8-9.3-0.1-13.9c-1.9-9.9-7.6-16.8-17-20.6c-6.2-2.6-12.7-3.7-19.4-4.1
			c-13-0.7-26-0.2-39-0.3c-4.5,0-9,0-13.5,0c-1,0-2,0.2-2.9-0.5C0,45.3,0,22.7,0,0c400,0,800,0,1200,0c0,79,0,158,0,237
			C1199.7,237,1199.5,237,1199.3,237.2z M667.9,69.8c0-8.7,0.1-16.9,0-25.2c0-2.6,0.6-4.8,1.9-7.1c5.5-9.8,11-19.7,16.4-29.6
			c0.8-1.4,1.9-2.7,2-4.7c-2.8,0-5.6,0-8.6,0c-5.1,9.3-10.3,18.6-15.7,28.3c-5.5-9.9-10.6-19.2-15.6-28.2c-3.1,0-5.8,0-8.5,0
			c0,1.9,1.1,3.1,1.8,4.4c4.6,8.3,8.9,16.7,13.8,24.8c3.4,5.6,5.2,11.3,4.6,17.8c-0.4,4.3-0.1,8.6-0.1,13c0,2.1,0,4.2,0,6.5
			C662.7,69.8,665,69.8,667.9,69.8z"/>
		<path class="st1" d="M0,272c16.7-0.2,33.3-0.4,50-0.5c40.8-0.3,81.6-0.4,122.5-0.9c48.8-0.6,97.6-0.3,146.5-1
			c45.8-0.6,91.6-0.3,137.5-1c47.8-0.7,95.6-0.5,143.5-1c47.3-0.4,94.6-0.5,142-1.1c46-0.6,92-0.5,138-0.9
			c27.8-0.3,55.7-0.3,83.5-0.8c8.3-0.1,15.7,2.2,22.7,6.4c9.2,5.7,16.6,13.2,23.2,21.8c1,1.3,2,2.6,3.2,4.1
			c6.3-1.4,12.5-3.2,18.9-4.3c6.2-1.1,12.4-2.1,18.6-2.8c1,1.6,0.2,3.1,0.6,4.5c-0.6,0.5-0.9,0.9-1.4,1c-3.3,0.8-6.4,2-8.8,4.4
			c-3.3,3.5-3.3,7.7,0.1,11c2.5,2.4,5.6,3.6,8.9,4.2c-0.1,0.3-0.1,0.5-0.2,0.8c-349.7,0-699.3,0-1049,0C0,301.3,0,286.7,0,272z"/>
		<path class="st1" d="M1136,316c0.5-1.8,2.3-1.4,3.4-2.1c3.4-2,6.7-4.2,6.4-8.7c-0.2-4.4-3.5-6.6-7.1-8.1c-1.7-0.7-3.5-1-5.5-1.6
			c-0.7-1.6-0.4-3.3-0.3-5.3c15,0.9,29.6,3.4,44.6,5.2c-0.5-10.2,5.2-17.6,9.8-25.3c5.1-8.6,10.1-17.2,11.9-27.2
			c0.2,0.1,0.5,0.2,0.8,0.2c0,24.3,0,48.7,0,73C1178.7,316,1157.3,316,1136,316z"/>
		<path class="st1" d="M1057.8,315.2c2.8-0.6,5.4-1.5,7.7-3.2c5.3-4,5.2-9.7-0.1-13.6c-2.6-1.9-5.7-2.4-8.6-3.3
			c-0.8-1.8-0.5-3.4-0.4-5.5c10.5-1.3,21-1.6,31.6-1.5c1.1,2.3,0.5,4.6,0.5,6.8c-1.7,1.5-3.8,1.2-5.6,2.1c-3.7,1.9-7.1,4.1-7,8.7
			c0.1,4.4,3.4,6.5,6.9,8.3c1.4,0.7,3.3,0.2,4.2,1.9c-9.7,0-19.3,0-29,0C1057.9,315.7,1057.8,315.5,1057.8,315.2z"/>
		<path class="st1" d="M1097,316c0.5-1.8,2.3-1.4,3.5-2c3.7-1.9,7.3-4.2,7.2-8.7c-0.1-4.7-3.7-7.1-7.9-8.6c-1.5-0.6-3.1-0.9-4.8-1.4
			c-0.2-2.2-0.7-4.3-0.4-6.9c10.5-0.7,21,0.8,31.6,1c1.1,2.2,0.4,4.1,0.7,6.1c-3.1,0.9-5.8,1.6-8.2,3.2c-6.4,4.3-6.2,10.7,0.5,14.7
			c1.6,1,3.7,1,4.8,2.8C1115,316,1106,316,1097,316z"/>
		<path class="st2" d="M1057.8,315.2c0,0.3,0.1,0.5,0.2,0.8c-3,0-6,0-9,0c0.1-0.3,0.2-0.5,0.2-0.8
			C1052.1,315.2,1054.9,315.2,1057.8,315.2z"/>
		<path class="st2" d="M1200,243c-0.3,0-0.5-0.1-0.8-0.2c0-1.9,0-3.7,0-5.6c0.2-0.2,0.5-0.2,0.7-0.2C1200,239,1200,241,1200,243z"/>
		<path class="st1" d="M445.9,124.2c-7-7.5-15.9-11.2-25.6-13.3c-3.7-0.8-7.4-1.7-11.1-2.8c-3.3-1-4.3-2.3-4.3-4.7
			c0-2.5,1.4-4.3,4.3-5.5c4.5-1.8,8.9-0.6,13.2,0.5c4.5,1.2,8.6,3.3,12.6,5.9c0.8,0.5,1.5,1.4,2.8,1.4c3.6-9.9,7.3-19.8,10.9-29.7
			c-2.4-1.9-4.8-3.1-7.2-4.2c-0.9-0.4-2.4-0.3-2.3-2L439,70c2.5,0,4.9,0,7.8,0c0-16.4,0-32.5,0-49.9c14.8,16.2,28.9,31.5,43.5,47.5
			c-8.7,0.4-16.7,0-25,0.3c-0.1,15.1-0.2,30.1-0.3,45c-6.2,0-12.4,0-19.1,0C445.9,117.1,445.9,120.6,445.9,124.2z"/>
		<path class="st2" d="M445.9,124.2c0-3.6,0-7.2,0-11.3c6.7,0,12.9,0,19.1,0c0.1,7.2,0.1,14.3,0.2,21.5c0,1.6-0.5,3.3,0.5,4.9
			c3.8,0,7.6-0.1,11.3,0c3.8,0.1,7.6-0.5,11.6,0.4c0,6.6,0,13,0,19.8c-3.8,0.9-7.7,0.2-11.6,0.4c-3.8,0.1-7.6,0-11.8,0
			c0,8.1,0,15.8,0,23.9c-6.7,0-13,0.4-19.3-0.3c0-5.1,0-10.3,0-15.4c0-2.5,0-5,0-7.7c-4.2-1.1-8.3-0.4-12.4-0.5c-4-0.1-7.9,0-12.5,0
			c-0.4-6.8-0.1-13.5-0.2-20.4c8.4,0,16.3,0,24.6,0C446.3,134.4,445.6,129.3,445.9,124.2z"/>
		<path class="st1" d="M894.2,186.8c-11.1-0.1-22.3-0.1-33.3-0.2c-0.9-3.9-1.2-72.7-0.4-81.3c5.9-0.5,11.7,0.7,17.8,0.8
			c-0.4,4.3-0.1,8.3,0.8,12.2c2,8.4,7.1,14.5,14.5,18.8c6,3.4,12.7,4.8,19.4,6c2.8,0.5,5.5,1.2,8.2,1.9c2.3,0.6,3.7,2.1,4,4.6
			c0.2,2.4-0.6,4.2-2.6,5.6c-2,1.4-4.2,2-6.5,2.1c-5.6,0.3-10.9-1.1-15.9-3.5c-4.7-2.3-8.9-5.2-13.2-8.9
			c-4.2,11.2-8.4,22.1-12.6,33.3c6.4,4,13.3,5.7,19.9,8C894.1,186.2,894.1,186.5,894.2,186.8z"/>
		<path class="st1" d="M643.6,253.4c-5.3,0-9.9,0-14.7,0c-2-2.7-1.7-6.3-3.4-9.4c-4.5,0-9.1,0-14,0c-1.9,2.5-1.5,6.1-3.2,9.3
			c-4.3,0.6-8.7,0.3-13.8,0.1c5.3-19.5,11.1-38.4,16.6-57.6c5.1,0,9.9,0,15.2,0C632.1,214.8,637.9,233.9,643.6,253.4z M623.4,234.6
			c-1.7-7.9-3.3-15.4-4.9-23c-0.2,0-0.4,0-0.6,0c-1.4,7.6-2.8,15.3-4.3,23C617,234.6,620,234.6,623.4,234.6z"/>
		<path class="st1" d="M768.2,128.1c0.1,3.7-0.7,7.8-2.6,11.5c-3.8,7.5-12.7,12.4-22.7,10.5c-8.9-1.7-15.5-8.6-16.7-18.1
			c-1-7.7,0.3-14.9,5.8-20.9c9.4-10,25.9-8.2,32.9,3.6C767,118.4,768.1,122.8,768.2,128.1z"/>
		<path class="st1" d="M601.6,127.7c0-6.1,1.7-11.5,5.7-16.1c9.1-10.5,26.7-8.7,33.5,3.6c3.9,7.1,4.3,14.5,1.5,22.1
			c-3.4,9.2-12,14-21.2,13.2c-10.6-1-17.8-7.9-19.1-17.8C601.8,131,601.7,129.4,601.6,127.7z"/>
		<path class="st1" d="M561.6,196c5.2,0,9.8,0,15.1,0c-6.8,19.4-13.4,38.4-20,57.5c-4,0-7.7,0-11.8,0c-6.9-19-13.9-38.1-21-57.6
			c5.2,0,10,0,15.4,0c3.7,12,7.4,23.9,11.3,36.5C553.6,219.7,558.1,208.1,561.6,196z"/>
		<path class="st1" d="M806.6,106.2c3.1-0.8,5.6-1,8.1-1c1.3,0,2.6-0.5,4.1,0.3c0,26.6,0,53.3,0,80.3c-17.1,0-34.2,0-51.3,0
			c16.3-5.7,29.2-15.4,36.5-31.3C811.2,138.9,811.5,122.8,806.6,106.2z"/>
		<path class="st1" d="M299,253.2c0-19.3,0-38.2,0-57.5c9.5,0,18.9,0,28.5,0c0,3.4,0,6.6,0,10.3c-4.7,0-9.2,0-14.1,0
			c0,4.3,0,8.2,0,12.5c3.8,0.9,8,0,12.3,0.6c0.6,3.5,0.3,6.8,0.2,10.5c-4.3,0-8.2,0-12.4,0c-0.7,4.4-0.3,8.5-0.3,12.8
			c4.8,1.1,9.6-0.1,14.5,0.7c0,3.3,0,6.6,0,9.8C324.1,253.8,306.1,254,299,253.2z"/>
		<path class="st1" d="M387.3,197.6c0.5,3.5,0.4,6.9,0.1,10.7c-2.3-0.8-4.1-2.2-6.1-2.7c-2.3-0.6-4.6-0.9-6.9-0.3
			c-4.3,1.2-5.8,5.3-3.2,9c1.2,1.7,2.8,2.8,4.5,3.9c2.5,1.6,5.1,3.1,7.6,4.7c5.9,3.8,9.5,8.9,8.3,16.2c-1.2,7.7-5.9,12.5-13.3,14.4
			c-6.6,1.7-13.1,1.3-19.4-1.8c-0.9-3.5-0.1-7-0.6-10.9c3.3,1.3,6,2.4,8.9,2.9c2.6,0.4,5,0,7.2-1.2c3.8-2,4.4-5.9,1.6-9.1
			c-1.2-1.4-2.9-2.3-4.5-3.1c-3.1-1.6-6.1-3.3-8.9-5.4c-5.7-4.2-7.8-9.9-6.4-16.7c1.5-7,6.2-11.4,13.1-12.8
			C375.5,194,381.6,194.5,387.3,197.6z"/>
		<path class="st1" d="M724.2,185.7c-2-0.1-4-0.3-6-0.3c-23.1-0.1-46.3-0.2-69.4-0.3c-1,0-2,0-3.1-0.3c21.3-8.1,34.7-23,39.2-45.8
			c4.8,22.5,17.5,37.9,39.4,45.2C724.2,184.7,724.2,185.2,724.2,185.7z"/>
		<path class="st1" d="M240,195.9c9.4,0,18.7,0,28.2,0c1,3.2,0.3,6.4,0.5,10.1c-4.9,0-9.5,0-14.5,0c-0.6,4.3-0.3,8.2-0.3,12.4
			c4.1,0.9,8.3,0.1,12.6,0.5c0.9,3.3,0.4,6.7,0.2,10.4c-4.3,0-8.4,0-12.9,0c0,8.1,0,15.9,0,23.8c-4.8,0.8-9.2,0.2-14,0.5
			C240,234.2,240,215.2,240,195.9z"/>
		<path class="st1" d="M443.3,253.4c-5.1,0-9.6,0-14.3,0c0-15.7,0-31.1,0-46.7c-3.7-1.1-7.4,0-11-0.8c0-3.4,0-6.7,0-10
			c12.2,0,24.1,0,36.2,0c0.9,3.3,0.3,6.5,0.5,10.3c-3.9,0-7.5,0-11.4,0C443.3,222.1,443.3,237.5,443.3,253.4z"/>
		<path class="st1" d="M685,196c0,8,0,15.6,0,23.3c0,7.7,0,15.3,0,23.4c4.9,0.4,9.6,0,14.6,0.3c0.9,3.5,0.2,6.9,0.5,10.5
			c-9.9,0-19.3,0-29,0c0-19.1,0-38.2,0-57.4C675.6,196,680,196,685,196z"/>
		<path class="st1" d="M482.7,195.6c4.7-0.2,9.2-0.3,13.9,0.1c0,19.2,0,38.3,0,57.5c-2.1,1-4.4,0.2-6.7,0.4c-2.3,0.1-4.6,0-6.8,0
			C482.2,249.8,481.9,204.3,482.7,195.6z"/>
		<path class="st1" d="M597.2,184.7c-4.3,0-8.7-0.1-13-0.1c-4.3,0-8.6,0-12.4,0c-2.1-1.6-2.8-3.3-3.8-4.8
			c-5.8-8.9-11.5-17.9-17.3-26.9c-2.9-4.6-5.7-9.3-11.2-12.9c8.7-3.3,16.1-7,20.3-15.5c0.5,27.8,11.3,48.2,37.4,58.7
			C597.2,183.7,597.2,184.2,597.2,184.7z"/>
		<path class="st1" d="M595.7,62.5c0-7.9,0-15.3,0-22.9c5-0.6,9.7-0.3,14.2,1.4c4.8,1.9,7.1,5.5,6.9,10.4c-0.2,4.9-2.7,8.3-7.5,10
			C605.1,62.9,600.6,62.8,595.7,62.5z"/>
		<path class="st1" d="M261.3,62.6c0-7.8,0-15.2,0-22.9c4.9-0.9,9.8-0.4,14.5,1.4c4.7,1.8,6.5,5,6.5,10.1c0,4.8-2.1,8.2-6.7,10
			C271.1,62.9,266.5,62.7,261.3,62.6z"/>
		<path class="st1" d="M388.1,34.7c0-8,0-15.7,0-23.9c4.1,0,8-0.2,11.8,1.2c5.3,2,7.6,5.6,7.4,11.5c-0.3,5.4-3,9-8.3,10.3
			C395.6,34.7,392.2,35.2,388.1,34.7z"/>
		<path class="st1" d="M38.1,139.1c5.2,0.1,9.6-0.3,14,0.8c5.6,1.4,8.3,5.7,6.9,11.7c-0.8,3.7-3.6,5.4-6.9,6.3
			c-1.4,0.4-2.9,0.7-4.4,0.7c-3,0.1-5.9,0-9.5,0C38,152.3,38.3,146,38.1,139.1z"/>
		<path class="st1" d="M506.4,148.2c5.6,11.7,11.2,23.5,16.9,35.6c-5.9,0-11.5,0-17.7,0c-0.3-11.8,0-23.5-0.2-35.2
			C505.7,148.5,506,148.4,506.4,148.2z"/>
		<path class="st1" d="M550.5,45.6c-7.7,0-14.8,0-22.6,0c3.7-8.9,7.3-17.5,11.2-26.9C543.2,27.8,546.8,36.5,550.5,45.6z"/>
		<path class="st1" d="M261.2,32.8c0-7.5,0-14.5,0-21.9c5.1-0.1,10.1-0.8,13.7,3.8c2.5,3.2,2.8,9.8,0.5,13.3
			C272.1,33,266.9,32.9,261.2,32.8z"/>
		<path class="st1" d="M387.9,69.9c0-9.1,0-18.2,0-27.4c2.4-1.4,3.7-0.3,4.9,1.6c3.5,5.4,7.2,10.8,10.7,16.2
			c1.1,1.6,2.2,3.3,3.6,5.3c-6.6,1.1-12.7,2.6-18.6,5.1C388.3,70.4,388.1,70.1,387.9,69.9z"/>
		<path class="st1" d="M595.8,32.9c0-7.6,0-14.5,0-21.9c5.1-0.4,10.2-0.9,13.6,3.7c3,4.1,2.8,9,0.4,13.2
			C606.9,33.2,601.4,32.8,595.8,32.9z"/>
		<path class="st1" d="M505.8,119.8c0-6.5,0-12.8,0-19.3c3.4-0.8,6.8-0.6,10.1,0.5c4.2,1.4,6,4.3,6,9.2c0,4.7-1.8,7.5-5.8,8.9
			C512.8,120.3,509.4,120.3,505.8,119.8z"/>
		<path class="st1" d="M38.4,97.2c3.8,0,7.4-0.5,10.9,0.6c3.6,1.1,5.2,3.1,5.5,6.7c0.3,4-1.3,6.9-4.7,8.5c-2.6,1.2-6.5,1.4-11.8,0.6
			C38.4,108.3,38.4,102.9,38.4,97.2z"/>
		<path class="st1" d="M445.9,168.1c0,5.1,0,10.3,0,15.4c-5.9,0-11.8,0-17.7,0c-0.1-0.3-0.2-0.6-0.3-0.9
			C435.1,179.2,441.1,174.4,445.9,168.1z"/>
		<path class="st1" d="M95.8,180.8c-4.2,0-8.2,0-13.1,0c6.1-3.6,10-8.1,13.1-14.8C95.8,171.7,95.8,176.2,95.8,180.8z"/>
		<path class="st1" d="M361.5,182.9c-0.5-1.9-0.6-3.3,0.1-5c3.7,1.5,7.4,3,12.1,5C369,182.9,365.4,182.9,361.5,182.9z"/>
		<path class="st2" d="M724.2,185.7c0-0.5,0-1,0.1-1.5c1.1-0.2,1.8,0.4,2.3,1.3C725.7,185.9,725,186.2,724.2,185.7z"/>
		<path class="st2" d="M597.2,184.7c0-0.5,0-1,0-1.5c1.2-0.2,1.6,0.7,2.4,1.3C598.7,185,598,185.1,597.2,184.7z"/>
		<path class="st2" d="M894.2,186.8c-0.1-0.3-0.1-0.6,0.2-0.9c0.8,0,1.5,0.1,2.1,0.7C895.8,187,895,187,894.2,186.8z"/>
		<path class="st0" d="M667.9,69.8c-2.9,0-5.2,0-8,0c0-2.3,0-4.4,0-6.5c0-4.3-0.3-8.7,0.1-13c0.5-6.6-1.2-12.2-4.6-17.8
			c-4.9-8.1-9.3-16.5-13.8-24.8c-0.7-1.3-1.8-2.4-1.8-4.4c2.7,0,5.4,0,8.5,0c5,9,10.1,18.3,15.6,28.2c5.4-9.7,10.5-19,15.7-28.3
			c3,0,5.8,0,8.6,0c-0.1,2-1.2,3.3-2,4.7c-5.5,9.9-10.9,19.8-16.4,29.6c-1.3,2.2-1.9,4.5-1.9,7.1C668,52.9,667.9,61.2,667.9,69.8z"
			/>
		<path class="st0" d="M1152.1,237.9c0,1.5-0.2,3.3-1.5,4.8c-1.6,1.9-3.9,1.9-5.6,0.1c-2.3-2.6-2.2-8.1,0.2-10.7
			c1.8-1.9,4.4-1.7,5.9,0.6C1151.9,233.9,1152.1,235.2,1152.1,237.9z"/>
		<path class="st0" d="M1151.7,210.8c-0.1,3.8-1.7,6.2-3.9,6.1c-2-0.1-3.5-2.1-3.7-5.2c-0.1-1.3,0-2.6,0.6-3.9
			c0.7-1.5,1.5-2.7,3.3-2.6c1.6,0.1,2.7,1.2,3.1,2.8C1151.4,209.1,1151.6,210.2,1151.7,210.8z"/>
		<path class="st0" d="M1066.9,207.3c3.7,0.9,4.4,3.9,4.9,6.6c1,5.6,1.4,11.2,0.7,16.9c-0.3,2.1-0.6,4.3-1,6.4
			c-0.3,1.3-0.8,2.5-1.7,3.5c-1.8,1.9-4,1.8-5.5-0.3c-1.4-1.9-1.9-4.3-2.1-6.6c-0.7-6.3-1.1-12.6-0.1-18.9
			C1062.6,211.8,1063.1,208.6,1066.9,207.3z"/>
		<path class="st0" d="M1022.9,242.9c0.3,0.3,0.1,0.8-0.2,0.7C1021.9,243.1,1022.7,243.2,1022.9,242.9L1022.9,242.9z"/>
		<path class="st0" d="M623.4,234.6c-3.4,0-6.4,0-9.8,0c1.4-7.7,2.9-15.3,4.3-23c0.2,0,0.4,0,0.6,0
			C620.1,219.2,621.7,226.8,623.4,234.6z"/>
	</g>
</g>
<path class="st1" d="M1080.8,223.4c-0.3,6.5-0.8,12.3-2.8,17.8c-1,2.8-2.4,5.5-4.2,7.9c-6.8,9.2-20.1,10.4-28.6,2.8
	c-3.3-3-5.6-6.6-6.9-10.8c-3.5-11.4-3.7-22.9-0.3-34.3c0.9-3.2,2.7-6,4.7-8.7c7.3-9.9,24.4-10.8,32.2,1.7c2.6,4.2,4.1,8.7,4.9,13.5
	C1080.3,216.8,1080.5,220.5,1080.8,223.4z M1057.9,206.3c-3.7,1.3-4.3,4.5-4.8,7.6c-1,6.3-0.6,12.6,0.1,18.9
	c0.3,2.3,0.8,4.6,2.1,6.6c1.5,2.1,3.7,2.2,5.5,0.3c1-1,1.4-2.3,1.7-3.5c0.4-2.1,0.7-4.2,1-6.4c0.7-5.7,0.3-11.3-0.7-16.9
	C1062.3,210.2,1061.6,207.2,1057.9,206.3z"/>
<path class="st1" d="M1013.9,241.9c2.7,0.7,5.2-0.8,7.8-0.8c2,0,3.9,0,6.1,0c0,5.2,0,10.2,0,15.5c-14.2,0-28.3,0-42.5,0
	c-0.1-1.5,1.1-2.3,1.8-3.3c5.8-8.1,11.7-16.2,17.5-24.3c2.3-3.2,4.4-6.7,6-10.3c1.5-3.3,1.9-6.7,1.5-10.2c-0.3-2.6-1.7-4-3.7-4
	c-2.1,0-3.3,1.3-3.7,3.4c-0.2,1.1-0.5,2.3-0.6,3.4c-0.1,1,0,2,0,3.1c-2.6,0.9-5.3,0.4-7.9,0.5c-2.6,0.1-5.3,0-7.8,0
	c-2.9-9.5,4.5-23.3,18.1-24.4c15-1.1,25,11.1,22,26.9c-1.5,8-6.1,14.3-11.2,20.3C1016.2,239.2,1014.5,240.2,1013.9,241.9
	c-0.2,0.2-1,0.2-0.2,0.7C1014,242.8,1014.2,242.3,1013.9,241.9z"/>
<path class="st1" d="M1179.8,223.4c-0.3,6.5-0.8,12.3-2.8,17.8c-1,2.8-2.4,5.5-4.2,7.9c-6.8,9.2-20.1,10.4-28.6,2.8
	c-3.3-3-5.6-6.6-6.9-10.8c-3.5-11.4-3.7-22.9-0.3-34.3c0.9-3.2,2.7-6,4.7-8.7c7.3-9.9,24.4-10.8,32.2,1.7c2.6,4.2,4.1,8.7,4.9,13.5
	C1179.3,216.8,1179.5,220.5,1179.8,223.4z M1156.9,206.3c-3.7,1.3-4.3,4.5-4.8,7.6c-1,6.3-0.6,12.6,0.1,18.9
	c0.3,2.3,0.8,4.6,2.1,6.6c1.5,2.1,3.7,2.2,5.5,0.3c1-1,1.4-2.3,1.7-3.5c0.4-2.1,0.7-4.2,1-6.4c0.7-5.7,0.3-11.3-0.7-16.9
	C1161.3,210.2,1160.6,207.2,1156.9,206.3z"/>
<path class="st1" d="M1112.9,241.9c2.7,0.7,5.2-0.8,7.8-0.8c2,0,3.9,0,6.1,0c0,5.2,0,10.2,0,15.5c-14.2,0-28.3,0-42.5,0
	c-0.1-1.5,1.1-2.3,1.8-3.3c5.8-8.1,11.7-16.2,17.5-24.3c2.3-3.2,4.4-6.7,6-10.3c1.5-3.3,1.9-6.7,1.5-10.2c-0.3-2.6-1.7-4-3.7-4
	c-2.1,0-3.3,1.3-3.7,3.4c-0.2,1.1-0.5,2.3-0.6,3.4c-0.1,1,0,2,0,3.1c-2.6,0.9-5.3,0.4-7.9,0.5c-2.6,0.1-5.3,0-7.8,0
	c-2.9-9.5,4.5-23.3,18.1-24.4c15-1.1,25,11.1,22,26.9c-1.5,8-6.1,14.3-11.2,20.3C1115.2,239.2,1113.5,240.2,1112.9,241.9
	c-0.2,0.2-1,0.2-0.2,0.7C1113,242.8,1113.2,242.3,1112.9,241.9z"/>
</svg>
