<?xml version="1.0" standalone="no"?>
<!DOCTYPE svg PUBLIC "-//W3C//DTD SVG 20010904//EN"
 "http://www.w3.org/TR/2001/REC-SVG-20010904/DTD/svg10.dtd">
<svg version="1.0" xmlns="http://www.w3.org/2000/svg"
 width="787.000000pt" height="787.000000pt" viewBox="0 0 787.000000 787.000000"
 preserveAspectRatio="xMidYMid meet">
<metadata>
Created by potrace 1.11, written by Peter Selinger 2001-2013
</metadata>
<g transform="translate(0.000000,787.000000) scale(0.100000,-0.100000)"
fill="#000000" stroke="none">
<path d="M3410 5647 l0 -557 -167 0 -168 1 -145 211 c-80 115 -144 213 -143
216 1 4 18 12 38 19 82 28 163 112 185 192 5 20 10 70 10 113 0 67 -4 84 -33
139 -37 72 -95 122 -160 140 -51 14 -242 26 -319 21 l-58 -4 0 -544 0 -545 68
3 67 3 3 228 2 227 24 0 c19 0 48 -37 162 -207 l139 -208 6 -590 c6 -592 8
-626 45 -740 43 -131 129 -246 232 -312 143 -92 385 -143 582 -123 299 31 492
143 589 343 51 103 69 173 81 312 11 120 13 1046 4 1083 -6 20 -13 22 -65 22
l-59 0 0 525 0 525 -65 0 -65 0 -2 -397 -3 -397 -374 409 c-206 226 -382 419
-392 430 -19 19 -19 5 -19 -538z m-625 349 c75 -32 115 -88 115 -163 0 -131
-88 -203 -247 -203 l-63 0 0 196 0 197 78 -5 c42 -3 95 -13 117 -22z m1125
-533 c186 -202 336 -371 333 -375 -2 -5 -91 -8 -198 -8 l-194 0 -3 -542 c-3
-592 -4 -600 -60 -641 -41 -31 -133 -35 -185 -9 -70 36 -68 21 -66 627 4 918
12 1340 25 1327 6 -6 163 -177 348 -379z"/>
<path d="M5035 6149 c-8 -19 -116 -263 -239 -544 -215 -491 -225 -510 -255
-519 l-31 -9 -2 -836 -3 -836 -90 3 c-261 10 -499 -76 -676 -245 -115 -110
-176 -212 -223 -377 l-23 -79 -22 74 c-54 179 -161 342 -287 438 -68 51 -223
134 -276 147 l-28 6 0 269 0 269 -250 0 -250 0 -2 588 -3 587 -229 3 -228 2
45 49 c107 115 117 164 117 634 l0 367 -70 0 -70 0 0 -368 c0 -403 -5 -451
-58 -526 -83 -119 -288 -121 -373 -3 -59 81 -62 106 -67 520 l-4 377 -64 0
-64 0 0 -377 c0 -399 6 -456 49 -541 34 -67 89 -120 158 -154 57 -28 79 -33
158 -36 l93 -4 6 -37 c8 -49 8 -607 -1 -816 -5 -142 -8 -165 -19 -149 -52 75
-78 102 -142 145 -41 27 -80 49 -88 49 -27 0 -14 17 26 35 119 54 194 233 170
403 -22 160 -93 263 -223 327 -126 61 -165 68 -445 74 l-254 6 58 40 c73 50
111 110 126 196 13 80 -8 176 -51 229 -28 35 -98 94 -123 103 -9 3 -5 13 13
33 52 57 64 92 64 189 0 80 -3 96 -29 142 -31 57 -80 96 -148 120 -45 16 -186
32 -275 33 l-53 0 0 -2225 0 -2225 285 0 285 0 0 265 c0 146 3 265 8 265 4 0
63 -120 132 -265 l125 -265 338 0 c268 0 337 3 331 13 -58 103 -365 566 -394
595 -22 22 -40 42 -40 45 0 2 33 21 74 40 70 33 145 95 177 147 15 23 16 20
23 -66 28 -371 227 -634 571 -751 195 -66 389 -69 604 -7 292 85 477 267 566
559 l27 89 23 -79 c30 -102 55 -161 100 -231 131 -204 367 -342 642 -375 245
-29 540 50 710 191 117 97 219 258 265 417 20 67 23 102 23 238 0 118 -5 179
-17 232 -10 40 -18 74 -18 77 0 4 38 6 85 6 l85 0 0 -570 0 -570 295 0 295 0
0 576 0 577 53 -7 c28 -3 84 -6 123 -6 l71 0 5 -87 c8 -122 35 -188 110 -269
78 -83 163 -126 318 -159 173 -38 201 -46 221 -68 28 -31 23 -65 -14 -102 -41
-41 -102 -53 -189 -35 -82 16 -147 46 -244 112 l-81 56 -88 -235 c-51 -136
-84 -238 -79 -243 16 -16 210 -90 287 -109 424 -109 806 6 956 289 43 80 61
160 61 265 0 277 -124 408 -475 500 -174 45 -183 49 -191 79 -15 60 23 95 113
103 76 7 151 -14 262 -73 46 -25 84 -44 85 -42 11 14 155 422 151 428 -9 14
-149 79 -215 99 -41 12 -125 24 -225 31 -136 10 -171 9 -232 -4 -86 -18 -174
-52 -249 -97 -53 -33 -161 -136 -196 -189 -16 -24 -17 -20 -17 105 l-1 130
100 18 c177 30 307 94 409 201 48 52 51 58 51 108 0 30 -5 59 -12 66 -8 8 -62
12 -175 12 -161 0 -163 0 -167 23 -10 49 -14 254 -5 270 9 15 30 17 184 17
l175 0 0 113 -1 112 -55 45 c-83 68 -153 99 -323 141 -167 42 -197 56 -207 94
-16 64 53 100 177 93 71 -4 89 -10 189 -61 l111 -55 10 26 c74 192 148 406
143 414 -13 21 -192 98 -274 118 -47 11 -131 23 -188 27 l-103 6 34 36 c59 61
80 115 80 201 0 120 -59 222 -153 265 l-38 17 33 43 c51 67 69 124 63 199 -10
123 -88 217 -208 250 -30 8 -110 18 -177 22 l-123 7 0 -551 0 -551 103 -3 102
-3 -64 -34 c-186 -102 -305 -286 -318 -496 -9 -145 21 -243 103 -334 85 -94
175 -138 368 -177 193 -39 206 -46 206 -114 0 -61 -92 -108 -189 -95 -102 14
-178 48 -298 132 -34 24 -63 43 -66 43 -2 0 -37 -88 -78 -196 l-74 -196 -3
126 -3 126 -259 0 -260 0 0 85 0 85 230 0 230 0 -2 223 -3 222 -227 3 -228 2
0 80 0 80 250 0 250 0 0 233 0 233 -41 10 -41 9 -235 535 c-129 294 -238 539
-243 544 -5 5 -16 -5 -25 -25z m-4348 -156 c54 -28 77 -72 77 -147 -1 -121
-52 -172 -185 -183 l-69 -6 0 183 0 183 69 -5 c41 -3 85 -13 108 -25z m5469 0
c56 -29 76 -73 72 -160 -5 -114 -52 -158 -182 -170 l-66 -6 0 183 0 183 69 -5
c40 -3 85 -13 107 -25z m-1007 -329 l88 -209 -88 -3 c-48 -1 -130 -1 -182 0
l-94 3 90 213 c50 117 92 211 94 208 2 -2 44 -98 92 -212z m-4394 -149 c69
-33 98 -77 98 -149 0 -59 -29 -125 -66 -149 -34 -22 -89 -34 -189 -42 l-88 -7
0 193 0 192 96 -6 c75 -4 107 -11 149 -32z m5404 24 c99 -21 161 -87 161 -171
0 -62 -19 -107 -59 -141 -40 -34 -84 -45 -194 -49 l-87 -3 0 188 0 187 65 0
c35 0 87 -5 114 -11z m-816 -326 c26 -60 47 -111 47 -115 0 -5 -151 -8 -336
-8 -265 0 -335 3 -331 13 2 6 24 58 48 115 l43 102 241 0 240 0 48 -107z
m-4197 -606 c34 -40 34 -123 0 -160 -28 -30 -82 -47 -153 -47 l-53 0 0 121 0
121 91 -4 c85 -3 92 -5 115 -31z m-57 -578 c114 -18 151 -54 151 -145 0 -89
-79 -134 -235 -134 l-65 0 0 139 c0 137 0 140 23 144 39 8 61 7 126 -4z m934
-671 l242 -3 -87 -48 c-188 -103 -325 -249 -390 -417 -26 -68 -38 -76 -38 -25
0 59 -21 137 -56 211 -47 100 -123 173 -236 228 l-88 44 82 25 c87 27 183 79
231 125 16 15 43 49 60 76 l32 49 3 -132 3 -131 242 -2z m3728 67 c51 -20 95
-38 98 -40 2 -3 -44 -5 -102 -5 l-107 0 0 40 c0 22 4 40 9 40 5 0 51 -16 102
-35z m-691 -192 l0 -117 -37 35 c-70 65 -128 107 -213 153 l-85 46 168 0 167
0 0 -117z m-3935 -337 c56 -37 72 -138 32 -197 -27 -41 -71 -58 -149 -58 l-58
-1 0 141 0 142 74 -5 c47 -3 85 -11 101 -22z m1627 -79 c56 -32 103 -85 131
-146 33 -72 31 -217 -4 -291 -50 -106 -128 -160 -245 -168 -94 -6 -158 15
-223 74 -68 61 -95 129 -95 245 0 77 3 93 32 152 60 121 141 169 278 164 66
-3 89 -8 126 -30z m1743 9 c59 -27 119 -90 149 -155 32 -71 30 -216 -5 -291
-50 -106 -128 -160 -245 -168 -101 -6 -163 16 -230 82 -64 65 -88 129 -89 241
0 71 4 88 33 147 57 116 137 166 267 167 53 1 82 -5 120 -23z"/>
<path d="M6690 6136 c0 -2 66 -123 146 -268 214 -384 194 -322 194 -590 l0
-228 65 0 64 0 3 243 3 242 139 250 c76 138 152 274 168 303 l29 52 -78 0 -78
0 -121 -221 c-66 -121 -125 -221 -130 -221 -5 -1 -63 98 -130 218 l-121 219
-76 3 c-43 2 -77 1 -77 -2z"/>
</g>
</svg>
